<svg xmlns="http://www.w3.org/2000/svg" viewBox="0 0 1053.45 1053.45"><defs><style>.cls-1{fill:#1b2e37;}.cls-2{fill:#425e6c;}.cls-3{fill:#f2f2f2;}.cls-4{fill:#d71440;}.cls-5{fill:#ccc;}</style></defs><title>Mesa de trabajo 2</title><g id="OBJECTS"><path class="cls-1" d="M526.72,0C235.82,0,0,235.82,0,526.72s235.82,526.73,526.72,526.73,526.73-235.83,526.73-526.73S817.62,0,526.72,0Zm0,949.79c-233.65,0-423.06-189.41-423.06-423.07S293.07,103.66,526.72,103.66,949.79,293.07,949.79,526.72,760.38,949.79,526.72,949.79Z"/><path class="cls-1" d="M526.72,0C235.82,0,0,235.82,0,526.72s235.82,526.73,526.72,526.73,526.73-235.83,526.73-526.73S817.62,0,526.72,0Zm0,949.79c-233.65,0-423.06-189.41-423.06-423.07S293.07,103.66,526.72,103.66,949.79,293.07,949.79,526.72,760.38,949.79,526.72,949.79Z"/><path class="cls-2" d="M526.72,103.66c-233.65,0-423.06,189.41-423.06,423.06S293.07,949.79,526.72,949.79,949.79,760.38,949.79,526.72,760.38,103.66,526.72,103.66Zm0,833c-226.4,0-409.94-183.53-409.94-409.94S300.32,116.78,526.72,116.78,936.66,300.32,936.66,526.72,753.13,936.66,526.72,936.66Z"/><path class="cls-2" d="M526.72,103.66c-233.65,0-423.06,189.41-423.06,423.06S293.07,949.79,526.72,949.79,949.79,760.38,949.79,526.72,760.38,103.66,526.72,103.66Zm0,833c-226.4,0-409.94-183.53-409.94-409.94S300.32,116.78,526.72,116.78,936.66,300.32,936.66,526.72,753.13,936.66,526.72,936.66Z"/><path class="cls-3" d="M526.72,116.78c-226.4,0-409.94,183.54-409.94,409.94S300.32,936.66,526.72,936.66,936.66,753.13,936.66,526.72,753.13,116.78,526.72,116.78ZM222,537.36H149.32a10.65,10.65,0,1,1,0-21.3H222a10.65,10.65,0,0,1,0,21.3Zm294.09-388a10.65,10.65,0,0,1,21.3,0v70.94a10.65,10.65,0,0,1-21.3,0Zm21.3,754.81a10.65,10.65,0,0,1-21.3,0V831.44a10.65,10.65,0,0,1,21.3,0ZM747.24,764.47l-217.33-145c-1.06,0-2.12.08-3.19.08a92.8,92.8,0,0,1-92.8-92.8c0-1.06.05-2.12.08-3.18L289,306.2c-7.54-11.3,5.93-24.77,17.23-17.23L523.54,434c1.06,0,2.12-.08,3.18-.08a92.8,92.8,0,0,1,92.8,92.8c0,1.07,0,2.13-.08,3.19l145,217.33C772,758.54,758.54,772,747.24,764.47ZM904.13,537.36H833.19a10.65,10.65,0,0,1,0-21.3h70.94a10.65,10.65,0,0,1,0,21.3Z"/><path class="cls-3" d="M526.72,116.78c-226.4,0-409.94,183.54-409.94,409.94S300.32,936.66,526.72,936.66,936.66,753.13,936.66,526.72,753.13,116.78,526.72,116.78ZM222,537.36H149.32a10.65,10.65,0,1,1,0-21.3H222a10.65,10.65,0,0,1,0,21.3Zm294.09-388a10.65,10.65,0,0,1,21.3,0v70.94a10.65,10.65,0,0,1-21.3,0Zm21.3,754.81a10.65,10.65,0,0,1-21.3,0V831.44a10.65,10.65,0,0,1,21.3,0ZM747.24,764.47l-217.33-145c-1.06,0-2.12.08-3.19.08a92.8,92.8,0,0,1-92.8-92.8c0-1.06.05-2.12.08-3.18L289,306.2c-7.54-11.3,5.93-24.77,17.23-17.23L523.54,434c1.06,0,2.12-.08,3.18-.08a92.8,92.8,0,0,1,92.8,92.8c0,1.07,0,2.13-.08,3.19l145,217.33C772,758.54,758.54,772,747.24,764.47ZM904.13,537.36H833.19a10.65,10.65,0,0,1,0-21.3h70.94a10.65,10.65,0,0,1,0,21.3Z"/><path class="cls-1" d="M526.75,230.9a10.64,10.64,0,0,0,10.65-10.64V149.32a10.65,10.65,0,0,0-21.3,0v70.94A10.64,10.64,0,0,0,526.75,230.9Z"/><path class="cls-1" d="M526.75,230.9a10.64,10.64,0,0,0,10.65-10.64V149.32a10.65,10.65,0,0,0-21.3,0v70.94A10.64,10.64,0,0,0,526.75,230.9Z"/><path class="cls-1" d="M526.75,820.79a10.65,10.65,0,0,0-10.65,10.65v72.69a10.65,10.65,0,0,0,21.3,0V831.44A10.65,10.65,0,0,0,526.75,820.79Z"/><path class="cls-1" d="M526.75,820.79a10.65,10.65,0,0,0-10.65,10.65v72.69a10.65,10.65,0,0,0,21.3,0V831.44A10.65,10.65,0,0,0,526.75,820.79Z"/><path class="cls-1" d="M222,516.06H149.32a10.65,10.65,0,1,0,0,21.3H222a10.65,10.65,0,0,0,0-21.3Z"/><path class="cls-1" d="M222,516.06H149.32a10.65,10.65,0,1,0,0,21.3H222a10.65,10.65,0,0,0,0-21.3Z"/><path class="cls-1" d="M904.13,516.06H833.19a10.65,10.65,0,0,0,0,21.3h70.94a10.65,10.65,0,0,0,0-21.3Z"/><path class="cls-1" d="M904.13,516.06H833.19a10.65,10.65,0,0,0,0,21.3h70.94a10.65,10.65,0,0,0,0-21.3Z"/><path class="cls-4" d="M523.54,434,306.2,289c-11.3-7.54-24.77,5.93-17.23,17.23L434,523.54A92.78,92.78,0,0,1,523.54,434Z"/><path class="cls-4" d="M523.54,434,306.2,289c-11.3-7.54-24.77,5.93-17.23,17.23L434,523.54A92.78,92.78,0,0,1,523.54,434Z"/><path class="cls-5" d="M619.44,529.91a92.76,92.76,0,0,1-89.53,89.53l217.33,145c11.3,7.54,24.77-5.93,17.23-17.23Z"/><path class="cls-5" d="M619.44,529.91a92.76,92.76,0,0,1-89.53,89.53l217.33,145c11.3,7.54,24.77-5.93,17.23-17.23Z"/><path class="cls-1" d="M619.44,529.91c0-1.06.08-2.12.08-3.19a92.8,92.8,0,0,0-92.8-92.8c-1.06,0-2.12.05-3.18.08A92.78,92.78,0,0,0,434,523.54c0,1.06-.08,2.12-.08,3.18a92.8,92.8,0,0,0,92.8,92.8c1.07,0,2.13,0,3.19-.08A92.76,92.76,0,0,0,619.44,529.91Z"/><path class="cls-1" d="M619.44,529.91c0-1.06.08-2.12.08-3.19a92.8,92.8,0,0,0-92.8-92.8c-1.06,0-2.12.05-3.18.08A92.78,92.78,0,0,0,434,523.54c0,1.06-.08,2.12-.08,3.18a92.8,92.8,0,0,0,92.8,92.8c1.07,0,2.13,0,3.19-.08A92.76,92.76,0,0,0,619.44,529.91Z"/></g></svg>