<svg xmlns="http://www.w3.org/2000/svg" viewBox="0 0 1841.1 611.42"><defs><style>.cls-1{isolation:isolate;}.cls-2{fill:#2d2d2d;}.cls-3,.cls-5{fill:#29bb89;}.cls-4{fill:#ff4848;}.cls-5,.cls-6,.cls-8,.cls-9{opacity:0.3;}.cls-6,.cls-8{fill:#9bd1e8;}.cls-7{fill:#26a9e0;}.cls-8,.cls-9{mix-blend-mode:multiply;}.cls-9{fill:#f5af74;}</style></defs><title>Mesa de trabajo 1</title><g class="cls-1"><g id="Capa_1" data-name="Capa 1"><path class="cls-2" d="M980.27,89.88q14.52-.61,49.78-.62V504.84q-11.13,7.43-39,15.46t-67.41,8q-36.49,0-58.44-9.9t-33.39-26.9q-11.46-17-15.15-39.58A298.73,298.73,0,0,1,813,403.42V102.25q0-6.8,3.1-9.28T834,89.88q14.84-.61,50.71-.62V405.89a189.81,189.81,0,0,0,1.55,26q1.53,11.13,5.87,18.55a25.54,25.54,0,0,0,12.06,10.82q7.72,3.4,19.48,3.4a91.26,91.26,0,0,0,20.1-2.16,69.89,69.89,0,0,0,15.77-5.26v-355c0-4.53,1-7.63,3.09-9.28S970.57,90.29,980.27,89.88ZM1215,306.94l-59.36-76.06q-11.76-16.69-17-28.76a64.93,64.93,0,0,1-5.26-26.28q0-16.08,13-23.81t35.87-7.73a123.69,123.69,0,0,1,33.39,4.33q15.45,4.34,20.41,8a64,64,0,0,0,12.37-20.1,55.55,55.55,0,0,0,3.71-18.86q0-16.08-18.55-25.36T1168,83.08q-54.42,0-82.25,26.28t-27.82,68.33a133.91,133.91,0,0,0,6.8,41.44q6.79,21,27.83,49.47l56.27,75.45q16.08,21,22,35.25a78.75,78.75,0,0,1,5.87,30.3q0,21.66-9.89,34.63t-35.25,13a89.49,89.49,0,0,1-32.16-5.88q-15.46-5.86-25.35-14.53a83,83,0,0,0-11.76,25.67q-3.71,13.9-3.71,24.43,0,16.08,19.79,28.75t61.23,12.68q45.13,0,69.26-17.32a90.75,90.75,0,0,0,33.7-44.83,176.36,176.36,0,0,0,9.59-58.44,159.48,159.48,0,0,0-7.42-49.48Q1237.22,335.4,1215,306.94ZM231,93c-2.07,1.65-3.09,4.54-3.09,8.66V245.72c0,7.42.09,14.84.31,22.26s.4,14.95.61,22.58.62,15.36,1.24,23.19,1.24,15.87,1.86,24.11,1.33,16.81,2.16,25.67c.46,5,1,10,1.59,15.2q-1.06-4.85-2.21-9.94-4.34-19.17-9.58-39.89t-11.45-40.82Q206.25,268,200.07,251.9L135.75,89.26h-55q-12.37,0-12.37,12.37V522.15q34.64,0,48.86-.61t17.31-3.1c2.06-1.64,3.1-4.53,3.1-8.65V361.36q0-10.5-.31-22.57t-.93-25q-.63-13-1.55-26.29t-2.16-27.21q-1.24-13.91-2.48-27.52c-.32-3.58-.71-7.11-1.1-10.64,1.32,6.12,2.72,12.54,4.2,19.3q4.32,19.8,9.58,40.82T154,322.4q5.88,19.19,11.45,34L231,522.15h53.8q12.36,0,12.37-12.36V89.26q-34,0-48.55.62T231,93Zm97.09,8.66V522.15H472.17q6.18,0,8.66-3.4t3.09-16.39q.61-13,.62-42.05h-87.2v-141h63.08q8.65,0,10.2-12.06t1.55-51H397.34V151.1H476.5c4.12,0,7-1.33,8.66-4s2.67-8.35,3.09-17,.62-22.27.62-40.82H340.45Q331.78,89.26,328.08,101.63Z"/><path class="cls-3" d="M612.65,311.71A34.46,34.46,0,0,1,629,282.35c54.72-33.88,91.17-66.35,91.17-114.68a34.5,34.5,0,1,1,69,0c0,40.45-14.75,77.53-43.83,110.21-23.74,26.68-53.77,46.88-80,63.13a34.51,34.51,0,0,1-52.67-29.3Z"/><path class="cls-4" d="M513.88,443.65c0-40.95,11.09-73.89,33.9-100.7,19.44-22.85,44.09-37.9,70.2-53.84,3.62-2.22,7.3-4.46,11-6.76A34.5,34.5,0,0,1,665.32,341q-5.76,3.57-11.39,7c-49.27,30.08-71,45.5-71,95.65a34.5,34.5,0,0,1-69,0Z"/><path class="cls-5" d="M612.46,57.2A34.5,34.5,0,0,1,647,22.7c38.39,0,73.79,13.69,99.67,38.55,27.83,26.73,42.54,63.53,42.54,106.42a34.5,34.5,0,0,1-69,0c0-56.08-39.44-76-73.21-76A34.5,34.5,0,0,1,612.46,57.2Z"/><path class="cls-6" d="M513.88,160.39c0-33.87,13.08-68,35.89-93.65,25.26-28.4,59.77-44,97.19-44a34.5,34.5,0,1,1,0,69c-38.33,0-64.08,35.52-64.08,68.7a34.5,34.5,0,0,1-69,0Z"/><path class="cls-7" d="M513.88,160.39a34.5,34.5,0,0,1,69,0c0,59.86,33.31,85.42,84.13,117.58a34.5,34.5,0,1,1-36.89,58.3c-27-17.1-55.26-36-77.23-62.69C526.64,241.73,513.88,204.7,513.88,160.39Z"/><path class="cls-7" d="M614.06,307.09A34.5,34.5,0,0,1,667,278l7.59,4.78c26.35,16.58,53.6,33.73,75.15,57.52,26.53,29.28,39.42,63.1,39.42,103.38a34.5,34.5,0,0,1-69,0c0-48.35-29.74-69.42-82.32-102.5q-3.86-2.43-7.73-4.88A34.46,34.46,0,0,1,614.06,307.09Z"/><path class="cls-8" d="M612.46,554.22v-.37a34.5,34.5,0,0,1,34.86-34.13c21.11.22,40.45-6.82,53.07-19.31,13.13-13,19.78-32.09,19.78-56.76a34.5,34.5,0,0,1,69,0c0,54.53-21.89,87.64-40.25,105.81-26,25.73-62.34,39.67-102.32,39.25A34.5,34.5,0,0,1,612.46,554.22Z"/><path class="cls-9" d="M513.88,443.65a34.5,34.5,0,0,1,69,0c0,52.47,37.47,76.06,64.08,76.06a34.5,34.5,0,0,1,0,69c-33.2,0-66.43-14.17-91.15-38.87C528.77,522.82,513.88,485.11,513.88,443.65Z"/><path class="cls-2" d="M1309.19,428.75V356.39a2.72,2.72,0,0,1,.43-1.71c.28-.36,1-.57,2.24-.64s3.25-.11,6.1-.11v66.7h18.38V427c0,.71-.16,1.18-.48,1.39a2.12,2.12,0,0,1-1.23.32Z"/><path class="cls-2" d="M1372.47,429.82a20.67,20.67,0,0,1-8.93-1.76,13.41,13.41,0,0,1-6-6.15,37.34,37.34,0,0,1-3.37-11.92,140.37,140.37,0,0,1-1.07-19.08q0-14.21,2.25-22.55t6.78-11.92a18,18,0,0,1,11.5-3.58,19,19,0,0,1,8.76,1.87,13.91,13.91,0,0,1,5.88,6.2,36.7,36.7,0,0,1,3.26,11.54,135.13,135.13,0,0,1,1,18.12q0,14.76-2.08,23.3T1384,426.13Q1379.52,429.82,1372.47,429.82Zm.32-9a7.25,7.25,0,0,0,6.15-2.94q2.19-2.94,3.2-9.62a120.27,120.27,0,0,0,1-17.47,133.89,133.89,0,0,0-.86-17.05q-.85-6.36-2.94-9.14a7,7,0,0,0-5.93-2.78,7.41,7.41,0,0,0-6.09,3q-2.35,3-3.42,9.84a123.55,123.55,0,0,0-1.07,18.38,112.42,112.42,0,0,0,.91,16q.9,6.1,3.1,8.93A7.08,7.08,0,0,0,1372.79,420.84Z"/><path class="cls-2" d="M1434,429.82a23.85,23.85,0,0,1-9.2-1.6,13.21,13.21,0,0,1-6.25-5.56q-2.4-4-3.53-11.17a123.71,123.71,0,0,1-1.12-18.44,105.87,105.87,0,0,1,1.6-20.47c1.07-5.23,2.6-9.3,4.6-12.18a15.41,15.41,0,0,1,7.22-5.94,27,27,0,0,1,9.56-1.6,17.42,17.42,0,0,1,8.29,1.66c2,1.1,3,2.37,3,3.79a13.72,13.72,0,0,1-.32,2.94,25.79,25.79,0,0,1-.75,2.73,10.09,10.09,0,0,0-3.63-1.87,16.39,16.39,0,0,0-4.92-.7,15.22,15.22,0,0,0-7,1.5,11.38,11.38,0,0,0-4.81,5,29.45,29.45,0,0,0-2.73,9.52,108.72,108.72,0,0,0-.85,15,134.36,134.36,0,0,0,.69,15.28,28.59,28.59,0,0,0,2.14,8.72,7.81,7.81,0,0,0,3.53,3.9,11,11,0,0,0,4.65,1,10.17,10.17,0,0,0,3.21-.43,6.54,6.54,0,0,0,2.08-1.07,3.63,3.63,0,0,0,1-1.07V392.09h-7.9v-5.45c0-1.21.67-1.82,2-1.82h14V425a22.93,22.93,0,0,1-3.26,2.19,20.2,20.2,0,0,1-4.81,1.87A25.82,25.82,0,0,1,1434,429.82Z"/><path class="cls-2" d="M1471.45,428.75V357.88a6.7,6.7,0,0,1,.42-2.83c.29-.53,1.05-.85,2.3-1s3.3-.16,6.15-.16V427a1.42,1.42,0,0,1-.43,1.18,5.17,5.17,0,0,1-2.19.43Q1475.93,428.76,1471.45,428.75Z"/><path class="cls-2" d="M1516.66,429.82q-7.38,0-10.74-2.08c-2.25-1.39-3.37-2.84-3.37-4.33a11,11,0,0,1,.53-3.05,8.78,8.78,0,0,1,1.71-3.15,13.66,13.66,0,0,0,4.44,2.67,18.09,18.09,0,0,0,6.57,1.07q5.67,0,8.07-3a12.24,12.24,0,0,0,2.41-7.91,16.86,16.86,0,0,0-1.34-6.74,29.36,29.36,0,0,0-4.86-7.16l-10.69-12.5a36.51,36.51,0,0,1-5.18-8.07,18.44,18.44,0,0,1-1.55-7.43,14.13,14.13,0,0,1,4.75-11q4.75-4.27,13.63-4.28,7.59,0,10.8,1.55t3.2,3.8a6.67,6.67,0,0,1-.53,2.4,8.24,8.24,0,0,1-1.61,2.51,15.69,15.69,0,0,0-3.9-1.65,21.42,21.42,0,0,0-6.57-.91,13.4,13.4,0,0,0-7.64,1.92,6.2,6.2,0,0,0-2.83,5.45,10.69,10.69,0,0,0,1.33,5.29,36.91,36.91,0,0,0,3.69,5.3l11.54,13.14a31.22,31.22,0,0,1,5.67,9,26.11,26.11,0,0,1,1.49,9.09,27.45,27.45,0,0,1-1.76,9.94A15.32,15.32,0,0,1,1528,427Q1523.93,429.81,1516.66,429.82Z"/><path class="cls-2" d="M1552.79,362.05v-6.41c0-1.14.6-1.71,1.81-1.71h36.34v6.41a1.75,1.75,0,0,1-.42,1.34,2.1,2.1,0,0,1-1.39.37Zm14.53,66.7V355.21a3.17,3.17,0,0,1,1.71-.32h5.13a3.44,3.44,0,0,1,1.82.32V427a1.52,1.52,0,0,1-.37,1.18,4.88,4.88,0,0,1-2.19.43Q1571.59,428.76,1567.32,428.75Z"/><path class="cls-2" d="M1611.36,428.75V357.88a6.51,6.51,0,0,1,.43-2.83c.28-.53,1-.85,2.29-1s3.3-.16,6.15-.16V427a1.39,1.39,0,0,1-.43,1.18,5.12,5.12,0,0,1-2.19.43C1616.44,428.72,1614.35,428.75,1611.36,428.75Z"/><path class="cls-2" d="M1660.74,429.82a21.25,21.25,0,0,1-5.77-.75,11.65,11.65,0,0,1-4.86-2.78,16.41,16.41,0,0,1-3.8-5.93,42.41,42.41,0,0,1-2.46-10.26,120.49,120.49,0,0,1-.85-15.66,115.73,115.73,0,0,1,1.23-18.44,46.71,46.71,0,0,1,3.36-12,21.83,21.83,0,0,1,4.87-7,14.46,14.46,0,0,1,5.71-3.31,21.4,21.4,0,0,1,5.88-.86,16.68,16.68,0,0,1,6.15.91,6.46,6.46,0,0,1,3,2.24,5,5,0,0,1,.85,2.73,9.63,9.63,0,0,1-.43,2.89,11.92,11.92,0,0,1-1,2.35,12.23,12.23,0,0,0-1.55-1,14.23,14.23,0,0,0-2.4-1.07,9.16,9.16,0,0,0-3-.48,11.79,11.79,0,0,0-4,.7,9.06,9.06,0,0,0-3.74,2.67,16.68,16.68,0,0,0-3,5.61,49.35,49.35,0,0,0-2.09,9.41,106.63,106.63,0,0,0-.8,14.21,89.58,89.58,0,0,0,.8,13.26,28.72,28.72,0,0,0,2.2,8,8.37,8.37,0,0,0,3.36,3.9,8.88,8.88,0,0,0,4.33,1.07,15.23,15.23,0,0,0,5.77-1.07,14.92,14.92,0,0,0,4.06-2.24,16,16,0,0,1,1,2.46,9.5,9.5,0,0,1,.42,2.77,5.48,5.48,0,0,1-1.65,3.8,11.6,11.6,0,0,1-4.65,2.83A20.71,20.71,0,0,1,1660.74,429.82Z"/><path class="cls-2" d="M1321.38,523q-7.38,0-10.75-2.09t-3.36-4.32a10.57,10.57,0,0,1,.53-3.05,8.78,8.78,0,0,1,1.71-3.15A13.83,13.83,0,0,0,1314,513a18.09,18.09,0,0,0,6.57,1.07q5.67,0,8.07-3a12.2,12.2,0,0,0,2.41-7.91,16.85,16.85,0,0,0-1.34-6.73,29.18,29.18,0,0,0-4.86-7.16l-10.69-12.51a36.15,36.15,0,0,1-5.19-8.07,18.54,18.54,0,0,1-1.55-7.43,14.13,14.13,0,0,1,4.76-11q4.75-4.28,13.63-4.27,7.59,0,10.8,1.55c2.13,1,3.2,2.3,3.2,3.79a6.71,6.71,0,0,1-.53,2.41,8.43,8.43,0,0,1-1.61,2.51,16,16,0,0,0-3.9-1.66,21.73,21.73,0,0,0-6.57-.91,13.4,13.4,0,0,0-7.64,1.93,6.21,6.21,0,0,0-2.84,5.45,10.72,10.72,0,0,0,1.34,5.29,36.87,36.87,0,0,0,3.69,5.29l11.54,13.15a31.22,31.22,0,0,1,5.67,9,26.28,26.28,0,0,1,1.49,9.08,27.59,27.59,0,0,1-1.76,9.94,15.36,15.36,0,0,1-5.88,7.38Q1328.64,523,1321.38,523Z"/><path class="cls-2" d="M1380.38,523a20.52,20.52,0,0,1-8.93-1.77,13.29,13.29,0,0,1-6-6.14,37.16,37.16,0,0,1-3.37-11.92,140.37,140.37,0,0,1-1.07-19.08q0-14.22,2.25-22.55t6.78-11.92a18,18,0,0,1,11.49-3.58,18.93,18.93,0,0,1,8.77,1.87,13.86,13.86,0,0,1,5.88,6.2,36.62,36.62,0,0,1,3.26,11.54,135,135,0,0,1,1,18.12q0,14.75-2.08,23.3t-6.52,12.24Q1387.43,523,1380.38,523Zm.32-9a7.22,7.22,0,0,0,6.14-2.94q2.19-2.94,3.21-9.62a120.33,120.33,0,0,0,1-17.48,133.83,133.83,0,0,0-.86-17q-.86-6.36-2.94-9.14a7,7,0,0,0-5.93-2.78,7.4,7.4,0,0,0-6.09,3q-2.36,3-3.42,9.83a123.7,123.7,0,0,0-1.07,18.39,112.42,112.42,0,0,0,.91,16q.9,6.09,3.1,8.93A7.08,7.08,0,0,0,1380.7,514Z"/><path class="cls-2" d="M1423.24,521.91V449.55a2.73,2.73,0,0,1,.43-1.72c.28-.35,1-.57,2.24-.63s3.24-.11,6.09-.11v66.7h18.39v6.41c0,.71-.16,1.18-.48,1.39a2.23,2.23,0,0,1-1.23.32Z"/><path class="cls-2" d="M1488.44,523a24.3,24.3,0,0,1-10.26-1.82,13,13,0,0,1-5.77-5,19.52,19.52,0,0,1-2.57-7.32,57.34,57.34,0,0,1-.64-8.77V448.9a1.51,1.51,0,0,1,.43-1.28,5,5,0,0,1,2.24-.42c1.21-.08,3.32-.11,6.31-.11v53.23a51.77,51.77,0,0,0,.32,5.93,11.78,11.78,0,0,0,1.44,4.65,7.73,7.73,0,0,0,3.16,3,11.36,11.36,0,0,0,5.34,1.07,24.41,24.41,0,0,0,5.45-.59,20.94,20.94,0,0,0,4-1.23V448.9a1.54,1.54,0,0,1,.42-1.28,5.14,5.14,0,0,1,2.25-.42c1.21-.08,3.24-.11,6.09-.11v72a24.25,24.25,0,0,1-6.84,2.56A44.82,44.82,0,0,1,1488.44,523Z"/><path class="cls-2" d="M1526.71,455.21V448.8c0-1.14.6-1.71,1.81-1.71h36.35v6.41a1.75,1.75,0,0,1-.43,1.34,2.1,2.1,0,0,1-1.39.37Zm14.53,66.7V448.37a3.17,3.17,0,0,1,1.71-.32h5.13a3.42,3.42,0,0,1,1.82.32V520.2a1.52,1.52,0,0,1-.37,1.18,4.78,4.78,0,0,1-2.19.42Q1545.51,521.91,1541.24,521.91Z"/><path class="cls-2" d="M1585.28,521.91V451a6.48,6.48,0,0,1,.43-2.83c.28-.53,1-.86,2.3-1s3.29-.16,6.14-.16V520.2a1.39,1.39,0,0,1-.43,1.18,5,5,0,0,1-2.19.42C1590.36,521.87,1588.27,521.91,1585.28,521.91Z"/><path class="cls-2" d="M1636.26,523a20.47,20.47,0,0,1-8.92-1.77,13.31,13.31,0,0,1-6-6.14,37.43,37.43,0,0,1-3.36-11.92,138.76,138.76,0,0,1-1.07-19.08q0-14.22,2.24-22.55T1626,449.6a18,18,0,0,1,11.49-3.58,18.89,18.89,0,0,1,8.76,1.87,13.8,13.8,0,0,1,5.88,6.2,36.1,36.1,0,0,1,3.26,11.54,133.17,133.17,0,0,1,1,18.12q0,14.75-2.09,23.3t-6.52,12.24Q1643.32,523,1636.26,523Zm.32-9a7.22,7.22,0,0,0,6.15-2.94q2.19-2.94,3.21-9.62a122,122,0,0,0,1-17.48,134.13,134.13,0,0,0-.85-17q-.86-6.36-2.94-9.14a7,7,0,0,0-5.93-2.78,7.42,7.42,0,0,0-6.1,3c-1.56,2-2.71,5.27-3.42,9.83a125.08,125.08,0,0,0-1.07,18.39,113.92,113.92,0,0,0,.91,16q.92,6.09,3.1,8.93A7.1,7.1,0,0,0,1636.58,514Z"/><path class="cls-2" d="M1679.12,521.91V448.8c0-1.14.61-1.71,1.82-1.71l6.84,1.71-1.17,12.5c.14,1,.26,2.39.37,4.17s.2,3.76.27,5.93.14,4.44.21,6.79.14,4.6.21,6.73.11,4,.11,5.67V520.2a1.52,1.52,0,0,1-.37,1.18,4.62,4.62,0,0,1-2.14.42Q1683.5,521.91,1679.12,521.91Zm30,0-12.29-29.39c-.43-1.14-1-2.77-1.77-4.87s-1.55-4.47-2.4-7.11-1.73-5.29-2.62-8-1.71-5.15-2.46-7.43-1.55-4.81-2.4-7.59l-4.92-5.34.64-5.13h6.63l12,28.86q.75,1.82,1.87,5.07t2.41,7.17q1.28,3.9,2.56,7.8c.86,2.6,1.64,5,2.35,7.21s1.53,4.64,2.46,7.27l5.24,6.31-.86,5.13Zm6.41,0-6.84-1.71,1-14.32c-.14-1.07-.25-2.48-.32-4.23s-.14-3.67-.21-5.77-.15-4.26-.22-6.47-.12-4.32-.15-6.36-.06-3.82-.06-5.39V448.8a1.5,1.5,0,0,1,.38-1.18,4.61,4.61,0,0,1,2.19-.42c1.21-.08,3.24-.11,6.09-.11V520.2C1717.39,521.34,1716.78,521.91,1715.57,521.91Z"/><path class="cls-2" d="M1753.73,523q-7.38,0-10.74-2.09t-3.37-4.32a10.62,10.62,0,0,1,.54-3.05,8.6,8.6,0,0,1,1.7-3.15,13.83,13.83,0,0,0,4.44,2.67,18.11,18.11,0,0,0,6.58,1.07q5.65,0,8.07-3a12.25,12.25,0,0,0,2.4-7.91,17,17,0,0,0-1.33-6.73,29.55,29.55,0,0,0-4.87-7.16l-10.69-12.51a36.06,36.06,0,0,1-5.18-8.07,18.37,18.37,0,0,1-1.55-7.43,14.13,14.13,0,0,1,4.75-11q4.77-4.28,13.63-4.27,7.59,0,10.8,1.55c2.14,1,3.21,2.3,3.21,3.79a6.54,6.54,0,0,1-.54,2.41,8.4,8.4,0,0,1-1.6,2.51,16.38,16.38,0,0,0-3.9-1.66,21.75,21.75,0,0,0-6.58-.91,13.44,13.44,0,0,0-7.64,1.93,6.2,6.2,0,0,0-2.83,5.45,10.71,10.71,0,0,0,1.33,5.29,36.87,36.87,0,0,0,3.69,5.29l11.54,13.15a31.22,31.22,0,0,1,5.67,9,26,26,0,0,1,1.5,9.08,27.38,27.38,0,0,1-1.77,9.94,15.24,15.24,0,0,1-5.88,7.38Q1761,523,1753.73,523Z"/></g></g></svg>