<svg xmlns="http://www.w3.org/2000/svg" viewBox="0 0 715.25 329.61"><defs><style>.cls-1,.cls-7{fill:#92e3a9;}.cls-2,.cls-5{fill:#fff;}.cls-2{opacity:0.7;}.cls-3,.cls-9{fill:#263238;}.cls-10,.cls-4{fill:none;}.cls-10,.cls-4,.cls-5,.cls-6,.cls-7,.cls-8,.cls-9{stroke:#263238;stroke-miterlimit:10;}.cls-6{fill:#8c8c8c;}.cls-8{fill:#c2c2c2;}.cls-10{stroke-width:2px;}</style></defs><title>5889671</title><g id="Background_Simple" data-name="Background Simple"><path class="cls-1" d="M663.94,182.09S621.23,105,482.2,92.48s-167.51,51.09-191.79,63.65-84.59-12.56-170,25.13S66,273.39,60.08,293.49s-31.82,37.69-32.66,52.76S35,388.13,35,388.13H725.08s17.59-54.44-7.53-85.43-41.88-31-43.56-49.42S676.51,206.38,663.94,182.09Z" transform="translate(-19.05 -90.85)"/><path class="cls-2" d="M663.94,182.09S621.23,105,482.2,92.48s-167.51,51.09-191.79,63.65-84.59-12.56-170,25.13S66,273.39,60.08,293.49s-31.82,37.69-32.66,52.76S35,388.13,35,388.13H725.08s17.59-54.44-7.53-85.43-41.88-31-43.56-49.42S676.51,206.38,663.94,182.09Z" transform="translate(-19.05 -90.85)"/></g><g id="Birds"><path class="cls-3" d="M304.59,161.16a11.51,11.51,0,0,1,3.94-2.54,10.09,10.09,0,0,1,2.34-.63,7.17,7.17,0,0,1,1.24-.09l.71.08a3.63,3.63,0,0,1,.66.21,5.66,5.66,0,0,1,2.07,1.44,18.34,18.34,0,0,1,1.53,1.81c1,1.22,1.87,2.41,2.81,3.67l-.86.14a9.18,9.18,0,0,1,2.26-4.72,11.46,11.46,0,0,1,4.32-3,14.06,14.06,0,0,1,5.1-.89c.85,0,1.69.1,2.53.2s1.64.37,2.44.59l0,.2c-.83.12-1.65.2-2.45.26l-2.37.35c-.39.08-.77.18-1.15.25a6.12,6.12,0,0,0-1.12.28c-.37.12-.74.21-1.11.32s-.69.3-1,.42a12.6,12.6,0,0,0-3.8,2.33,10.9,10.9,0,0,0-2.67,3.63l-.44,1.07-.42-.94a12,12,0,0,0-2.53-3.65,8.62,8.62,0,0,0-3.6-2.11,5.54,5.54,0,0,0-.86-.12c-.33,0-.68,0-1,0a17.15,17.15,0,0,0-2.09.34c-1.41.32-2.82.78-4.28,1.26Z" transform="translate(-19.05 -90.85)"/><path class="cls-3" d="M274.6,187.39a5.21,5.21,0,0,1,2.09-1.69,5.45,5.45,0,0,1,1.35-.42,4.44,4.44,0,0,1,.74-.06,2.46,2.46,0,0,1,.87.2,5.11,5.11,0,0,1,2,2.06c.5.71,1,1.34,1.61,2l-.86.14a5,5,0,0,1,1.15-2.85A6.27,6.27,0,0,1,286,185a6.9,6.9,0,0,1,3-.4,9.48,9.48,0,0,1,1.43.24,9.14,9.14,0,0,1,1.35.51l0,.2a11,11,0,0,1-1.35.33c-.44.13-.86.23-1.27.32a18.75,18.75,0,0,0-2.3.79,7.9,7.9,0,0,0-2,1.12,7.33,7.33,0,0,0-1.56,1.76l-.56,1-.3-.87a4.76,4.76,0,0,0-1.33-2,4.05,4.05,0,0,0-2-.89,2.68,2.68,0,0,0-.35,0c-.16,0-.34,0-.51,0a10.86,10.86,0,0,0-1.1.12c-.76.1-1.55.28-2.44.4Z" transform="translate(-19.05 -90.85)"/><path class="cls-3" d="M331.78,187.39a5.08,5.08,0,0,1,2.09-1.69,5.5,5.5,0,0,1,1.34-.42,4.44,4.44,0,0,1,.74-.06,2.41,2.41,0,0,1,.87.2,5.14,5.14,0,0,1,2,2.06,23,23,0,0,0,1.61,2l-.87.14a5,5,0,0,1,1.16-2.85,6.27,6.27,0,0,1,2.5-1.83,6.88,6.88,0,0,1,3-.4,9.93,9.93,0,0,1,1.43.24,9,9,0,0,1,1.34.51l0,.2a10.19,10.19,0,0,1-1.35.33c-.43.13-.86.23-1.27.32A19.18,19.18,0,0,0,344,187a7.9,7.9,0,0,0-2,1.12,7.12,7.12,0,0,0-1.56,1.76l-.56,1-.31-.87a4.74,4.74,0,0,0-1.32-2,4.09,4.09,0,0,0-2-.89,2.63,2.63,0,0,0-.36,0c-.16,0-.33,0-.51,0-.35,0-.72.06-1.1.12-.76.1-1.55.28-2.43.4Z" transform="translate(-19.05 -90.85)"/></g><g id="Clouds"><path class="cls-4" d="M594.47,139.85c-2.64-11.86-16.32-20.71-28.24-19a14.91,14.91,0,0,0-8.1,3.58c-3,2.81-2.32,6-3.83,9.46a3.24,3.24,0,0,1-2.27,2c-3,.51-5.36-2.44-8.36-2.47a8.11,8.11,0,0,0-6.36,3.17c-1.17,1.8-.36,5-2.46,6.15-2.34,1.34-5.2-1.21-7.74-.29-3.15,1.15-1.71,3.44-2.86,4.88s-3.44.86-6.59.57-5.74,3.44-5.74,3.44h99.46s.86-1.44-2.87-7.17-8.88-1.72-11.18-1.72S594.47,139.86,594.47,139.85Z" transform="translate(-19.05 -90.85)"/><path class="cls-4" d="M637.37,210.62c-1.39-6.23-8.57-10.88-14.84-10a7.81,7.81,0,0,0-4.25,1.89c-1.6,1.47-1.22,3.14-2,5a1.69,1.69,0,0,1-1.2,1.05c-1.55.27-2.81-1.29-4.39-1.3a4.27,4.27,0,0,0-3.34,1.66c-.61,1-.19,2.61-1.29,3.24s-2.73-.64-4.07-.15c-1.65.6-.9,1.8-1.5,2.56s-1.81.45-3.47.3-3,1.81-3,1.81h52.26s.45-.76-1.51-3.77-4.67-.9-5.87-.9S637.37,210.62,637.37,210.62Z" transform="translate(-19.05 -90.85)"/><path class="cls-4" d="M243.68,221.19c-4.76-17.91-29.44-31.25-50.94-28.69-5.36.63-10.58,2.31-14.61,5.41-5.49,4.23-4.18,9-6.9,14.26a5.66,5.66,0,0,1-4.1,3c-5.35.77-9.66-3.69-15.07-3.72-4.05,0-9.23,1.84-11.49,4.77-2.1,2.72-.63,7.47-4.42,9.28-4.23,2-9.38-1.82-14-.43-5.68,1.73-3.1,5.19-5.17,7.35s-6.2,1.29-11.89.86-10.34,5.19-10.34,5.19H274.18s1.55-2.16-5.17-10.81-16-2.59-20.16-2.59A5.41,5.41,0,0,1,243.68,221.19Z" transform="translate(-19.05 -90.85)"/></g><g id="Cargo_Ship" data-name="Cargo Ship"><rect class="cls-5" x="226.01" y="252.46" width="45.52" height="12.2"/><rect class="cls-5" x="240.29" y="252.46" width="31.24" height="12.2"/><rect class="cls-5" x="226.01" y="240.56" width="45.52" height="12.2"/><rect class="cls-5" x="240.29" y="240.56" width="31.24" height="12.2"/><rect class="cls-5" x="226.01" y="228.66" width="45.52" height="12.2"/><rect class="cls-5" x="240.29" y="228.66" width="31.24" height="12.2"/><rect class="cls-5" x="242.97" y="252.46" width="45.52" height="12.2"/><rect class="cls-5" x="257.24" y="252.46" width="31.24" height="12.2"/><rect class="cls-5" x="242.97" y="240.56" width="45.52" height="12.2"/><rect class="cls-5" x="257.24" y="240.56" width="31.24" height="12.2"/><rect class="cls-5" x="242.97" y="228.66" width="45.52" height="12.2"/><rect class="cls-5" x="257.24" y="228.66" width="31.24" height="12.2"/><rect class="cls-6" x="259.93" y="252.46" width="45.52" height="12.2"/><rect class="cls-6" x="274.2" y="252.46" width="31.24" height="12.2"/><rect class="cls-5" x="259.93" y="240.56" width="45.52" height="12.2"/><rect class="cls-5" x="274.2" y="240.56" width="31.24" height="12.2"/><rect class="cls-7" x="259.93" y="228.66" width="45.52" height="12.2"/><rect class="cls-7" x="274.2" y="228.66" width="31.24" height="12.2"/><rect class="cls-5" x="242.73" y="187.3" width="1.72" height="20.34"/><rect class="cls-5" x="241.2" y="201.33" width="4.78" height="8.99"/><polygon class="cls-5" points="211.79 220.1 225.29 221.96 225.29 214.62 211.79 214.62 211.79 220.1"/><rect class="cls-5" x="225.29" y="209.36" width="39.83" height="5.26"/><rect class="cls-5" x="256.4" y="209.36" width="8.72" height="5.26"/><rect class="cls-5" x="221.22" y="214.62" width="41.3" height="52.11"/><rect class="cls-5" x="258.27" y="214.62" width="10.38" height="52.11"/><polygon class="cls-5" points="276.03 220.1 262.52 221.96 262.52 214.62 276.03 214.62 276.03 220.1"/><rect class="cls-5" x="276.03" y="214.62" width="3.35" height="5.69"/><polygon class="cls-5" points="279.38 220.31 269.5 222.16 262.52 222.16 276.03 220.31 279.38 220.31"/><rect class="cls-3" x="223.21" y="218.55" width="2.09" height="3.41"/><rect class="cls-3" x="226.67" y="218.55" width="2.09" height="3.41"/><rect class="cls-3" x="235.54" y="218.55" width="2.09" height="3.41"/><rect class="cls-3" x="239.01" y="218.55" width="2.09" height="3.41"/><rect class="cls-3" x="247.88" y="218.55" width="2.09" height="3.41"/><rect class="cls-3" x="251.34" y="218.55" width="2.09" height="3.41"/><rect class="cls-3" x="223.21" y="229.08" width="2.09" height="3.41"/><rect class="cls-3" x="226.67" y="229.08" width="2.09" height="3.41"/><rect class="cls-3" x="235.54" y="229.08" width="2.09" height="3.41"/><rect class="cls-3" x="239.01" y="229.08" width="2.09" height="3.41"/><rect class="cls-3" x="247.88" y="229.08" width="2.09" height="3.41"/><rect class="cls-3" x="251.34" y="229.08" width="2.09" height="3.41"/><rect class="cls-3" x="223.21" y="239.6" width="2.09" height="3.41"/><rect class="cls-3" x="226.67" y="239.6" width="2.09" height="3.41"/><rect class="cls-3" x="235.54" y="239.6" width="2.09" height="3.41"/><rect class="cls-3" x="239.01" y="239.6" width="2.09" height="3.41"/><rect class="cls-3" x="247.88" y="239.6" width="2.09" height="3.41"/><rect class="cls-3" x="251.34" y="239.6" width="2.09" height="3.41"/><rect class="cls-3" x="223.21" y="250.13" width="2.09" height="3.41"/><rect class="cls-3" x="226.67" y="250.13" width="2.09" height="3.41"/><rect class="cls-3" x="235.54" y="250.13" width="2.09" height="3.41"/><rect class="cls-3" x="239.01" y="250.13" width="2.09" height="3.41"/><rect class="cls-3" x="247.88" y="250.13" width="2.09" height="3.41"/><rect class="cls-3" x="251.34" y="250.13" width="2.09" height="3.41"/><rect class="cls-3" x="227.23" y="211.28" width="4.4" height="2.87"/><rect class="cls-3" x="232.87" y="211.28" width="4.4" height="2.87"/><rect class="cls-3" x="238.52" y="211.28" width="4.4" height="2.87"/><rect class="cls-3" x="244.17" y="211.28" width="4.4" height="2.87"/><rect class="cls-3" x="249.81" y="211.28" width="4.4" height="2.87"/><rect class="cls-5" x="157.2" y="252.46" width="45.52" height="12.2"/><rect class="cls-5" x="171.48" y="252.46" width="31.24" height="12.2"/><rect class="cls-5" x="157.2" y="240.56" width="45.52" height="12.2"/><rect class="cls-5" x="171.48" y="240.56" width="31.24" height="12.2"/><rect class="cls-5" x="157.2" y="228.66" width="45.52" height="12.2"/><rect class="cls-5" x="171.48" y="228.66" width="31.24" height="12.2"/><rect class="cls-5" x="174.16" y="252.46" width="45.52" height="12.2"/><rect class="cls-6" x="188.43" y="252.46" width="31.24" height="12.2"/><rect class="cls-5" x="174.16" y="240.56" width="45.52" height="12.2"/><rect class="cls-5" x="188.43" y="240.56" width="31.24" height="12.2"/><rect class="cls-5" x="174.16" y="228.66" width="45.52" height="12.2"/><rect class="cls-6" x="188.43" y="228.66" width="31.24" height="12.2"/><rect class="cls-5" x="191.12" y="252.46" width="45.52" height="12.2"/><rect class="cls-5" x="205.39" y="252.46" width="31.24" height="12.2"/><rect class="cls-8" x="191.12" y="240.56" width="45.52" height="12.2"/><rect class="cls-8" x="205.39" y="240.56" width="31.24" height="12.2"/><rect class="cls-6" x="191.12" y="228.66" width="45.52" height="12.2"/><rect class="cls-6" x="205.39" y="228.66" width="31.24" height="12.2"/><rect class="cls-5" x="63.77" y="252.46" width="45.52" height="12.2"/><rect class="cls-5" x="78.05" y="252.46" width="31.24" height="12.2"/><rect class="cls-5" x="63.77" y="240.56" width="45.52" height="12.2"/><rect class="cls-5" x="78.05" y="240.56" width="31.24" height="12.2"/><rect class="cls-7" x="63.77" y="228.66" width="45.52" height="12.2"/><rect class="cls-7" x="78.05" y="228.66" width="31.24" height="12.2"/><rect class="cls-5" x="103.16" y="252.46" width="45.52" height="12.2"/><rect class="cls-5" x="117.43" y="252.46" width="31.24" height="12.2"/><rect class="cls-5" x="103.16" y="240.56" width="45.52" height="12.2"/><rect class="cls-5" x="117.43" y="240.56" width="31.24" height="12.2"/><rect class="cls-5" x="103.16" y="228.66" width="45.52" height="12.2"/><rect class="cls-5" x="117.43" y="228.66" width="31.24" height="12.2"/><rect class="cls-5" x="120.12" y="252.46" width="45.52" height="12.2"/><rect class="cls-5" x="134.39" y="252.46" width="31.24" height="12.2"/><rect class="cls-5" x="120.12" y="240.56" width="45.52" height="12.2"/><rect class="cls-5" x="134.39" y="240.56" width="31.24" height="12.2"/><rect class="cls-5" x="120.12" y="228.66" width="45.52" height="12.2"/><rect class="cls-5" x="134.39" y="228.66" width="31.24" height="12.2"/><rect class="cls-7" x="137.08" y="252.46" width="45.52" height="12.2"/><rect class="cls-7" x="151.35" y="252.46" width="31.24" height="12.2"/><rect class="cls-5" x="137.08" y="240.56" width="45.52" height="12.2"/><rect class="cls-5" x="151.35" y="240.56" width="31.24" height="12.2"/><rect class="cls-7" x="137.08" y="228.66" width="45.52" height="12.2"/><rect class="cls-7" x="151.35" y="228.66" width="31.24" height="12.2"/><rect class="cls-5" x="80.73" y="252.46" width="45.52" height="12.2"/><rect class="cls-5" x="95.01" y="252.46" width="31.24" height="12.2"/><rect class="cls-5" x="80.73" y="240.56" width="45.52" height="12.2"/><rect class="cls-5" x="95.01" y="240.56" width="31.24" height="12.2"/><rect class="cls-7" x="80.73" y="228.66" width="45.52" height="12.2"/><rect class="cls-7" x="95.01" y="228.66" width="31.24" height="12.2"/><rect class="cls-5" x="97.69" y="252.46" width="45.52" height="12.2"/><rect class="cls-5" x="111.97" y="252.46" width="31.24" height="12.2"/><rect class="cls-5" x="97.69" y="240.56" width="45.52" height="12.2"/><rect class="cls-8" x="111.97" y="240.56" width="31.24" height="12.2"/><rect class="cls-5" x="97.69" y="228.66" width="45.52" height="12.2"/><rect class="cls-5" x="111.97" y="228.66" width="31.24" height="12.2"/><path class="cls-5" d="M139.64,346.28V333.19s1.49-.89,2.38,1.79,4.61,14.43,4.61,14.43Z" transform="translate(-19.05 -90.85)"/><rect class="cls-5" x="60.8" y="242.36" width="59.8" height="12.18"/><path class="cls-9" d="M330.44,354.13H156.08l-9.6-8.79H72.9l20.39,30.39s1.6,4.8-3.19,6c-1.74.43-3.48.76-5,1a5.46,5.46,0,0,0-4.61,5.39H299.41S326,384.93,330.44,354.13Z" transform="translate(-19.05 -90.85)"/><path class="cls-5" d="M92.59,380.31a4.69,4.69,0,0,1-2.49,1.42c-1.74.43-3.48.76-5,1a5.46,5.46,0,0,0-4.61,5.39H299.41a37.14,37.14,0,0,0,17.11-7.82Z" transform="translate(-19.05 -90.85)"/></g><g id="Port"><rect class="cls-9" x="437.41" y="147.63" width="6.71" height="139.45"/><rect class="cls-9" x="413.31" y="247.32" width="51.74" height="7.66"/><rect class="cls-9" x="392.23" y="147.63" width="6.71" height="139.45"/><rect class="cls-9" x="423.12" y="147.63" width="6.71" height="139.45"/><rect class="cls-8" x="237.14" y="287.04" width="445.71" height="10.24"/><rect class="cls-9" x="404.81" y="287.04" width="278.04" height="10.24"/><rect class="cls-5" x="311.75" y="131.83" width="32.58" height="11.98"/><rect class="cls-5" x="329.96" y="131.83" width="14.37" height="11.98"/><rect class="cls-5" x="361.09" y="131.83" width="32.58" height="11.98"/><rect class="cls-5" x="379.3" y="131.83" width="14.37" height="11.98"/><rect class="cls-7" x="370.2" y="247.32" width="51.74" height="7.66"/><rect class="cls-7" x="366.36" y="147.63" width="6.71" height="139.45"/><rect class="cls-7" x="396.54" y="147.63" width="6.71" height="139.45"/><rect class="cls-7" x="418.1" y="147.63" width="6.71" height="139.45"/><rect class="cls-7" x="440.62" y="147.63" width="6.71" height="139.45"/><rect class="cls-9" x="462.17" y="147.63" width="6.71" height="139.45"/><rect class="cls-7" x="402.64" y="84.67" width="4.51" height="61.39"/><polyline class="cls-10" points="281.57 144.76 405.41 84.88 386.96 147.63"/><rect class="cls-7" x="294.51" y="143.8" width="257.25" height="3.83"/><rect class="cls-9" x="541.22" y="143.8" width="10.54" height="3.83"/><polyline class="cls-10" points="520.14 144.76 405.41 84.88 414.75 147.63"/><rect class="cls-7" x="276.3" y="143.8" width="257.25" height="3.83"/><rect class="cls-9" x="523.01" y="143.8" width="10.54" height="3.83"/><rect class="cls-7" x="396.3" y="80.57" width="18.2" height="8.14"/><rect class="cls-7" x="387.2" y="78.17" width="35.45" height="2.4"/><rect class="cls-5" x="317.4" y="274.6" width="45.52" height="12.2"/><rect class="cls-5" x="331.68" y="274.6" width="31.24" height="12.2"/><rect class="cls-8" x="317.4" y="262.7" width="45.52" height="12.2"/><rect class="cls-8" x="331.68" y="262.7" width="31.24" height="12.2"/><rect class="cls-5" x="317.4" y="250.8" width="45.52" height="12.2"/><rect class="cls-5" x="331.68" y="250.8" width="31.24" height="12.2"/><rect class="cls-7" x="334.36" y="274.6" width="45.52" height="12.2"/><rect class="cls-7" x="348.63" y="274.6" width="31.24" height="12.2"/><rect class="cls-5" x="334.36" y="262.7" width="45.52" height="12.2"/><rect class="cls-5" x="348.63" y="262.7" width="31.24" height="12.2"/><rect class="cls-6" x="334.36" y="250.8" width="45.52" height="12.2"/><rect class="cls-6" x="348.63" y="250.8" width="31.24" height="12.2"/><rect class="cls-8" x="351.32" y="274.6" width="45.52" height="12.2"/><rect class="cls-8" x="365.59" y="274.6" width="31.24" height="12.2"/><rect class="cls-7" x="351.32" y="262.7" width="45.52" height="12.2"/><rect class="cls-7" x="365.59" y="262.7" width="31.24" height="12.2"/><rect class="cls-5" x="351.32" y="250.8" width="45.52" height="12.2"/><rect class="cls-5" x="365.59" y="250.8" width="31.24" height="12.2"/><rect class="cls-7" x="290.67" y="147.63" width="27.78" height="5.27"/><rect class="cls-7" x="322.29" y="147.63" width="27.78" height="5.27"/><rect class="cls-7" x="486.12" y="147.63" width="27.78" height="5.27"/><rect class="cls-7" x="517.74" y="147.63" width="27.78" height="5.27"/><rect class="cls-5" x="500.32" y="228.31" width="51.13" height="55.29"/><rect class="cls-5" x="500.32" y="231.75" width="51.13" height="55.29"/><line class="cls-4" x1="509.24" y1="286.44" x2="509.24" y2="232.34"/><line class="cls-4" x1="515.19" y1="286.44" x2="515.19" y2="232.34"/><line class="cls-4" x1="508.93" y1="235.68" x2="514.62" y2="235.68"/><line class="cls-4" x1="508.93" y1="240.52" x2="514.62" y2="240.52"/><line class="cls-4" x1="508.93" y1="245.35" x2="514.62" y2="245.35"/><line class="cls-4" x1="508.93" y1="250.19" x2="514.62" y2="250.19"/><line class="cls-4" x1="508.93" y1="255.03" x2="514.62" y2="255.03"/><line class="cls-4" x1="508.93" y1="259.87" x2="514.62" y2="259.87"/><line class="cls-4" x1="508.93" y1="264.7" x2="514.62" y2="264.7"/><line class="cls-4" x1="508.93" y1="269.54" x2="514.62" y2="269.54"/><line class="cls-4" x1="508.93" y1="274.38" x2="514.62" y2="274.38"/><line class="cls-4" x1="508.93" y1="279.22" x2="514.62" y2="279.22"/><line class="cls-4" x1="508.93" y1="284.05" x2="514.62" y2="284.05"/><rect class="cls-7" x="534.03" y="243.9" width="123.76" height="43.55"/><rect class="cls-7" x="633.06" y="243.9" width="24.73" height="43.55"/><rect class="cls-8" x="530.02" y="235.71" width="131.78" height="25.37"/><rect class="cls-9" x="633.17" y="235.71" width="28.63" height="25.37"/><rect class="cls-9" x="540.33" y="265.67" width="10.31" height="10.31"/><rect class="cls-9" x="601.64" y="265.67" width="10.31" height="10.31"/><rect class="cls-9" x="569.55" y="265.67" width="10.31" height="21.77"/></g><g id="Sea"><line class="cls-4" x1="476.55" y1="304.82" x2="495.82" y2="304.82"/><line class="cls-4" x1="509.22" y1="305.66" x2="572.03" y2="305.66"/><line class="cls-4" y1="297.28" x2="715.25" y2="297.28"/><line class="cls-4" x1="53.6" y1="312.36" x2="103.02" y2="312.36"/><line class="cls-4" x1="135.68" y1="305.66" x2="265.5" y2="305.66"/><line class="cls-4" x1="201.84" y1="312.36" x2="237.86" y2="312.36"/><line class="cls-4" x1="126.47" y1="314.03" x2="144.06" y2="314.03"/><line class="cls-4" x1="317.42" y1="303.98" x2="358.46" y2="303.98"/><line class="cls-4" x1="288.95" y1="313.19" x2="347.58" y2="313.19"/><line class="cls-4" x1="391.13" y1="309.01" x2="443.89" y2="309.01"/><line class="cls-4" x1="447.24" y1="318.22" x2="499.17" y2="318.22"/><line class="cls-4" x1="340.87" y1="328.27" x2="391.13" y2="328.27"/><line class="cls-4" x1="541.88" y1="316.54" x2="567.01" y2="316.54"/><line class="cls-4" x1="587.11" y1="309.01" x2="638.2" y2="309.01"/><line class="cls-4" x1="586.27" y1="324.92" x2="628.15" y2="324.92"/><line class="cls-4" x1="636.52" y1="318.22" x2="655.79" y2="318.22"/><line class="cls-4" x1="665" y1="311.52" x2="695.15" y2="311.52"/><line class="cls-4" x1="156.62" y1="322.41" x2="178.39" y2="322.41"/><line class="cls-4" x1="41.88" y1="312.36" x2="30.99" y2="312.36"/><line class="cls-4" x1="99.67" y1="329.11" x2="44.39" y2="329.11"/></g></svg>