<svg xmlns="http://www.w3.org/2000/svg" viewBox="0 0 377.9 1048.58"><defs><style>.cls-1{fill:#999;}.cls-2{fill:#b3b3b3;}.cls-3{fill:#ccc;}.cls-4{fill:#ab2125;}.cls-5{fill:#c1272d;}.cls-6{fill:#1b2e37;}</style></defs><title>Mesa de trabajo 3</title><g id="OBJECTS"><rect class="cls-1" x="0.86" y="971.91" width="376.23" height="76.34"/><rect class="cls-2" x="88.26" y="971.91" width="201.42" height="76.34"/><polygon class="cls-2" points="334.71 971.91 43.24 971.91 88.27 285.73 289.69 285.73 334.71 971.91"/><polygon class="cls-3" points="289.69 971.91 88.27 971.91 119.38 285.73 258.57 285.73 289.69 971.91"/><polygon class="cls-4" points="188.97 0 48.82 84.31 329.13 84.31 188.97 0"/><polygon class="cls-5" points="188.97 0 112.48 84.31 265.47 84.31 188.97 0"/><rect class="cls-3" x="88.26" y="84.31" width="201.42" height="201.42"/><rect class="cls-6" x="148.39" y="84.31" width="81.18" height="201.42"/><rect class="cls-1" x="56.46" y="231.96" width="265.02" height="53.77"/><rect class="cls-2" x="119.38" y="231.96" width="139.19" height="53.77"/><polygon class="cls-5" points="46.86 916.73 320.72 758.61 312.04 626.39 56.22 774.09 46.86 916.73"/><polygon class="cls-5" points="334.71 971.91 329.39 890.84 188.97 971.91 334.71 971.91"/><polygon class="cls-5" points="74.94 488.81 65.58 631.45 303.36 494.16 294.69 361.94 74.94 488.81"/><polygon class="cls-5" points="88.27 285.73 84.3 346.17 188.97 285.73 88.27 285.73"/><polygon class="cls-4" points="320.72 758.61 312.04 626.39 274.99 647.78 281.05 781.51 320.72 758.61"/><polygon class="cls-4" points="56.22 774.09 46.86 916.73 91.95 890.69 98.34 749.77 56.22 774.09"/><polygon class="cls-4" points="329.39 890.84 287.12 915.25 289.69 971.91 334.71 971.91 329.39 890.84"/><polygon class="cls-4" points="74.94 488.81 65.58 631.45 104.73 608.84 111.12 467.92 74.94 488.81"/><polygon class="cls-4" points="303.36 494.16 294.69 361.94 262.86 380.31 268.92 514.04 303.36 494.16"/><polygon class="cls-1" points="334.71 972.64 289.6 972.64 289.6 1048.58 377.9 1048.58 377.9 972.64 334.71 972.64"/><polygon class="cls-1" points="334.71 972.64 289.6 972.64 289.6 1048.58 377.9 1048.58 377.9 972.64 334.71 972.64"/><polygon class="cls-1" points="43.24 972.64 0 972.64 0 1048.58 88.29 1048.58 88.29 972.64 43.24 972.64"/><polygon class="cls-1" points="43.24 972.64 0 972.64 0 1048.58 88.29 1048.58 88.29 972.64 43.24 972.64"/><polygon class="cls-2" points="188.97 972.64 88.29 972.64 88.29 1048.58 289.6 1048.58 289.6 972.64 188.97 972.64"/><polygon class="cls-2" points="188.97 972.64 88.29 972.64 88.29 1048.58 289.6 1048.58 289.6 972.64 188.97 972.64"/><polygon class="cls-2" points="274.99 647.78 274.99 647.78 274.99 647.78 312.04 626.39 303.36 494.16 268.92 514.05 274.99 647.78"/><polygon class="cls-2" points="274.99 647.78 274.99 647.78 274.99 647.78 312.04 626.39 303.36 494.16 268.92 514.05 274.99 647.78"/><polygon class="cls-2" points="287.12 915.25 287.12 915.25 287.12 915.25 329.39 890.84 320.72 758.62 281.05 781.51 287.12 915.25"/><polygon class="cls-2" points="287.12 915.25 287.12 915.25 287.12 915.25 329.39 890.84 320.72 758.62 281.05 781.51 287.12 915.25"/><polygon class="cls-2" points="262.86 380.3 294.69 361.93 289.69 285.72 258.57 285.72 262.86 380.3"/><polygon class="cls-2" points="262.86 380.3 294.69 361.93 289.69 285.72 258.57 285.72 262.86 380.3"/><polygon class="cls-2" points="92.36 891.06 47.68 916.91 47.68 916.82 47.68 916.82 56.63 774.13 98.54 749.79 104.83 608.86 65.63 631.45 74.97 488.81 111.13 467.92 117.52 326.99 84.32 346.17 88.29 285.73 88.29 286.1 43.24 972.64 88.27 972.64 92.36 891.06"/><polygon class="cls-2" points="92.36 891.06 47.68 916.91 47.68 916.82 47.68 916.82 56.63 774.13 98.54 749.79 104.83 608.86 65.63 631.45 74.97 488.81 111.13 467.92 117.52 326.99 84.32 346.17 88.29 285.73 88.29 286.1 43.24 972.64 88.27 972.64 92.36 891.06"/><polygon class="cls-3" points="111.12 467.6 262.86 380.15 258.57 285.72 229.56 285.72 188.97 285.72 118.31 326.99 118.31 326.99 118.31 326.99 111.52 467.6 111.32 467.6 111.12 467.6"/><polygon class="cls-3" points="111.12 467.6 262.86 380.15 258.57 285.72 229.56 285.72 188.97 285.72 118.31 326.99 118.31 326.99 118.31 326.99 111.52 467.6 111.32 467.6 111.12 467.6"/><polygon class="cls-3" points="98.34 749.77 274.99 647.78 268.92 514.05 104.73 608.84 98.34 749.77 98.34 749.77 98.34 749.77"/><polygon class="cls-3" points="98.34 749.77 274.99 647.78 268.92 514.05 104.73 608.84 98.34 749.77 98.34 749.77 98.34 749.77"/><polygon class="cls-3" points="281.05 781.51 91.95 891.06 88.27 972.64 188.97 972.64 287.12 915.62 281.05 781.51"/><polygon class="cls-3" points="281.05 781.51 91.95 891.06 88.27 972.64 188.97 972.64 287.12 915.62 281.05 781.51"/><polygon class="cls-4" points="289.69 84.41 329.13 84.41 188.97 0.1 265.47 84.41 289.69 84.41"/><polygon class="cls-4" points="289.69 84.41 329.13 84.41 188.97 0.1 265.47 84.41 289.69 84.41"/><polygon class="cls-4" points="188.97 0.1 48.82 84.41 88.27 84.41 112.48 84.41 188.97 0.1"/><polygon class="cls-4" points="188.97 0.1 48.82 84.41 88.27 84.41 112.48 84.41 188.97 0.1"/><polygon class="cls-5" points="148.39 84.41 229.56 84.41 265.47 84.41 188.97 0.1 112.48 84.41 148.39 84.41"/><polygon class="cls-5" points="148.39 84.41 229.56 84.41 265.47 84.41 188.97 0.1 112.48 84.41 148.39 84.41"/><polygon class="cls-3" points="229.56 84.41 229.56 232.74 258.57 232.74 289.6 232.74 289.6 84.41 265.47 84.41 229.56 84.41"/><polygon class="cls-3" points="229.56 84.41 229.56 232.74 258.57 232.74 289.6 232.74 289.6 84.41 265.47 84.41 229.56 84.41"/><polygon class="cls-3" points="148.33 232.74 148.33 84.41 112.48 84.41 88.29 84.41 88.29 232.74 119.38 232.74 148.33 232.74"/><polygon class="cls-3" points="148.33 232.74 148.33 84.41 112.48 84.41 88.29 84.41 88.29 232.74 119.38 232.74 148.33 232.74"/><rect class="cls-6" x="148.33" y="84.41" width="81.23" height="148.33"/><rect class="cls-6" x="148.33" y="84.41" width="81.23" height="148.33"/><polygon class="cls-1" points="119.38 285.72 148.39 285.72 188.97 285.72 229.56 285.72 258.57 285.72 289.69 285.72 321.39 285.72 321.39 232.74 289.69 232.74 257.82 232.74 257.82 285.72 120.08 285.72 120.08 232.74 88.27 232.74 56.51 232.74 56.51 285.72 88.27 285.72 88.27 285.72 119.38 285.72"/><polygon class="cls-1" points="119.38 285.72 148.39 285.72 188.97 285.72 229.56 285.72 258.57 285.72 289.69 285.72 321.39 285.72 321.39 232.74 289.69 232.74 257.82 232.74 257.82 285.72 120.08 285.72 120.08 232.74 88.27 232.74 56.51 232.74 56.51 285.72 88.27 285.72 88.27 285.72 119.38 285.72"/><polygon class="cls-2" points="148.39 232.74 120.08 232.74 120.08 285.72 257.82 285.72 257.82 232.74 229.56 232.74 148.39 232.74"/><polygon class="cls-2" points="148.39 232.74 120.08 232.74 120.08 285.72 257.82 285.72 257.82 232.74 229.56 232.74 148.39 232.74"/><polygon class="cls-5" points="281.05 781.51 274.99 647.78 274.99 647.78 98.34 749.77 91.95 890.69 46.86 916.73 46.86 916.73 91.95 890.7 281.05 781.51 320.72 758.62 320.72 758.61 281.05 781.51"/><polygon class="cls-5" points="281.05 781.51 274.99 647.78 274.99 647.78 98.34 749.77 91.95 890.69 46.86 916.73 46.86 916.73 91.95 890.7 281.05 781.51 320.72 758.62 320.72 758.61 281.05 781.51"/><polygon class="cls-5" points="289.69 972.64 287.84 915.62 287.84 915.8 188.97 972.64 289.69 972.64 334.71 972.64 334.71 972.64 289.69 972.64"/><polygon class="cls-5" points="289.69 972.64 287.84 915.62 287.84 915.8 188.97 972.64 289.69 972.64 334.71 972.64 334.71 972.64 289.69 972.64"/><polygon class="cls-5" points="111.12 467.92 104.73 608.84 65.58 631.45 104.73 608.84 268.92 514.05 303.36 494.16 303.36 494.16 268.92 514.04 262.86 380.31 294.69 361.94 294.69 361.94 262.86 380.31 111.12 467.92"/><polygon class="cls-5" points="111.12 467.92 104.73 608.84 65.58 631.45 104.73 608.84 268.92 514.05 303.36 494.16 303.36 494.16 268.92 514.04 262.86 380.31 294.69 361.94 294.69 361.94 262.86 380.31 111.12 467.92"/><polygon class="cls-5" points="188.97 285.72 148.39 285.72 119.38 285.72 117.51 326.98 188.97 285.72"/><polygon class="cls-5" points="188.97 285.72 148.39 285.72 119.38 285.72 117.51 326.98 188.97 285.72"/><polygon class="cls-4" points="274.99 647.78 281.05 781.51 320.72 758.61 312.04 626.39 312.04 626.39 274.99 647.78 274.99 647.78"/><polygon class="cls-4" points="274.99 647.78 281.05 781.51 320.72 758.61 312.04 626.39 312.04 626.39 274.99 647.78 274.99 647.78"/><polygon class="cls-4" points="91.95 890.69 98.34 749.77 98.34 749.77 98.34 749.77 56.22 774.09 46.86 916.73 46.86 916.73 91.95 890.69"/><polygon class="cls-4" points="91.95 890.69 98.34 749.77 98.34 749.77 98.34 749.77 56.22 774.09 46.86 916.73 46.86 916.73 91.95 890.69"/><polygon class="cls-4" points="287.12 915.62 289.69 972.64 334.71 972.64 334.71 972.64 329.39 891.21 329.39 891.21 287.12 915.62 287.12 915.62"/><polygon class="cls-4" points="287.12 915.62 289.69 972.64 334.71 972.64 334.71 972.64 329.39 891.21 329.39 891.21 287.12 915.62 287.12 915.62"/><polygon class="cls-4" points="104.73 608.84 111.12 467.92 111.12 467.92 111.12 467.92 74.94 488.81 65.58 631.45 104.73 608.84"/><polygon class="cls-4" points="104.73 608.84 111.12 467.92 111.12 467.92 111.12 467.92 74.94 488.81 65.58 631.45 104.73 608.84"/><polygon class="cls-4" points="262.86 380.31 268.92 514.04 303.36 494.16 294.69 361.94 262.86 380.31"/><polygon class="cls-4" points="262.86 380.31 268.92 514.04 303.36 494.16 294.69 361.94 262.86 380.31"/><polygon class="cls-4" points="117.51 326.99 119.38 285.72 88.27 285.72 84.3 346.16 117.51 326.99 117.51 326.99 117.51 326.99"/><polygon class="cls-4" points="117.51 326.99 119.38 285.72 88.27 285.72 84.3 346.16 117.51 326.99 117.51 326.99 117.51 326.99"/><polygon class="cls-4" points="88.27 285.73 84.3 346.17 117.51 326.99 119.38 285.73 88.27 285.73"/></g></svg>