<svg xmlns="http://www.w3.org/2000/svg" viewBox="0 0 1047.57 1047.57"><defs><style>.cls-1{fill:none;}.cls-2{fill:#9d5a3f;}.cls-3{fill:#7a442d;}.cls-4{fill:#8d5037;}</style></defs><title>Mesa de trabajo 4</title><g id="OBJECTS"><path class="cls-1" d="M404.59,585.24A132.67,132.67,0,0,1,396,564.61L282.75,548.06l-71.61,14.85A313.63,313.63,0,0,0,275.3,717.27l60.56-39.77Z"/><path class="cls-1" d="M404.59,585.24A132.67,132.67,0,0,1,396,564.61L282.75,548.06l-71.61,14.85A313.63,313.63,0,0,0,275.3,717.27l60.56-39.77Z"/><path class="cls-1" d="M483,651.58a134,134,0,0,1-20.08-8.31L371,711.72l-40.07,61a313.54,313.54,0,0,0,153.94,63.7l14.74-71.08Z"/><path class="cls-1" d="M483,651.58a134,134,0,0,1-20.08-8.31L371,711.72l-40.07,61a313.54,313.54,0,0,0,153.94,63.7l14.74-71.08Z"/><path class="cls-1" d="M565.58,396.32a132.57,132.57,0,0,1,19.66,8.27l92.27-68.73,39.76-60.57a313.51,313.51,0,0,0-153.65-64.06l-14.72,71Z"/><path class="cls-1" d="M565.58,396.32a132.57,132.57,0,0,1,19.66,8.27l92.27-68.73,39.76-60.57a313.51,313.51,0,0,0-153.65-64.06l-14.72,71Z"/><path class="cls-1" d="M585.24,643a133.59,133.59,0,0,1-19.66,8.26L548.9,765.37l14.72,71a313.62,313.62,0,0,0,153.65-64.07L677.5,711.72Z"/><path class="cls-1" d="M585.24,643a133.59,133.59,0,0,1-19.66,8.26L548.9,765.37l14.72,71a313.62,313.62,0,0,0,153.65-64.07L677.5,711.72Z"/><path class="cls-1" d="M396,483a133.08,133.08,0,0,1,8.59-20.63l-68.73-92.26L275.3,330.31a313.55,313.55,0,0,0-64.16,154.36l71.61,14.85Z"/><path class="cls-1" d="M396,483a133.08,133.08,0,0,1,8.59-20.63l-68.73-92.26L275.3,330.31a313.55,313.55,0,0,0-64.16,154.36l71.61,14.85Z"/><path class="cls-1" d="M462.88,404.31A131.94,131.94,0,0,1,483,396L499.6,282.21l-14.74-71.09a313.46,313.46,0,0,0-153.94,63.71l40.07,61Z"/><path class="cls-1" d="M462.88,404.31A131.94,131.94,0,0,1,483,396L499.6,282.21l-14.74-71.09a313.46,313.46,0,0,0-153.94,63.71l40.07,61Z"/><path class="cls-1" d="M765.75,548.06,651.53,564.75a133.3,133.3,0,0,1-8.17,19.76l69.27,93,60,39.36a313.54,313.54,0,0,0,63.86-154.14Z"/><path class="cls-1" d="M765.75,548.06,651.53,564.75a133.3,133.3,0,0,1-8.17,19.76l69.27,93,60,39.36a313.54,313.54,0,0,0,63.86-154.14Z"/><path class="cls-1" d="M643.36,463.06a133.75,133.75,0,0,1,8.17,19.76l114.22,16.7,70.7-14.66a313.54,313.54,0,0,0-63.86-154.15l-60,39.36Z"/><path class="cls-1" d="M643.36,463.06a133.75,133.75,0,0,1,8.17,19.76l114.22,16.7,70.7-14.66a313.54,313.54,0,0,0-63.86-154.15l-60,39.36Z"/><path class="cls-2" d="M554.09,32.49a30.37,30.37,0,1,0-60.6,0l5.94,85.39h48.71Z"/><path class="cls-2" d="M554.09,32.49a30.37,30.37,0,1,0-60.6,0l5.94,85.39h48.71Z"/><path class="cls-2" d="M493.49,1015.07a30.37,30.37,0,1,0,60.6,0l-6-85.4H499.43Z"/><path class="cls-2" d="M493.49,1015.07a30.37,30.37,0,1,0,60.6,0l-6-85.4H499.43Z"/><path class="cls-2" d="M32.49,493.48A30.35,30.35,0,0,0,0,523.77H0a30.37,30.37,0,0,0,32.5,30.31l85.39-5.94V499.43Z"/><path class="cls-2" d="M32.49,493.48A30.35,30.35,0,0,0,0,523.77H0a30.37,30.37,0,0,0,32.5,30.31l85.39-5.94V499.43Z"/><path class="cls-2" d="M1015.08,493.49l-85.4,5.94v48.71l85.4,6a30.37,30.37,0,1,0,0-60.6Z"/><path class="cls-2" d="M1015.08,493.49l-85.4,5.94v48.71l85.4,6a30.37,30.37,0,1,0,0-60.6Z"/><path class="cls-2" d="M197.81,155a30.38,30.38,0,0,0-44.4-1.54h0a30.37,30.37,0,0,0,1.55,44.4L219.54,254,254,219.54Z"/><path class="cls-2" d="M197.81,155a30.38,30.38,0,0,0-44.4-1.54h0a30.37,30.37,0,0,0,1.55,44.4L219.54,254,254,219.54Z"/><path class="cls-2" d="M849.77,892.62a30.37,30.37,0,1,0,42.85-42.85L828,793.6,793.6,828Z"/><path class="cls-2" d="M849.77,892.62a30.37,30.37,0,1,0,42.85-42.85L828,793.6,793.6,828Z"/><path class="cls-2" d="M155,849.77a30.36,30.36,0,0,0-1.55,44.39h0a30.38,30.38,0,0,0,44.4-1.54L254,828,219.54,793.6Z"/><path class="cls-2" d="M155,849.77a30.36,30.36,0,0,0-1.55,44.39h0a30.38,30.38,0,0,0,44.4-1.54L254,828,219.54,793.6Z"/><path class="cls-2" d="M892.62,197.81a30.38,30.38,0,0,0,1.54-44.4h0A30.37,30.37,0,0,0,849.77,155L793.6,219.54,828,254Z"/><path class="cls-2" d="M892.62,197.81a30.38,30.38,0,0,0,1.54-44.4h0A30.37,30.37,0,0,0,849.77,155L793.6,219.54,828,254Z"/><path class="cls-3" d="M568.57,156.31l-13.15-38.43H492.16L479,156.31a370,370,0,0,1,89.56,0Z"/><path class="cls-3" d="M568.57,156.31l-13.15-38.43H492.16L479,156.31a370,370,0,0,1,89.56,0Z"/><path class="cls-3" d="M479,891.26l13.14,38.41h63.27l13.15-38.41a371.33,371.33,0,0,1-89.56,0Z"/><path class="cls-3" d="M479,891.26l13.14,38.41h63.27l13.15-38.41a371.33,371.33,0,0,1-89.56,0Z"/><path class="cls-3" d="M156.31,479l-38.42,13.14v63.27l38.42,13.14a371.24,371.24,0,0,1,0-89.55Z"/><path class="cls-3" d="M156.31,479l-38.42,13.14v63.27l38.42,13.14a371.24,371.24,0,0,1,0-89.55Z"/><path class="cls-3" d="M929.68,492.15,891.26,479a368.63,368.63,0,0,1,0,89.56l38.42-13.15V492.15Z"/><path class="cls-3" d="M929.68,492.15,891.26,479a368.63,368.63,0,0,1,0,89.56l38.42-13.15V492.15Z"/><path class="cls-3" d="M295.75,232.35l-36.63-18L254,219.54,219.54,254l-5.15,5.14,18,36.63A372.89,372.89,0,0,1,295.75,232.35Z"/><path class="cls-3" d="M295.75,232.35l-36.63-18L254,219.54,219.54,254l-5.15,5.14,18,36.63A372.89,372.89,0,0,1,295.75,232.35Z"/><path class="cls-3" d="M751.82,815.23l36.63,18L793.6,828,828,793.6l5.15-5.15-18-36.63A373.73,373.73,0,0,1,751.82,815.23Z"/><path class="cls-3" d="M751.82,815.23l36.63,18L793.6,828,828,793.6l5.15-5.15-18-36.63A373.73,373.73,0,0,1,751.82,815.23Z"/><path class="cls-3" d="M232.35,751.82l-18,36.63,5.15,5.15L254,828l5.14,5.15,36.63-18A373.31,373.31,0,0,1,232.35,751.82Z"/><path class="cls-3" d="M232.35,751.82l-18,36.63,5.15,5.15L254,828l5.14,5.15,36.63-18A373.31,373.31,0,0,1,232.35,751.82Z"/><path class="cls-3" d="M815.23,295.75l18-36.63L828,254,793.6,219.54l-5.15-5.15-36.63,18A373.31,373.31,0,0,1,815.23,295.75Z"/><path class="cls-3" d="M815.23,295.75l18-36.63L828,254,793.6,219.54l-5.15-5.15-36.63,18A373.31,373.31,0,0,1,815.23,295.75Z"/><path class="cls-4" d="M495.52,392.65a133.13,133.13,0,0,1,58.44.44L537.7,281.88l14.9-71.83q-14.24-1.31-28.81-1.33c-9.1,0-18.1.41-27,1.17l14.93,72Z"/><path class="cls-4" d="M495.52,392.65a133.13,133.13,0,0,1,58.44.44L537.7,281.88l14.9-71.83q-14.24-1.31-28.81-1.33c-9.1,0-18.1.41-27,1.17l14.93,72Z"/><path class="cls-4" d="M554,654.49a133.54,133.54,0,0,1-58.44.44L511.71,765.7l-14.93,72c8.91.76,17.91,1.17,27,1.17,9.71,0,19.32-.47,28.81-1.33L537.7,765.7Z"/><path class="cls-4" d="M554,654.49a133.54,133.54,0,0,1-58.44.44L511.71,765.7l-14.93,72c8.91.76,17.91,1.17,27,1.17,9.71,0,19.32-.47,28.81-1.33L537.7,765.7Z"/><path class="cls-4" d="M392.84,552.87a133,133,0,0,1,0-58.17l-110,16.09L210,495.69c-.83,9.26-1.27,18.63-1.27,28.1s.44,18.83,1.27,28.09l72.81-15.09Z"/><path class="cls-4" d="M392.84,552.87a133,133,0,0,1,0-58.17l-110,16.09L210,495.69c-.83,9.26-1.27,18.63-1.27,28.1s.44,18.83,1.27,28.09l72.81-15.09Z"/><path class="cls-4" d="M654.67,494.43a133,133,0,0,1,0,58.72l112-16.36,71,14.72c.8-9.14,1.24-18.38,1.24-27.72s-.44-18.59-1.24-27.72l-71,14.72Z"/><path class="cls-4" d="M654.67,494.43a133,133,0,0,1,0,58.72l112-16.36,71,14.72c.8-9.14,1.24-18.38,1.24-27.72s-.44-18.59-1.24-27.72l-71,14.72Z"/><path class="cls-4" d="M411,451.26a135,135,0,0,1,41.41-41l-89.58-66.73-40.55-61.77a317.45,317.45,0,0,0-39.69,39.54l61.86,40.61Z"/><path class="cls-4" d="M411,451.26a135,135,0,0,1,41.41-41l-89.58-66.73-40.55-61.77a317.45,317.45,0,0,0-39.69,39.54l61.86,40.61Z"/><path class="cls-4" d="M637.42,595a135.34,135.34,0,0,1-41.27,41.69L686.57,704l39.9,60.77a318.27,318.27,0,0,0,39.16-39.32L705,685.65Z"/><path class="cls-4" d="M637.42,595a135.34,135.34,0,0,1-41.27,41.69L686.57,704l39.9,60.77a318.27,318.27,0,0,0,39.16-39.32L705,685.65Z"/><path class="cls-4" d="M452.42,637.31a135.07,135.07,0,0,1-41.41-41l-66.55,89.33L282.6,726.26a317.45,317.45,0,0,0,39.69,39.54L362.84,704Z"/><path class="cls-4" d="M452.42,637.31a135.07,135.07,0,0,1-41.41-41l-66.55,89.33L282.6,726.26a317.45,317.45,0,0,0,39.69,39.54L362.84,704Z"/><path class="cls-4" d="M596.15,410.9a135.13,135.13,0,0,1,41.27,41.69L705,361.92l60.67-39.83a317.58,317.58,0,0,0-39.16-39.32l-39.9,60.77Z"/><path class="cls-4" d="M596.15,410.9a135.13,135.13,0,0,1,41.27,41.69L705,361.92l60.67-39.83a317.58,317.58,0,0,0-39.16-39.32l-39.9,60.77Z"/><path class="cls-4" d="M587.37,523.79a63.58,63.58,0,1,0-63.58,63.58A63.66,63.66,0,0,0,587.37,523.79Z"/><path class="cls-4" d="M587.37,523.79a63.58,63.58,0,1,0-63.58,63.58A63.66,63.66,0,0,0,587.37,523.79Z"/><path class="cls-4" d="M891.28,479a368.55,368.55,0,0,0-76-183.26,373.31,373.31,0,0,0-63.41-63.4,368.3,368.3,0,0,0-183.25-76,370,370,0,0,0-89.56,0,368.37,368.37,0,0,0-183.26,76,372.89,372.89,0,0,0-63.4,63.4,369.45,369.45,0,0,0,0,456.07,373.31,373.31,0,0,0,63.4,63.41,369.44,369.44,0,0,0,456.07,0,373.73,373.73,0,0,0,63.41-63.41,369.76,369.76,0,0,0,76-272.81ZM523.79,867.47c-189.51,0-343.68-154.18-343.68-343.68S334.28,180.11,523.79,180.11,867.47,334.28,867.47,523.79,713.29,867.47,523.79,867.47Z"/><path class="cls-4" d="M891.28,479a368.55,368.55,0,0,0-76-183.26,373.31,373.31,0,0,0-63.41-63.4,368.3,368.3,0,0,0-183.25-76,370,370,0,0,0-89.56,0,368.37,368.37,0,0,0-183.26,76,372.89,372.89,0,0,0-63.4,63.4,369.45,369.45,0,0,0,0,456.07,373.31,373.31,0,0,0,63.4,63.41,369.44,369.44,0,0,0,456.07,0,373.73,373.73,0,0,0,63.41-63.41,369.76,369.76,0,0,0,76-272.81ZM523.79,867.47c-189.51,0-343.68-154.18-343.68-343.68S334.28,180.11,523.79,180.11,867.47,334.28,867.47,523.79,713.29,867.47,523.79,867.47Z"/><path class="cls-3" d="M867.47,523.79c0-189.51-154.18-343.68-343.68-343.68S180.11,334.28,180.11,523.79,334.28,867.47,523.79,867.47,867.47,713.29,867.47,523.79Zm-28.61,0c0,9.34-.44,18.58-1.24,27.72l-71-14.72-112,16.36a133,133,0,0,0,0-58.72l112,16.36,71-14.72C838.42,505.2,838.86,514.45,838.86,523.79Zm-378.65,0a63.58,63.58,0,1,1,63.58,63.58A63.66,63.66,0,0,1,460.21,523.79Zm376.24-38.93-70.7,14.66-114.22-16.7a133.75,133.75,0,0,0-8.17-19.76l69.28-93,60-39.36A313.54,313.54,0,0,1,836.45,484.86ZM765.63,322.09,705,361.92l-67.54,90.67a135.13,135.13,0,0,0-41.27-41.69l90.42-67.36,39.9-60.77A317.58,317.58,0,0,1,765.63,322.09Zm-48.36-46.8-39.76,60.57-92.27,68.73a132.57,132.57,0,0,0-19.66-8.27L548.9,282.21l14.72-71A313.51,313.51,0,0,1,717.27,275.29ZM523.79,208.72q14.57,0,28.81,1.33l-14.9,71.83L554,393.09a133.13,133.13,0,0,0-58.44-.44l16.19-110.77-14.93-72C505.69,209.13,514.69,208.72,523.79,208.72Zm-38.93,2.4,14.74,71.09L483,396a131.94,131.94,0,0,0-20.08,8.31L371,335.86l-40.07-61A313.46,313.46,0,0,1,484.86,211.12ZM322.29,281.77l40.55,61.77,89.58,66.73a135,135,0,0,0-41.41,41l-66.55-89.34L282.6,321.31A317.45,317.45,0,0,1,322.29,281.77Zm-47,48.54,60.56,39.76,68.73,92.26A133.08,133.08,0,0,0,396,483L282.75,499.52l-71.61-14.85A313.55,313.55,0,0,1,275.3,330.31ZM208.72,523.79c0-9.47.44-18.84,1.27-28.1l72.81,15.1,110-16.09a133,133,0,0,0,0,58.17l-110-16.08L210,551.88C209.16,542.62,208.72,533.26,208.72,523.79Zm2.42,39.12,71.61-14.85L396,564.61a132.67,132.67,0,0,0,8.59,20.63L335.86,677.5,275.3,717.27A313.63,313.63,0,0,1,211.14,562.91ZM282.6,726.26l61.86-40.61L411,596.32a135.07,135.07,0,0,0,41.41,41L362.84,704,322.29,765.8A317.45,317.45,0,0,1,282.6,726.26Zm48.32,46.49,40.07-61,91.89-68.45A134,134,0,0,0,483,651.58L499.6,765.37l-14.74,71.08A313.54,313.54,0,0,1,330.92,772.75Zm192.87,66.11c-9.1,0-18.1-.41-27-1.17l14.93-72L495.52,654.93a133.54,133.54,0,0,0,58.44-.44L537.7,765.7l14.9,71.83C543.11,838.39,533.5,838.86,523.79,838.86Zm39.83-2.51-14.72-71,16.68-114.12A133.59,133.59,0,0,0,585.24,643l92.26,68.73,39.77,60.56A313.62,313.62,0,0,1,563.62,836.35Zm162.85-71.54L686.57,704l-90.42-67.36A135.34,135.34,0,0,0,637.42,595L705,685.65l60.68,39.84A318.27,318.27,0,0,1,726.47,764.81ZM712.63,677.5l-69.27-93a133.3,133.3,0,0,0,8.17-19.76l114.22-16.69,70.7,14.66a313.54,313.54,0,0,1-63.86,154.14Z"/><path class="cls-3" d="M867.47,523.79c0-189.51-154.18-343.68-343.68-343.68S180.11,334.28,180.11,523.79,334.28,867.47,523.79,867.47,867.47,713.29,867.47,523.79Zm-28.61,0c0,9.34-.44,18.58-1.24,27.72l-71-14.72-112,16.36a133,133,0,0,0,0-58.72l112,16.36,71-14.72C838.42,505.2,838.86,514.45,838.86,523.79Zm-378.65,0a63.58,63.58,0,1,1,63.58,63.58A63.66,63.66,0,0,1,460.21,523.79Zm376.24-38.93-70.7,14.66-114.22-16.7a133.75,133.75,0,0,0-8.17-19.76l69.28-93,60-39.36A313.54,313.54,0,0,1,836.45,484.86ZM765.63,322.09,705,361.92l-67.54,90.67a135.13,135.13,0,0,0-41.27-41.69l90.42-67.36,39.9-60.77A317.58,317.58,0,0,1,765.63,322.09Zm-48.36-46.8-39.76,60.57-92.27,68.73a132.57,132.57,0,0,0-19.66-8.27L548.9,282.21l14.72-71A313.51,313.51,0,0,1,717.27,275.29ZM523.79,208.72q14.57,0,28.81,1.33l-14.9,71.83L554,393.09a133.13,133.13,0,0,0-58.44-.44l16.19-110.77-14.93-72C505.69,209.13,514.69,208.72,523.79,208.72Zm-38.93,2.4,14.74,71.09L483,396a131.94,131.94,0,0,0-20.08,8.31L371,335.86l-40.07-61A313.46,313.46,0,0,1,484.86,211.12ZM322.29,281.77l40.55,61.77,89.58,66.73a135,135,0,0,0-41.41,41l-66.55-89.34L282.6,321.31A317.45,317.45,0,0,1,322.29,281.77Zm-47,48.54,60.56,39.76,68.73,92.26A133.08,133.08,0,0,0,396,483L282.75,499.52l-71.61-14.85A313.55,313.55,0,0,1,275.3,330.31ZM208.72,523.79c0-9.47.44-18.84,1.27-28.1l72.81,15.1,110-16.09a133,133,0,0,0,0,58.17l-110-16.08L210,551.88C209.16,542.62,208.72,533.26,208.72,523.79Zm2.42,39.12,71.61-14.85L396,564.61a132.67,132.67,0,0,0,8.59,20.63L335.86,677.5,275.3,717.27A313.63,313.63,0,0,1,211.14,562.91ZM282.6,726.26l61.86-40.61L411,596.32a135.07,135.07,0,0,0,41.41,41L362.84,704,322.29,765.8A317.45,317.45,0,0,1,282.6,726.26Zm48.32,46.49,40.07-61,91.89-68.45A134,134,0,0,0,483,651.58L499.6,765.37l-14.74,71.08A313.54,313.54,0,0,1,330.92,772.75Zm192.87,66.11c-9.1,0-18.1-.41-27-1.17l14.93-72L495.52,654.93a133.54,133.54,0,0,0,58.44-.44L537.7,765.7l14.9,71.83C543.11,838.39,533.5,838.86,523.79,838.86Zm39.83-2.51-14.72-71,16.68-114.12A133.59,133.59,0,0,0,585.24,643l92.26,68.73,39.77,60.56A313.62,313.62,0,0,1,563.62,836.35Zm162.85-71.54L686.57,704l-90.42-67.36A135.34,135.34,0,0,0,637.42,595L705,685.65l60.68,39.84A318.27,318.27,0,0,1,726.47,764.81ZM712.63,677.5l-69.27-93a133.3,133.3,0,0,0,8.17-19.76l114.22-16.69,70.7,14.66a313.54,313.54,0,0,1-63.86,154.14Z"/></g></svg>