<?xml version="1.0" encoding="UTF-8" standalone="no"?>
<!-- Created with Inkscape (http://www.inkscape.org/) -->

<svg
   version="1.1"
   id="svg9"
   xml:space="preserve"
   width="953.66669"
   height="439.48001"
   viewBox="0 0 953.66669 439.48001"
   sodipodi:docname="5889672.svg"
   inkscape:version="1.1.1 (3bf5ae0d25, 2021-09-20)"
   xmlns:inkscape="http://www.inkscape.org/namespaces/inkscape"
   xmlns:sodipodi="http://sodipodi.sourceforge.net/DTD/sodipodi-0.dtd"
   xmlns="http://www.w3.org/2000/svg"
   xmlns:svg="http://www.w3.org/2000/svg"><defs
     id="defs13" /><sodipodi:namedview
     id="namedview11"
     pagecolor="#ffffff"
     bordercolor="#666666"
     borderopacity="1.0"
     inkscape:pageshadow="2"
     inkscape:pageopacity="0.0"
     inkscape:pagecheckerboard="0"
     showgrid="false"
     inkscape:zoom="1.1308819"
     inkscape:cx="484.13542"
     inkscape:cy="159.60994"
     inkscape:window-width="1366"
     inkscape:window-height="705"
     inkscape:window-x="-8"
     inkscape:window-y="-8"
     inkscape:window-maximized="1"
     inkscape:current-layer="g15" /><g
     id="g15"
     inkscape:groupmode="layer"
     inkscape:label="ink_ext_XXXXXX"
     transform="matrix(1.3333333,0,0,-1.3333333,0,439.48)"><path
       d="m 644.898,238.358 c 0,0 -42.713,77.053 -181.744,89.616 -139.03,12.563 -167.506,-51.089 -191.794,-63.653 -9.108,-4.71 -23.281,-4.122 -41.944,-3.533 -31.104,0.982 -74.682,1.963 -128.075,-21.593 C 15.9133,201.507 46.9016,147.067 41.0387,126.967 35.1766,106.866 9.2125,89.2781 8.37539,74.202 7.53789,59.127 15.9133,32.3262 15.9133,32.3262 H 706.038 c 0,0 17.588,54.4386 -7.538,85.4278 -25.125,30.988 -41.876,30.988 -43.551,49.414 -1.675,18.426 2.513,46.902 -10.051,71.19"
       style="fill:#29bb89;fill-opacity:1;fill-rule:nonzero;stroke:none;stroke-width:0.1"
       id="path19" /><path
       d="M 706.038,32.3262 H 15.9133 c 0,0 -7.59299,24.2968 -7.59689,39.6347 -3.9e-4,0.7711 0.01875,1.52 0.05898,2.2411 0.83711,15.0761 26.80121,32.664 32.66331,52.765 0.5898,2.022 0.8066,4.391 0.8066,7.055 0,7.412 -1.6777,17.11 -1.6765,27.975 0.0019,24.061 8.2386,53.846 61.1722,77.198 42.717,18.846 79.146,21.986 107.937,21.986 7.196,0 13.919,-0.196 20.138,-0.393 6.222,-0.196 11.943,-0.392 17.146,-0.392 10.403,0 18.726,0.785 24.798,3.925 22.127,11.446 47.712,65.286 157.212,65.286 10.696,0 22.21,-0.515 34.582,-1.633 139.031,-12.563 181.744,-89.616 181.744,-89.616 12.564,-24.288 8.376,-52.764 10.051,-71.19 1.675,-18.426 18.426,-18.426 43.551,-49.414 10.465,-12.907 13.521,-29.8821 13.523,-45.297 0.003,-21.5961 -5.985,-40.1308 -5.985,-40.1308"
       style="fill:#9bd1e8;fill-opacity:1;fill-rule:nonzero;stroke:none;stroke-width:0.1"
       id="path21" /><path
       d="m 285.543,259.288 c 1.103,1.13 2.464,1.944 3.938,2.549 0.742,0.29 1.524,0.512 2.339,0.624 0.406,0.066 0.816,0.099 1.244,0.092 l 0.712,-0.081 c 0.236,-0.03 0.439,-0.138 0.656,-0.207 0.842,-0.327 1.518,-0.864 2.075,-1.445 0.575,-0.572 1.049,-1.2 1.531,-1.804 0.952,-1.223 1.871,-2.414 2.805,-3.677 l -0.863,-0.132 c 0.294,1.771 1.062,3.392 2.263,4.719 1.177,1.33 2.682,2.379 4.321,3.029 1.644,0.677 3.399,0.85 5.097,0.893 0.851,-0.023 1.698,-0.108 2.53,-0.208 0.827,-0.17 1.645,-0.363 2.444,-0.589 l -0.022,-0.199 c -0.831,-0.117 -1.644,-0.199 -2.448,-0.26 l -2.37,-0.347 c -0.386,-0.084 -0.767,-0.181 -1.15,-0.252 -0.385,-0.063 -0.762,-0.152 -1.124,-0.284 -0.367,-0.116 -0.738,-0.211 -1.105,-0.316 -0.351,-0.142 -0.696,-0.298 -1.052,-0.424 -1.381,-0.579 -2.702,-1.299 -3.801,-2.323 -1.066,-1.015 -2.096,-2.247 -2.67,-3.635 l -0.44,-1.067 -0.423,0.935 c -0.607,1.342 -1.46,2.624 -2.525,3.657 -1.057,1.03 -2.419,1.802 -3.605,2.103 -0.302,0.082 -0.579,0.097 -0.855,0.125 -0.328,-0.019 -0.677,-0.007 -1.02,-0.046 -0.687,-0.069 -1.39,-0.174 -2.091,-0.338 -1.409,-0.315 -2.821,-0.778 -4.281,-1.259 l -0.11,0.167"
       style="fill:#172d2d;fill-opacity:1;fill-rule:nonzero;stroke:none;stroke-width:0.1"
       id="path23" /><path
       d="m 255.555,233.06 c 0.528,0.769 1.268,1.294 2.093,1.697 0.417,0.195 0.869,0.331 1.345,0.412 0.239,0.04 0.479,0.061 0.737,0.06 0.312,-0.019 0.616,-0.076 0.871,-0.195 1.041,-0.482 1.484,-1.357 1.983,-2.056 0.499,-0.717 1.027,-1.348 1.612,-2.028 l -0.863,-0.132 c 0.099,1.061 0.464,2.042 1.156,2.843 0.667,0.8 1.535,1.458 2.498,1.83 0.963,0.398 1.99,0.439 2.96,0.404 0.484,-0.042 0.964,-0.132 1.429,-0.238 0.462,-0.142 0.914,-0.307 1.347,-0.516 l -0.022,-0.199 c -0.466,-0.148 -0.913,-0.253 -1.35,-0.333 -0.434,-0.122 -0.858,-0.223 -1.271,-0.316 -0.812,-0.249 -1.594,-0.465 -2.291,-0.791 -0.703,-0.305 -1.393,-0.622 -1.98,-1.12 -0.557,-0.489 -1.184,-1.081 -1.563,-1.761 l -0.558,-1.003 -0.305,0.871 c -0.265,0.756 -0.713,1.488 -1.326,2.015 -0.611,0.524 -1.446,0.827 -1.992,0.893 -0.138,0.032 -0.249,0.017 -0.354,0.033 -0.158,-0.008 -0.336,0.001 -0.511,-0.016 -0.352,-0.019 -0.718,-0.064 -1.097,-0.119 -0.763,-0.103 -1.552,-0.283 -2.437,-0.402 l -0.111,0.167"
       style="fill:#172d2d;fill-opacity:1;fill-rule:nonzero;stroke:none;stroke-width:0.1"
       id="path25" /><path
       d="m 312.731,233.06 c 0.528,0.769 1.268,1.294 2.093,1.697 0.416,0.195 0.869,0.331 1.345,0.412 0.239,0.04 0.479,0.061 0.737,0.06 0.311,-0.019 0.616,-0.076 0.871,-0.195 1.041,-0.482 1.483,-1.357 1.982,-2.056 0.5,-0.717 1.028,-1.348 1.613,-2.028 l -0.863,-0.132 c 0.099,1.061 0.463,2.042 1.156,2.843 0.667,0.8 1.534,1.458 2.497,1.83 0.964,0.398 1.99,0.439 2.96,0.404 0.485,-0.042 0.965,-0.132 1.43,-0.238 0.461,-0.142 0.914,-0.307 1.347,-0.516 l -0.022,-0.199 c -0.467,-0.148 -0.913,-0.253 -1.35,-0.333 -0.435,-0.122 -0.858,-0.223 -1.271,-0.316 -0.813,-0.249 -1.594,-0.465 -2.292,-0.791 -0.702,-0.305 -1.392,-0.622 -1.979,-1.12 -0.558,-0.489 -1.184,-1.081 -1.563,-1.761 l -0.559,-1.003 -0.305,0.871 c -0.264,0.756 -0.712,1.488 -1.325,2.015 -0.612,0.524 -1.446,0.827 -1.992,0.893 -0.139,0.032 -0.249,0.017 -0.355,0.033 -0.158,-0.008 -0.336,0.001 -0.51,-0.016 -0.352,-0.019 -0.718,-0.064 -1.097,-0.119 -0.764,-0.103 -1.552,-0.283 -2.437,-0.402 l -0.111,0.167"
       style="fill:#172d2d;fill-opacity:1;fill-rule:nonzero;stroke:none;stroke-width:0.1"
       id="path27" /><path
       d="m 575.423,280.6 0.488,0.109 c -1.245,5.584 -4.854,10.48 -9.553,13.986 -4.7,3.505 -10.5,5.629 -16.187,5.63 -1.027,0 -2.05,-0.069 -3.062,-0.213 v 0 c -3.046,-0.433 -6.036,-1.576 -8.363,-3.715 v 0 c -1.613,-1.477 -2.245,-3.107 -2.639,-4.724 -0.396,-1.622 -0.59,-3.242 -1.311,-4.897 h -0.001 c -0.367,-0.854 -1.089,-1.574 -1.896,-1.703 -0.206,-0.035 -0.408,-0.052 -0.609,-0.052 -1.164,-0.005 -2.323,0.567 -3.564,1.202 -1.238,0.626 -2.558,1.311 -4.096,1.327 h -0.047 c -1.21,-0.002 -2.54,-0.329 -3.751,-0.909 -1.208,-0.581 -2.301,-1.415 -2.993,-2.483 v 0 c -0.675,-1.066 -0.741,-2.362 -0.948,-3.488 -0.099,-0.565 -0.225,-1.084 -0.429,-1.506 -0.207,-0.424 -0.474,-0.75 -0.902,-0.996 -0.424,-0.241 -0.858,-0.332 -1.341,-0.333 -0.694,-0.002 -1.478,0.204 -2.305,0.429 -0.828,0.221 -1.699,0.461 -2.606,0.463 -0.465,0 -0.941,-0.066 -1.409,-0.237 -0.849,-0.308 -1.439,-0.715 -1.833,-1.196 -0.594,-0.727 -0.696,-1.544 -0.78,-2.217 -0.08,-0.688 -0.155,-1.228 -0.473,-1.617 -0.226,-0.28 -0.489,-0.453 -0.84,-0.573 -0.349,-0.118 -0.79,-0.171 -1.313,-0.171 -1.048,-0.002 -2.41,0.211 -4.004,0.357 -0.132,0.011 -0.263,0.017 -0.393,0.017 -1.696,-0.007 -3.129,-0.954 -4.146,-1.854 -1.019,-0.906 -1.634,-1.796 -1.649,-1.816 l -0.543,-0.785 h 100.691 l 0.146,0.243 c 0.051,0.083 0.158,0.325 0.157,0.776 -0.006,0.981 -0.46,2.953 -3.033,6.919 -0.811,1.249 -1.711,2.087 -2.655,2.604 -0.943,0.518 -1.921,0.709 -2.857,0.709 -1.311,-0.002 -2.546,-0.363 -3.608,-0.707 -1.055,-0.35 -1.969,-0.668 -2.477,-0.659 -0.478,0.002 -0.84,0.13 -1.144,0.323 -0.453,0.289 -0.773,0.755 -0.97,1.159 -0.098,0.2 -0.166,0.383 -0.208,0.513 l -0.045,0.15 -0.009,0.037 -0.002,0.006 v 10e-4 l -0.488,-0.109 -0.488,-0.109 c 0.01,-0.037 0.162,-0.73 0.647,-1.46 0.243,-0.364 0.574,-0.74 1.023,-1.029 0.448,-0.289 1.017,-0.483 1.684,-0.482 0.83,0.01 1.741,0.374 2.786,0.707 1.037,0.339 2.176,0.66 3.299,0.659 0.804,-0.001 1.596,-0.159 2.376,-0.586 0.779,-0.428 1.557,-1.133 2.298,-2.272 2.526,-3.88 2.877,-5.726 2.871,-6.374 0,-0.15 -0.017,-0.237 -0.027,-0.275 l -0.007,-0.024 0.264,-0.109 -0.245,0.146 -0.019,-0.037 0.264,-0.109 -0.245,0.146 0.429,-0.257 v 0.5 h -99.454 v -0.5 l 0.411,-0.285 0.022,0.031 c 0.122,0.17 0.74,0.996 1.646,1.762 0.907,0.77 2.089,1.453 3.305,1.447 0.1,0 0.201,-0.004 0.302,-0.013 1.559,-0.141 2.921,-0.359 4.095,-0.361 0.587,10e-4 1.131,0.055 1.633,0.223 0.499,0.167 0.954,0.46 1.301,0.897 0.361,0.451 0.508,0.96 0.59,1.43 0.119,0.711 0.131,1.368 0.356,1.893 0.227,0.519 0.608,0.984 1.7,1.391 0.343,0.125 0.696,0.177 1.068,0.177 0.724,0.001 1.52,-0.205 2.346,-0.429 0.826,-0.221 1.682,-0.461 2.565,-0.463 0.612,-10e-4 1.243,0.124 1.837,0.464 0.621,0.353 1.039,0.87 1.307,1.431 0.403,0.843 0.516,1.782 0.656,2.655 0.134,0.875 0.296,1.676 0.66,2.231 v 0 c 0.553,0.859 1.503,1.605 2.586,2.124 1.081,0.52 2.29,0.811 3.318,0.81 h 0.04 c 1.226,-0.005 2.411,-0.584 3.65,-1.218 1.237,-0.624 2.526,-1.305 4.017,-1.311 0.255,0 0.515,0.021 0.778,0.066 1.266,0.227 2.176,1.218 2.645,2.291 v 0 c 0.787,1.816 0.985,3.521 1.365,5.057 0.384,1.541 0.912,2.902 2.345,4.226 v 0 c 2.138,1.968 4.929,3.049 7.826,3.461 0.964,0.137 1.94,0.203 2.922,0.203 5.436,0.002 11.051,-2.044 15.59,-5.432 4.541,-3.386 7.996,-8.102 9.174,-13.402 v 0 l 0.488,0.109"
       style="fill:#172d2d;fill-opacity:1;fill-rule:nonzero;stroke:none;stroke-width:0.1"
       id="path29" /><path
       d="m 618.325,209.831 0.488,0.109 c -0.669,3.001 -2.602,5.617 -5.108,7.487 -2.508,1.869 -5.599,3.004 -8.647,3.006 -0.55,0 -1.099,-0.038 -1.642,-0.115 -1.636,-0.232 -3.254,-0.847 -4.521,-2.012 -0.89,-0.813 -1.247,-1.733 -1.456,-2.6 -0.212,-0.873 -0.314,-1.704 -0.677,-2.535 -0.169,-0.398 -0.504,-0.711 -0.819,-0.756 -0.095,-0.016 -0.187,-0.023 -0.28,-0.023 -0.533,-0.005 -1.112,0.269 -1.764,0.606 -0.651,0.326 -1.376,0.711 -2.258,0.722 h -0.026 c -0.68,-0.001 -1.407,-0.182 -2.074,-0.5 -0.664,-0.321 -1.272,-0.78 -1.669,-1.391 v 0.001 c -0.399,-0.638 -0.423,-1.346 -0.533,-1.921 -0.05,-0.288 -0.113,-0.541 -0.205,-0.729 -0.094,-0.19 -0.199,-0.316 -0.378,-0.42 -0.182,-0.103 -0.363,-0.143 -0.587,-0.144 -0.32,-0.002 -0.715,0.098 -1.149,0.217 -0.436,0.116 -0.911,0.25 -1.431,0.251 -0.267,0.001 -0.546,-0.038 -0.822,-0.138 -0.474,-0.172 -0.826,-0.409 -1.065,-0.701 -0.362,-0.443 -0.417,-0.933 -0.462,-1.286 -0.041,-0.369 -0.085,-0.597 -0.198,-0.731 -0.091,-0.11 -0.183,-0.172 -0.332,-0.224 -0.148,-0.051 -0.355,-0.078 -0.614,-0.078 -0.521,-10e-4 -1.236,0.109 -2.082,0.187 l -0.228,0.01 c -0.987,-0.007 -1.78,-0.544 -2.336,-1.034 -0.558,-0.496 -0.889,-0.976 -0.904,-0.997 l -0.543,-0.784 h 53.49 l 0.146,0.243 c 0.051,0.083 0.117,0.257 0.116,0.53 -0.006,0.594 -0.269,1.661 -1.631,3.764 -0.443,0.682 -0.945,1.154 -1.48,1.447 -0.535,0.294 -1.092,0.402 -1.615,0.401 -0.734,-0.001 -1.405,-0.201 -1.97,-0.383 -0.557,-0.187 -1.038,-0.344 -1.228,-0.334 -0.206,0.001 -0.347,0.053 -0.472,0.132 -0.186,0.117 -0.334,0.324 -0.425,0.513 -0.046,0.094 -0.078,0.18 -0.097,0.239 l -0.02,0.068 -0.004,0.015 -10e-4,0.003 v 0.002 l -10e-4,0.004 -0.002,0.008 -0.019,0.057 -0.465,-0.186 0.488,0.109 -0.488,-0.109 -0.464,-0.185 0.464,0.185 -0.481,-0.134 0.017,-0.051 0.464,0.185 -0.481,-0.134 0.47,0.131 -0.474,-0.115 0.004,-0.016 0.47,0.131 -0.474,-0.115 c 0.009,-0.035 0.099,-0.433 0.38,-0.85 0.142,-0.21 0.337,-0.43 0.606,-0.601 0.268,-0.172 0.614,-0.287 1.005,-0.286 0.513,0.01 0.991,0.212 1.538,0.383 0.539,0.177 1.114,0.336 1.66,0.334 0.391,0 0.763,-0.075 1.134,-0.278 0.37,-0.203 0.749,-0.542 1.122,-1.115 1.316,-2.017 1.476,-2.957 1.47,-3.219 l -0.006,-0.085 0.261,-0.068 -0.229,0.137 -0.032,-0.069 0.261,-0.068 -0.229,0.137 0.429,-0.257 v 0.5 h -52.253 v -0.5 l 0.411,-0.285 0.009,0.013 c 0.057,0.079 0.372,0.5 0.826,0.883 0.454,0.387 1.033,0.709 1.583,0.704 l 0.138,-0.006 c 0.81,-0.073 1.525,-0.189 2.172,-0.191 0.323,0.001 0.634,0.03 0.933,0.13 0.298,0.099 0.582,0.281 0.793,0.547 0.226,0.282 0.313,0.595 0.359,0.859 0.065,0.402 0.075,0.726 0.173,0.945 0.097,0.211 0.223,0.395 0.755,0.599 0.15,0.055 0.306,0.078 0.48,0.078 0.337,0.002 0.737,-0.098 1.17,-0.217 0.435,-0.115 0.901,-0.249 1.41,-0.251 0.352,-0.001 0.731,0.073 1.083,0.275 0.373,0.211 0.628,0.528 0.783,0.855 0.234,0.493 0.291,1.006 0.365,1.461 0.068,0.457 0.156,0.846 0.312,1.08 v 0 c 0.257,0.402 0.722,0.774 1.262,1.031 0.537,0.259 1.144,0.403 1.641,0.402 h 0.018 c 0.571,0 1.161,-0.279 1.813,-0.614 0.648,-0.325 1.356,-0.709 2.217,-0.714 0.147,0 0.297,0.012 0.449,0.038 0.775,0.141 1.298,0.728 1.568,1.343 0.428,0.992 0.534,1.908 0.73,2.694 0.199,0.792 0.452,1.444 1.162,2.103 1.079,0.993 2.498,1.547 3.985,1.758 0.494,0.07 0.996,0.105 1.501,0.105 2.796,0.001 5.702,-1.056 8.049,-2.807 2.349,-1.751 4.127,-4.186 4.73,-6.903 l 0.009,-0.04 0.015,-0.037 0.464,0.185"
       style="fill:#172d2d;fill-opacity:1;fill-rule:nonzero;stroke:none;stroke-width:0.1"
       id="path31" /><path
       d="m 224.634,199.268 0.483,0.128 c -2.233,8.376 -8.699,15.707 -17.108,20.954 -8.413,5.247 -18.787,8.419 -28.922,8.42 -1.83,0 -3.653,-0.103 -5.455,-0.318 -5.423,-0.645 -10.723,-2.341 -14.848,-5.513 -2.839,-2.176 -3.96,-4.578 -4.668,-7.005 -0.712,-2.433 -1.062,-4.889 -2.378,-7.419 -0.69,-1.331 -2.047,-2.511 -3.724,-2.748 -0.398,-0.057 -0.791,-0.084 -1.18,-0.084 -2.257,-0.003 -4.404,0.902 -6.64,1.856 -2.233,0.947 -4.556,1.94 -7.179,1.958 h -0.083 c -2.095,-0.001 -4.436,-0.48 -6.561,-1.332 -2.123,-0.855 -4.033,-2.077 -5.239,-3.632 -1.167,-1.531 -1.304,-3.479 -1.674,-5.188 -0.179,-0.857 -0.408,-1.654 -0.793,-2.322 -0.388,-0.668 -0.918,-1.216 -1.775,-1.628 -0.837,-0.4 -1.716,-0.552 -2.651,-0.552 -1.342,-10e-4 -2.789,0.323 -4.281,0.66 -1.492,0.335 -3.028,0.683 -4.576,0.684 -0.794,10e-4 -1.592,-0.093 -2.379,-0.332 -1.475,-0.449 -2.462,-1.024 -3.1276,-1.703 -1.0059,-1.023 -1.1992,-2.22 -1.3465,-3.234 -0.0742,-0.512 -0.1406,-0.989 -0.2711,-1.413 -0.1308,-0.424 -0.316,-0.792 -0.6406,-1.133 l -0.0145,-0.015 0.0141,0.015 c -0.4473,-0.467 -1.0016,-0.773 -1.7047,-0.973 -0.7012,-0.198 -1.5469,-0.279 -2.5219,-0.278 -1.9504,-0.001 -4.4058,0.321 -7.2636,0.539 -0.2235,0.017 -0.4453,0.025 -0.6653,0.025 -2.864,-0.004 -5.3769,-1.369 -7.1781,-2.705 -1.8019,-1.34 -2.9023,-2.669 -2.9191,-2.688 l -0.6778,-0.819 H 255.391 l 0.15,0.208 c 0.062,0.085 0.25,0.417 0.248,1.075 -0.009,1.429 -0.805,4.373 -5.43,10.333 -2.88,3.724 -6.334,4.858 -9.58,4.847 -2.274,-0.001 -4.457,-0.53 -6.361,-1.047 -1.899,-0.521 -3.544,-1.02 -4.615,-1.013 -1.901,0.006 -3.025,0.868 -3.743,1.755 -0.354,0.444 -0.594,0.893 -0.742,1.229 -0.074,0.167 -0.126,0.306 -0.158,0.401 l -0.035,0.106 -0.011,0.038 -0.48,-0.137 0.483,0.128 -0.483,-0.128 -0.481,-0.138 0.153,0.044 -0.154,-0.042 0.001,-0.002 0.153,0.044 -0.154,-0.042 c 0.03,-0.101 0.32,-1.132 1.167,-2.174 0.838,-1.041 2.289,-2.088 4.484,-2.082 1.342,0.007 2.989,0.538 4.877,1.048 1.882,0.512 3.981,1.013 6.099,1.012 3.027,-0.011 6.071,-0.979 8.791,-4.461 4.572,-5.873 5.229,-8.69 5.219,-9.719 0,-0.239 -0.032,-0.383 -0.055,-0.456 l -0.023,-0.061 0.041,-0.021 -0.039,0.024 -0.002,-0.003 0.041,-0.021 -0.039,0.024 0.295,-0.178 -0.28,0.2 -0.015,-0.022 0.295,-0.178 -0.28,0.2 0.406,-0.291 v 0.5 H 75.7492 v -0.5 l 0.3852,-0.319 0.0433,0.051 c 0.2289,0.266 1.3567,1.529 3.0289,2.71 1.6727,1.184 3.8797,2.273 6.2547,2.27 0.1953,0 0.3918,-0.007 0.5895,-0.022 2.8277,-0.215 5.2836,-0.541 7.3394,-0.542 1.0286,0 1.9602,0.082 2.7934,0.316 0.8316,0.233 1.5695,0.629 2.1559,1.244 v -0.001 c 0.6031,0.629 0.864,1.363 1.0089,2.061 0.2133,1.054 0.2297,2.055 0.6576,2.896 0.213,0.423 0.519,0.82 1.03,1.203 0.511,0.382 1.232,0.746 2.258,1.058 0.676,0.206 1.372,0.289 2.088,0.289 1.395,0.002 2.866,-0.323 4.356,-0.66 1.491,-0.335 3.001,-0.683 4.501,-0.684 1.042,-10e-4 2.085,0.173 3.082,0.649 1.036,0.492 1.742,1.216 2.21,2.032 0.703,1.227 0.912,2.634 1.163,3.953 0.246,1.324 0.531,2.546 1.23,3.444 1.038,1.35 2.811,2.512 4.82,3.316 2.007,0.807 4.246,1.261 6.188,1.26 h 0.077 c 2.365,-0.012 4.56,-0.926 6.794,-1.878 2.232,-0.946 4.503,-1.933 7.031,-1.936 0.434,0 0.875,0.03 1.323,0.094 2.062,0.301 3.648,1.702 4.468,3.277 1.403,2.706 1.761,5.266 2.45,7.597 0.694,2.337 1.667,4.446 4.319,6.496 3.928,3.024 9.059,4.684 14.356,5.312 1.761,0.21 3.544,0.311 5.337,0.311 9.926,0.002 20.14,-3.118 28.393,-8.268 8.256,-5.149 14.533,-12.319 16.67,-20.363 l 0.001,-0.004 0.002,-0.005 0.481,0.138"
       style="fill:#172d2d;fill-opacity:1;fill-rule:nonzero;stroke:none;stroke-width:0.1"
       id="path33" /><path
       d="M 271.53,64.9461 H 226.01 V 77.143 h 45.52 V 64.9461"
       style="fill:#ffffff;fill-opacity:1;fill-rule:nonzero;stroke:none;stroke-width:0.1"
       id="path35" /><path
       d="m 271.53,64.9461 v 0.5 H 226.51 V 76.643 h 44.52 V 64.9461 h 0.5 v 0.5 -0.5 h 0.5 V 77.643 H 225.51 V 64.4461 h 46.52 v 0.5 h -0.5"
       style="fill:#172d2d;fill-opacity:1;fill-rule:nonzero;stroke:none;stroke-width:0.1"
       id="path37" /><path
       d="M 271.53,64.9461 H 240.286 V 77.143 H 271.53 V 64.9461"
       style="fill:#ffffff;fill-opacity:1;fill-rule:nonzero;stroke:none;stroke-width:0.1"
       id="path39" /><path
       d="m 271.53,64.9461 v 0.5 H 240.786 V 76.643 H 271.03 V 64.9461 h 0.5 v 0.5 -0.5 h 0.5 V 77.643 H 239.786 V 64.4461 h 32.244 v 0.5 h -0.5"
       style="fill:#172d2d;fill-opacity:1;fill-rule:nonzero;stroke:none;stroke-width:0.1"
       id="path41" /><path
       d="m 271.53,76.8461 h -45.52 v 12.1988 h 45.52 V 76.8461"
       style="fill:#ffffff;fill-opacity:1;fill-rule:nonzero;stroke:none;stroke-width:0.1"
       id="path43" /><path
       d="m 271.53,76.8461 v 0.5 h -45.02 v 11.1988 h 44.52 V 76.8461 h 0.5 v 0.5 -0.5 h 0.5 v 12.6988 h -46.52 v -13.198 h 46.52 v 0.4992 h -0.5"
       style="fill:#172d2d;fill-opacity:1;fill-rule:nonzero;stroke:none;stroke-width:0.1"
       id="path45" /><path
       d="M 271.53,76.8461 H 240.286 V 89.0449 H 271.53 V 76.8461"
       style="fill:#ffffff;fill-opacity:1;fill-rule:nonzero;stroke:none;stroke-width:0.1"
       id="path47" /><path
       d="m 271.53,76.8461 v 0.5 H 240.786 V 88.5449 H 271.03 V 76.8461 h 0.5 v 0.5 -0.5 h 0.5 v 12.6988 h -32.244 v -13.198 h 32.244 v 0.4992 h -0.5"
       style="fill:#172d2d;fill-opacity:1;fill-rule:nonzero;stroke:none;stroke-width:0.1"
       id="path49" /><path
       d="m 271.53,88.7469 h -45.52 v 12.1981 h 45.52 V 88.7469"
       style="fill:#ffffff;fill-opacity:1;fill-rule:nonzero;stroke:none;stroke-width:0.1"
       id="path51" /><path
       d="m 271.53,88.7469 v 0.5 h -45.02 v 11.1981 h 44.52 V 88.7469 h 0.5 v 0.5 -0.5 h 0.5 V 101.445 H 225.51 V 88.2469 h 46.52 v 0.5 h -0.5"
       style="fill:#172d2d;fill-opacity:1;fill-rule:nonzero;stroke:none;stroke-width:0.1"
       id="path53" /><path
       d="M 271.53,88.7469 H 240.286 V 100.945 H 271.53 V 88.7469"
       style="fill:#ffffff;fill-opacity:1;fill-rule:nonzero;stroke:none;stroke-width:0.1"
       id="path55" /><path
       d="m 271.53,88.7469 v 0.5 H 240.786 V 100.445 H 271.03 V 88.7469 h 0.5 v 0.5 -0.5 h 0.5 V 101.445 H 239.786 V 88.2469 h 32.244 v 0.5 h -0.5"
       style="fill:#172d2d;fill-opacity:1;fill-rule:nonzero;stroke:none;stroke-width:0.1"
       id="path57" /><path
       d="m 288.488,64.9461 h -45.52 V 77.143 h 45.52 V 64.9461"
       style="fill:#ffffff;fill-opacity:1;fill-rule:nonzero;stroke:none;stroke-width:0.1"
       id="path59" /><path
       d="m 288.488,64.9461 v 0.5 h -45.02 V 76.643 h 44.52 V 64.9461 h 0.5 v 0.5 -0.5 h 0.5 V 77.643 h -46.52 V 64.4461 h 46.52 v 0.5 h -0.5"
       style="fill:#172d2d;fill-opacity:1;fill-rule:nonzero;stroke:none;stroke-width:0.1"
       id="path61" /><path
       d="M 288.488,64.9461 H 257.244 V 77.143 h 31.244 V 64.9461"
       style="fill:#ffffff;fill-opacity:1;fill-rule:nonzero;stroke:none;stroke-width:0.1"
       id="path63" /><path
       d="m 288.488,64.9461 v 0.5 H 257.744 V 76.643 h 30.244 V 64.9461 h 0.5 v 0.5 -0.5 h 0.5 V 77.643 H 256.744 V 64.4461 h 32.244 v 0.5 h -0.5"
       style="fill:#172d2d;fill-opacity:1;fill-rule:nonzero;stroke:none;stroke-width:0.1"
       id="path65" /><path
       d="m 288.488,76.8461 h -45.52 v 12.1988 h 45.52 V 76.8461"
       style="fill:#ffffff;fill-opacity:1;fill-rule:nonzero;stroke:none;stroke-width:0.1"
       id="path67" /><path
       d="m 288.488,76.8461 v 0.5 h -45.02 v 11.1988 h 44.52 V 76.8461 h 0.5 v 0.5 -0.5 h 0.5 v 12.6988 h -46.52 v -13.198 h 46.52 v 0.4992 h -0.5"
       style="fill:#172d2d;fill-opacity:1;fill-rule:nonzero;stroke:none;stroke-width:0.1"
       id="path69" /><path
       d="m 288.488,76.8461 h -31.244 v 12.1988 h 31.244 V 76.8461"
       style="fill:#ffffff;fill-opacity:1;fill-rule:nonzero;stroke:none;stroke-width:0.1"
       id="path71" /><path
       d="m 288.488,76.8461 v 0.5 h -30.744 v 11.1988 h 30.244 V 76.8461 h 0.5 v 0.5 -0.5 h 0.5 v 12.6988 h -32.244 v -13.198 h 32.244 v 0.4992 h -0.5"
       style="fill:#172d2d;fill-opacity:1;fill-rule:nonzero;stroke:none;stroke-width:0.1"
       id="path73" /><path
       d="m 288.488,88.7469 h -45.52 v 12.1981 h 45.52 V 88.7469"
       style="fill:#ffffff;fill-opacity:1;fill-rule:nonzero;stroke:none;stroke-width:0.1"
       id="path75" /><path
       d="m 288.488,88.7469 v 0.5 h -45.02 v 11.1981 h 44.52 V 88.7469 h 0.5 v 0.5 -0.5 h 0.5 v 12.6981 h -46.52 V 88.2469 h 46.52 v 0.5 h -0.5"
       style="fill:#172d2d;fill-opacity:1;fill-rule:nonzero;stroke:none;stroke-width:0.1"
       id="path77" /><path
       d="m 288.488,88.7469 h -31.244 v 12.1981 h 31.244 V 88.7469"
       style="fill:#ffffff;fill-opacity:1;fill-rule:nonzero;stroke:none;stroke-width:0.1"
       id="path79" /><path
       d="m 288.488,88.7469 v 0.5 h -30.744 v 11.1981 h 30.244 V 88.7469 h 0.5 v 0.5 -0.5 h 0.5 V 101.445 H 256.744 V 88.2469 h 32.244 v 0.5 h -0.5"
       style="fill:#172d2d;fill-opacity:1;fill-rule:nonzero;stroke:none;stroke-width:0.1"
       id="path81" /><path
       d="m 305.447,64.9461 h -45.52 V 77.143 h 45.52 V 64.9461"
       style="fill:#7d8082;fill-opacity:1;fill-rule:nonzero;stroke:none;stroke-width:0.1"
       id="path83" /><path
       d="m 305.447,64.9461 v 0.5 h -45.02 V 76.643 h 44.519 l 10e-4,-11.6969 h 0.5 v 0.5 -0.5 h 0.499 V 77.643 H 259.427 V 64.4461 h 46.519 v 0.5 h -0.499"
       style="fill:#172d2d;fill-opacity:1;fill-rule:nonzero;stroke:none;stroke-width:0.1"
       id="path85" /><path
       d="M 305.447,64.9461 H 274.203 V 77.143 h 31.244 V 64.9461"
       style="fill:#7d8082;fill-opacity:1;fill-rule:nonzero;stroke:none;stroke-width:0.1"
       id="path87" /><path
       d="m 305.447,64.9461 v 0.5 H 274.703 V 76.643 h 30.243 l 10e-4,-11.6969 h 0.5 v 0.5 -0.5 h 0.499 V 77.643 H 273.703 V 64.4461 h 32.243 v 0.5 h -0.499"
       style="fill:#172d2d;fill-opacity:1;fill-rule:nonzero;stroke:none;stroke-width:0.1"
       id="path89" /><path
       d="m 305.447,76.8461 h -45.52 v 12.1988 h 45.52 V 76.8461"
       style="fill:#ffffff;fill-opacity:1;fill-rule:nonzero;stroke:none;stroke-width:0.1"
       id="path91" /><path
       d="m 305.447,76.8461 v 0.5 h -45.02 v 11.1988 h 44.519 l 10e-4,-11.6988 h 0.5 v 0.5 -0.5 h 0.499 v 12.6988 h -46.519 v -13.198 h 46.519 v 0.4992 h -0.499"
       style="fill:#172d2d;fill-opacity:1;fill-rule:nonzero;stroke:none;stroke-width:0.1"
       id="path93" /><path
       d="m 305.447,76.8461 h -31.244 v 12.1988 h 31.244 V 76.8461"
       style="fill:#ffffff;fill-opacity:1;fill-rule:nonzero;stroke:none;stroke-width:0.1"
       id="path95" /><path
       d="m 305.447,76.8461 v 0.5 h -30.744 v 11.1988 h 30.243 l 10e-4,-11.6988 h 0.5 v 0.5 -0.5 h 0.499 v 12.6988 h -32.243 v -13.198 h 32.243 v 0.4992 h -0.499"
       style="fill:#172d2d;fill-opacity:1;fill-rule:nonzero;stroke:none;stroke-width:0.1"
       id="path97" /><path
       d="m 305.447,88.7469 h -45.52 v 12.1981 h 45.52 V 88.7469"
       style="fill:#29bb89;fill-opacity:1;fill-rule:nonzero;stroke:none;stroke-width:0.1"
       id="path99" /><path
       d="m 305.447,88.7469 v 0.5 h -45.02 v 11.1981 h 44.519 l 10e-4,-11.6981 h 0.5 v 0.5 -0.5 h 0.499 V 101.445 H 259.427 V 88.2469 h 46.519 v 0.5 h -0.499"
       style="fill:#172d2d;fill-opacity:1;fill-rule:nonzero;stroke:none;stroke-width:0.1"
       id="path101" /><path
       d="m 305.447,88.7469 h -31.244 v 12.1981 h 31.244 V 88.7469"
       style="fill:#29bb89;fill-opacity:1;fill-rule:nonzero;stroke:none;stroke-width:0.1"
       id="path103" /><path
       d="m 305.447,88.7469 v 0.5 h -30.744 v 11.1981 h 30.243 l 10e-4,-11.6981 h 0.5 v 0.5 -0.5 h 0.499 V 101.445 H 273.703 V 88.2469 h 32.243 v 0.5 h -0.499"
       style="fill:#172d2d;fill-opacity:1;fill-rule:nonzero;stroke:none;stroke-width:0.1"
       id="path105" /><path
       d="m 244.453,142.304 h -1.722 v -20.339 h 1.722 v 20.339"
       style="fill:#ffffff;fill-opacity:1;fill-rule:nonzero;stroke:none;stroke-width:0.1"
       id="path107" /><path
       d="m 244.453,142.304 v 0.5 h -2.222 v -21.339 h 2.722 v 21.339 h -0.5 v -0.5 h -0.5 v -19.839 h -0.722 v 19.339 h 1.222 v 0.5 h -0.5 0.5"
       style="fill:#172d2d;fill-opacity:1;fill-rule:nonzero;stroke:none;stroke-width:0.1"
       id="path109" /><path
       d="m 245.984,128.28 h -4.785 v -8.995 h 4.785 v 8.995"
       style="fill:#ffffff;fill-opacity:1;fill-rule:nonzero;stroke:none;stroke-width:0.1"
       id="path111" /><path
       d="m 245.984,128.28 v 0.5 h -5.285 v -9.995 h 5.785 v 9.995 h -0.5 v -0.5 h -0.5 v -8.495 h -3.785 v 7.995 h 4.285 v 0.5 h -0.5 0.5"
       style="fill:#172d2d;fill-opacity:1;fill-rule:nonzero;stroke:none;stroke-width:0.1"
       id="path113" /><path
       d="m 211.786,109.504 13.509,-1.854 v 7.334 h -13.509 v -5.48"
       style="fill:#ffffff;fill-opacity:1;fill-rule:nonzero;stroke:none;stroke-width:0.1"
       id="path115" /><path
       d="m 211.786,109.504 -0.068,-0.496 14.077,-1.931 v 8.407 h -14.509 v -6.416 l 0.432,-0.06 0.068,0.496 h 0.5 v 4.98 h 12.509 v -6.261 l -12.941,1.776 -0.068,-0.495 h 0.5 -0.5"
       style="fill:#172d2d;fill-opacity:1;fill-rule:nonzero;stroke:none;stroke-width:0.1"
       id="path117" /><path
       d="m 265.122,120.242 h -39.827 v -5.258 h 39.827 v 5.258"
       style="fill:#ffffff;fill-opacity:1;fill-rule:nonzero;stroke:none;stroke-width:0.1"
       id="path119" /><path
       d="m 265.122,120.242 v 0.5 h -40.327 v -6.258 h 40.827 v 6.258 h -0.5 v -0.5 h -0.5 v -4.758 h -38.827 v 4.258 h 39.327 v 0.5 h -0.5 0.5"
       style="fill:#172d2d;fill-opacity:1;fill-rule:nonzero;stroke:none;stroke-width:0.1"
       id="path121" /><path
       d="M 265.122,120.242 H 256.4 v -5.258 h 8.722 v 5.258"
       style="fill:#ffffff;fill-opacity:1;fill-rule:nonzero;stroke:none;stroke-width:0.1"
       id="path123" /><path
       d="m 265.122,120.242 v 0.5 H 255.9 v -6.258 h 9.722 v 6.258 h -0.5 v -0.5 h -0.5 v -4.758 H 256.9 v 4.258 h 8.222 v 0.5 h -0.5 0.5"
       style="fill:#172d2d;fill-opacity:1;fill-rule:nonzero;stroke:none;stroke-width:0.1"
       id="path125" /><path
       d="m 221.218,114.984 h 41.3 V 62.8762 h -41.3 v 52.1078"
       style="fill:#ffffff;fill-opacity:1;fill-rule:nonzero;stroke:none;stroke-width:0.1"
       id="path127" /><path
       d="m 221.218,114.984 v -0.5 h 40.8 V 63.3762 h -40.3 v 51.6078 h -0.5 v -0.5 0.5 h -0.5 V 62.3762 h 42.3 v 53.1078 h -42.3 v -0.5 h 0.5"
       style="fill:#172d2d;fill-opacity:1;fill-rule:nonzero;stroke:none;stroke-width:0.1"
       id="path129" /><path
       d="M 258.273,114.984 H 268.65 V 62.8762 h -10.377 v 52.1078"
       style="fill:#ffffff;fill-opacity:1;fill-rule:nonzero;stroke:none;stroke-width:0.1"
       id="path131" /><path
       d="m 258.273,114.984 v -0.5 h 9.877 V 63.3762 h -9.377 v 51.6078 h -0.5 v -0.5 0.5 h -0.5 V 62.3762 h 11.377 v 53.1078 h -11.377 v -0.5 h 0.5"
       style="fill:#172d2d;fill-opacity:1;fill-rule:nonzero;stroke:none;stroke-width:0.1"
       id="path133" /><path
       d="m 276.028,109.504 -13.51,-1.854 v 7.334 h 13.51 v -5.48"
       style="fill:#ffffff;fill-opacity:1;fill-rule:nonzero;stroke:none;stroke-width:0.1"
       id="path135" /><path
       d="m 276.028,109.504 -0.068,0.495 -12.942,-1.776 v 6.261 h 12.51 v -4.98 h 0.5 l -0.068,0.495 0.068,-0.495 h 0.5 v 5.98 h -14.51 v -8.407 l 14.51,1.991 v 0.436 h -0.5"
       style="fill:#172d2d;fill-opacity:1;fill-rule:nonzero;stroke:none;stroke-width:0.1"
       id="path137" /><path
       d="m 279.378,109.298 h -3.35 v 5.686 h 3.35 v -5.686"
       style="fill:#ffffff;fill-opacity:1;fill-rule:nonzero;stroke:none;stroke-width:0.1"
       id="path139" /><path
       d="m 279.378,109.298 v 0.5 h -2.85 v 4.686 h 2.35 v -5.186 h 0.5 v 0.5 -0.5 h 0.5 v 6.186 h -4.35 v -6.686 h 4.35 v 0.5 h -0.5"
       style="fill:#172d2d;fill-opacity:1;fill-rule:nonzero;stroke:none;stroke-width:0.1"
       id="path141" /><path
       d="m 279.378,109.298 -9.884,-1.854 h -6.976 l 13.51,1.854 h 3.35"
       style="fill:#ffffff;fill-opacity:1;fill-rule:nonzero;stroke:none;stroke-width:0.1"
       id="path143" /><path
       d="m 279.378,109.298 -0.092,0.491 -9.838,-1.845 h -6.93 v -0.5 l 0.068,-0.495 13.476,1.849 h 3.316 v 0.5 l -0.092,0.491 0.092,-0.491 v 0.5 h -3.385 l -13.543,-1.858 0.068,-0.996 h 7.023 l 9.929,1.862 -0.092,0.992 v -0.5"
       style="fill:#172d2d;fill-opacity:1;fill-rule:nonzero;stroke:none;stroke-width:0.1"
       id="path145" /><path
       d="m 225.295,107.65 h -2.085 v 3.405 h 2.085 v -3.405"
       style="fill:#172d2d;fill-opacity:1;fill-rule:nonzero;stroke:none;stroke-width:0.1"
       id="path147" /><path
       d="m 228.759,107.65 h -2.085 v 3.405 h 2.085 v -3.405"
       style="fill:#172d2d;fill-opacity:1;fill-rule:nonzero;stroke:none;stroke-width:0.1"
       id="path149" /><path
       d="m 237.629,107.65 h -2.085 v 3.405 h 2.085 v -3.405"
       style="fill:#172d2d;fill-opacity:1;fill-rule:nonzero;stroke:none;stroke-width:0.1"
       id="path151" /><path
       d="m 241.094,107.65 h -2.085 v 3.405 h 2.085 v -3.405"
       style="fill:#172d2d;fill-opacity:1;fill-rule:nonzero;stroke:none;stroke-width:0.1"
       id="path153" /><path
       d="m 249.964,107.65 h -2.086 v 3.405 h 2.086 v -3.405"
       style="fill:#172d2d;fill-opacity:1;fill-rule:nonzero;stroke:none;stroke-width:0.1"
       id="path155" /><path
       d="m 253.428,107.65 h -2.085 v 3.405 h 2.085 v -3.405"
       style="fill:#172d2d;fill-opacity:1;fill-rule:nonzero;stroke:none;stroke-width:0.1"
       id="path157" /><path
       d="m 225.295,97.1238 h -2.085 v 3.4062 h 2.085 v -3.4062"
       style="fill:#172d2d;fill-opacity:1;fill-rule:nonzero;stroke:none;stroke-width:0.1"
       id="path159" /><path
       d="m 228.759,97.1238 h -2.085 v 3.4062 h 2.085 v -3.4062"
       style="fill:#172d2d;fill-opacity:1;fill-rule:nonzero;stroke:none;stroke-width:0.1"
       id="path161" /><path
       d="m 237.629,97.1238 h -2.085 v 3.4062 h 2.085 v -3.4062"
       style="fill:#172d2d;fill-opacity:1;fill-rule:nonzero;stroke:none;stroke-width:0.1"
       id="path163" /><path
       d="m 241.094,97.1238 h -2.085 v 3.4062 h 2.085 v -3.4062"
       style="fill:#172d2d;fill-opacity:1;fill-rule:nonzero;stroke:none;stroke-width:0.1"
       id="path165" /><path
       d="m 249.964,97.1238 h -2.086 v 3.4062 h 2.086 v -3.4062"
       style="fill:#172d2d;fill-opacity:1;fill-rule:nonzero;stroke:none;stroke-width:0.1"
       id="path167" /><path
       d="m 253.428,97.1238 h -2.085 v 3.4062 h 2.085 v -3.4062"
       style="fill:#172d2d;fill-opacity:1;fill-rule:nonzero;stroke:none;stroke-width:0.1"
       id="path169" /><path
       d="m 225.295,86.598 h -2.085 v 3.4059 h 2.085 V 86.598"
       style="fill:#172d2d;fill-opacity:1;fill-rule:nonzero;stroke:none;stroke-width:0.1"
       id="path171" /><path
       d="m 228.759,86.598 h -2.085 v 3.4059 h 2.085 V 86.598"
       style="fill:#172d2d;fill-opacity:1;fill-rule:nonzero;stroke:none;stroke-width:0.1"
       id="path173" /><path
       d="m 237.629,86.598 h -2.085 v 3.4059 h 2.085 V 86.598"
       style="fill:#172d2d;fill-opacity:1;fill-rule:nonzero;stroke:none;stroke-width:0.1"
       id="path175" /><path
       d="m 241.094,86.598 h -2.085 v 3.4059 h 2.085 V 86.598"
       style="fill:#172d2d;fill-opacity:1;fill-rule:nonzero;stroke:none;stroke-width:0.1"
       id="path177" /><path
       d="m 249.964,86.598 h -2.086 v 3.4059 h 2.086 V 86.598"
       style="fill:#172d2d;fill-opacity:1;fill-rule:nonzero;stroke:none;stroke-width:0.1"
       id="path179" /><path
       d="m 253.428,86.598 h -2.085 v 3.4059 h 2.085 V 86.598"
       style="fill:#172d2d;fill-opacity:1;fill-rule:nonzero;stroke:none;stroke-width:0.1"
       id="path181" /><path
       d="m 225.295,76.0719 h -2.085 v 3.4051 h 2.085 v -3.4051"
       style="fill:#172d2d;fill-opacity:1;fill-rule:nonzero;stroke:none;stroke-width:0.1"
       id="path183" /><path
       d="m 228.759,76.0719 h -2.085 v 3.4051 h 2.085 v -3.4051"
       style="fill:#172d2d;fill-opacity:1;fill-rule:nonzero;stroke:none;stroke-width:0.1"
       id="path185" /><path
       d="m 237.629,76.0719 h -2.085 v 3.4051 h 2.085 v -3.4051"
       style="fill:#172d2d;fill-opacity:1;fill-rule:nonzero;stroke:none;stroke-width:0.1"
       id="path187" /><path
       d="m 241.094,76.0719 h -2.085 v 3.4051 h 2.085 v -3.4051"
       style="fill:#172d2d;fill-opacity:1;fill-rule:nonzero;stroke:none;stroke-width:0.1"
       id="path189" /><path
       d="m 249.964,76.0719 h -2.086 v 3.4051 h 2.086 v -3.4051"
       style="fill:#172d2d;fill-opacity:1;fill-rule:nonzero;stroke:none;stroke-width:0.1"
       id="path191" /><path
       d="m 253.428,76.0719 h -2.085 v 3.4051 h 2.085 v -3.4051"
       style="fill:#172d2d;fill-opacity:1;fill-rule:nonzero;stroke:none;stroke-width:0.1"
       id="path193" /><path
       d="m 231.631,118.328 h -4.402 v -2.87 h 4.402 v 2.87"
       style="fill:#172d2d;fill-opacity:1;fill-rule:nonzero;stroke:none;stroke-width:0.1"
       id="path195" /><path
       d="m 237.276,118.328 h -4.402 v -2.87 h 4.402 v 2.87"
       style="fill:#172d2d;fill-opacity:1;fill-rule:nonzero;stroke:none;stroke-width:0.1"
       id="path197" /><path
       d="m 242.922,118.328 h -4.402 v -2.87 h 4.402 v 2.87"
       style="fill:#172d2d;fill-opacity:1;fill-rule:nonzero;stroke:none;stroke-width:0.1"
       id="path199" /><path
       d="m 248.568,118.328 h -4.402 v -2.87 h 4.402 v 2.87"
       style="fill:#172d2d;fill-opacity:1;fill-rule:nonzero;stroke:none;stroke-width:0.1"
       id="path201" /><path
       d="m 254.214,118.328 h -4.402 v -2.87 h 4.402 v 2.87"
       style="fill:#172d2d;fill-opacity:1;fill-rule:nonzero;stroke:none;stroke-width:0.1"
       id="path203" /><path
       d="M 202.72,64.9461 H 157.2 V 77.143 h 45.52 V 64.9461"
       style="fill:#ffffff;fill-opacity:1;fill-rule:nonzero;stroke:none;stroke-width:0.1"
       id="path205" /><path
       d="m 202.72,64.9461 v 0.5 H 157.7 V 76.643 h 44.52 V 64.9461 h 0.5 v 0.5 -0.5 h 0.5 V 77.643 H 156.7 V 64.4461 h 46.52 v 0.5 h -0.5"
       style="fill:#172d2d;fill-opacity:1;fill-rule:nonzero;stroke:none;stroke-width:0.1"
       id="path207" /><path
       d="M 202.72,64.9461 H 171.476 V 77.143 H 202.72 V 64.9461"
       style="fill:#ffffff;fill-opacity:1;fill-rule:nonzero;stroke:none;stroke-width:0.1"
       id="path209" /><path
       d="m 202.72,64.9461 v 0.5 H 171.976 V 76.643 H 202.22 V 64.9461 h 0.5 v 0.5 -0.5 h 0.5 V 77.643 H 170.976 V 64.4461 h 32.244 v 0.5 h -0.5"
       style="fill:#172d2d;fill-opacity:1;fill-rule:nonzero;stroke:none;stroke-width:0.1"
       id="path211" /><path
       d="M 202.72,76.8461 H 157.2 v 12.1988 h 45.52 V 76.8461"
       style="fill:#ffffff;fill-opacity:1;fill-rule:nonzero;stroke:none;stroke-width:0.1"
       id="path213" /><path
       d="m 202.72,76.8461 v 0.5 H 157.7 v 11.1988 h 44.52 V 76.8461 h 0.5 v 0.5 -0.5 h 0.5 V 89.5449 H 156.7 v -13.198 h 46.52 v 0.4992 h -0.5"
       style="fill:#172d2d;fill-opacity:1;fill-rule:nonzero;stroke:none;stroke-width:0.1"
       id="path215" /><path
       d="M 202.72,76.8461 H 171.476 V 89.0449 H 202.72 V 76.8461"
       style="fill:#ffffff;fill-opacity:1;fill-rule:nonzero;stroke:none;stroke-width:0.1"
       id="path217" /><path
       d="m 202.72,76.8461 v 0.5 H 171.976 V 88.5449 H 202.22 V 76.8461 h 0.5 v 0.5 -0.5 h 0.5 v 12.6988 h -32.244 v -13.198 h 32.244 v 0.4992 h -0.5"
       style="fill:#172d2d;fill-opacity:1;fill-rule:nonzero;stroke:none;stroke-width:0.1"
       id="path219" /><path
       d="M 202.72,88.7469 H 157.2 v 12.1981 h 45.52 V 88.7469"
       style="fill:#ffffff;fill-opacity:1;fill-rule:nonzero;stroke:none;stroke-width:0.1"
       id="path221" /><path
       d="m 202.72,88.7469 v 0.5 H 157.7 v 11.1981 h 44.52 V 88.7469 h 0.5 v 0.5 -0.5 h 0.5 V 101.445 H 156.7 V 88.2469 h 46.52 v 0.5 h -0.5"
       style="fill:#172d2d;fill-opacity:1;fill-rule:nonzero;stroke:none;stroke-width:0.1"
       id="path223" /><path
       d="M 202.72,88.7469 H 171.476 V 100.945 H 202.72 V 88.7469"
       style="fill:#ffffff;fill-opacity:1;fill-rule:nonzero;stroke:none;stroke-width:0.1"
       id="path225" /><path
       d="m 202.72,88.7469 v 0.5 H 171.976 V 100.445 H 202.22 V 88.7469 h 0.5 v 0.5 -0.5 h 0.5 V 101.445 H 170.976 V 88.2469 h 32.244 v 0.5 h -0.5"
       style="fill:#172d2d;fill-opacity:1;fill-rule:nonzero;stroke:none;stroke-width:0.1"
       id="path227" /><path
       d="m 219.678,64.9461 h -45.52 V 77.143 h 45.52 V 64.9461"
       style="fill:#ffffff;fill-opacity:1;fill-rule:nonzero;stroke:none;stroke-width:0.1"
       id="path229" /><path
       d="m 219.678,64.9461 v 0.5 h -45.02 V 76.643 h 44.52 V 64.9461 h 0.5 v 0.5 -0.5 h 0.5 V 77.643 h -46.52 V 64.4461 h 46.52 v 0.5 h -0.5"
       style="fill:#172d2d;fill-opacity:1;fill-rule:nonzero;stroke:none;stroke-width:0.1"
       id="path231" /><path
       d="M 219.678,64.9461 H 188.434 V 77.143 h 31.244 V 64.9461"
       style="fill:#7d8082;fill-opacity:1;fill-rule:nonzero;stroke:none;stroke-width:0.1"
       id="path233" /><path
       d="m 219.678,64.9461 v 0.5 H 188.934 V 76.643 h 30.244 V 64.9461 h 0.5 v 0.5 -0.5 h 0.5 V 77.643 H 187.934 V 64.4461 h 32.244 v 0.5 h -0.5"
       style="fill:#172d2d;fill-opacity:1;fill-rule:nonzero;stroke:none;stroke-width:0.1"
       id="path235" /><path
       d="m 219.678,76.8461 h -45.52 v 12.1988 h 45.52 V 76.8461"
       style="fill:#ffffff;fill-opacity:1;fill-rule:nonzero;stroke:none;stroke-width:0.1"
       id="path237" /><path
       d="m 219.678,76.8461 v 0.5 h -45.02 v 11.1988 h 44.52 V 76.8461 h 0.5 v 0.5 -0.5 h 0.5 v 12.6988 h -46.52 v -13.198 h 46.52 v 0.4992 h -0.5"
       style="fill:#172d2d;fill-opacity:1;fill-rule:nonzero;stroke:none;stroke-width:0.1"
       id="path239" /><path
       d="m 219.678,76.8461 h -31.244 v 12.1988 h 31.244 V 76.8461"
       style="fill:#ffffff;fill-opacity:1;fill-rule:nonzero;stroke:none;stroke-width:0.1"
       id="path241" /><path
       d="m 219.678,76.8461 v 0.5 h -30.744 v 11.1988 h 30.244 V 76.8461 h 0.5 v 0.5 -0.5 h 0.5 v 12.6988 h -32.244 v -13.198 h 32.244 v 0.4992 h -0.5"
       style="fill:#172d2d;fill-opacity:1;fill-rule:nonzero;stroke:none;stroke-width:0.1"
       id="path243" /><path
       d="m 219.678,88.7469 h -45.52 v 12.1981 h 45.52 V 88.7469"
       style="fill:#ffffff;fill-opacity:1;fill-rule:nonzero;stroke:none;stroke-width:0.1"
       id="path245" /><path
       d="m 219.678,88.7469 v 0.5 h -45.02 v 11.1981 h 44.52 V 88.7469 h 0.5 v 0.5 -0.5 h 0.5 v 12.6981 h -46.52 V 88.2469 h 46.52 v 0.5 h -0.5"
       style="fill:#172d2d;fill-opacity:1;fill-rule:nonzero;stroke:none;stroke-width:0.1"
       id="path247" /><path
       d="m 219.678,88.7469 h -31.244 v 12.1981 h 31.244 V 88.7469"
       style="fill:#7d8082;fill-opacity:1;fill-rule:nonzero;stroke:none;stroke-width:0.1"
       id="path249" /><path
       d="m 219.678,88.7469 v 0.5 h -30.744 v 11.1981 h 30.244 V 88.7469 h 0.5 v 0.5 -0.5 h 0.5 V 101.445 H 187.934 V 88.2469 h 32.244 v 0.5 h -0.5"
       style="fill:#172d2d;fill-opacity:1;fill-rule:nonzero;stroke:none;stroke-width:0.1"
       id="path251" /><path
       d="M 236.636,64.9461 H 191.117 V 77.143 h 45.519 V 64.9461"
       style="fill:#ffffff;fill-opacity:1;fill-rule:nonzero;stroke:none;stroke-width:0.1"
       id="path253" /><path
       d="m 236.636,64.9461 v 0.5 H 191.617 V 76.643 h 44.519 V 64.9461 h 0.5 v 0.5 -0.5 h 0.5 V 77.643 H 190.617 V 64.4461 h 46.519 v 0.5 h -0.5"
       style="fill:#172d2d;fill-opacity:1;fill-rule:nonzero;stroke:none;stroke-width:0.1"
       id="path255" /><path
       d="M 236.636,64.9461 H 205.393 V 77.143 h 31.243 V 64.9461"
       style="fill:#ffffff;fill-opacity:1;fill-rule:nonzero;stroke:none;stroke-width:0.1"
       id="path257" /><path
       d="m 236.636,64.9461 v 0.5 H 205.893 V 76.643 h 30.243 V 64.9461 h 0.5 v 0.5 -0.5 h 0.5 V 77.643 H 204.893 V 64.4461 h 32.243 v 0.5 h -0.5"
       style="fill:#172d2d;fill-opacity:1;fill-rule:nonzero;stroke:none;stroke-width:0.1"
       id="path259" /><path
       d="m 236.636,76.8461 h -45.519 v 12.1988 h 45.519 V 76.8461"
       style="fill:#b7bab8;fill-opacity:1;fill-rule:nonzero;stroke:none;stroke-width:0.1"
       id="path261" /><path
       d="m 236.636,76.8461 v 0.5 h -45.019 v 11.1988 h 44.519 V 76.8461 h 0.5 v 0.5 -0.5 h 0.5 v 12.6988 h -46.519 v -13.198 h 46.519 v 0.4992 h -0.5"
       style="fill:#172d2d;fill-opacity:1;fill-rule:nonzero;stroke:none;stroke-width:0.1"
       id="path263" /><path
       d="m 236.636,76.8461 h -31.243 v 12.1988 h 31.243 V 76.8461"
       style="fill:#b7bab8;fill-opacity:1;fill-rule:nonzero;stroke:none;stroke-width:0.1"
       id="path265" /><path
       d="m 236.636,76.8461 v 0.5 h -30.743 v 11.1988 h 30.243 V 76.8461 h 0.5 v 0.5 -0.5 h 0.5 v 12.6988 h -32.243 v -13.198 h 32.243 v 0.4992 h -0.5"
       style="fill:#172d2d;fill-opacity:1;fill-rule:nonzero;stroke:none;stroke-width:0.1"
       id="path267" /><path
       d="m 236.636,88.7469 h -45.519 v 12.1981 h 45.519 V 88.7469"
       style="fill:#7d8082;fill-opacity:1;fill-rule:nonzero;stroke:none;stroke-width:0.1"
       id="path269" /><path
       d="m 236.636,88.7469 v 0.5 h -45.019 v 11.1981 h 44.519 V 88.7469 h 0.5 v 0.5 -0.5 h 0.5 V 101.445 H 190.617 V 88.2469 h 46.519 v 0.5 h -0.5"
       style="fill:#172d2d;fill-opacity:1;fill-rule:nonzero;stroke:none;stroke-width:0.1"
       id="path271" /><path
       d="m 236.636,88.7469 h -31.243 v 12.1981 h 31.243 V 88.7469"
       style="fill:#7d8082;fill-opacity:1;fill-rule:nonzero;stroke:none;stroke-width:0.1"
       id="path273" /><path
       d="m 236.636,88.7469 v 0.5 h -30.743 v 11.1981 h 30.243 V 88.7469 h 0.5 v 0.5 -0.5 h 0.5 V 101.445 H 204.893 V 88.2469 h 32.243 v 0.5 h -0.5"
       style="fill:#172d2d;fill-opacity:1;fill-rule:nonzero;stroke:none;stroke-width:0.1"
       id="path275" /><path
       d="M 109.292,64.9461 H 63.7727 V 77.143 H 109.292 V 64.9461"
       style="fill:#ffffff;fill-opacity:1;fill-rule:nonzero;stroke:none;stroke-width:0.1"
       id="path277" /><path
       d="m 109.292,64.9461 v 0.5 H 64.2727 V 76.643 H 108.792 V 64.9461 h 0.5 v 0.5 -0.5 h 0.5 V 77.643 H 63.2727 V 64.4461 h 46.5193 v 0.5 h -0.5"
       style="fill:#172d2d;fill-opacity:1;fill-rule:nonzero;stroke:none;stroke-width:0.1"
       id="path279" /><path
       d="M 109.292,64.9461 H 78.0484 V 77.143 H 109.292 V 64.9461"
       style="fill:#ffffff;fill-opacity:1;fill-rule:nonzero;stroke:none;stroke-width:0.1"
       id="path281" /><path
       d="m 109.292,64.9461 v 0.5 H 78.5484 V 76.643 H 108.792 V 64.9461 h 0.5 v 0.5 -0.5 h 0.5 V 77.643 H 77.5484 V 64.4461 h 32.2436 v 0.5 h -0.5"
       style="fill:#172d2d;fill-opacity:1;fill-rule:nonzero;stroke:none;stroke-width:0.1"
       id="path283" /><path
       d="M 109.292,76.8461 H 63.7727 V 89.0449 H 109.292 V 76.8461"
       style="fill:#ffffff;fill-opacity:1;fill-rule:nonzero;stroke:none;stroke-width:0.1"
       id="path285" /><path
       d="m 109.292,76.8461 v 0.5 H 64.2727 V 88.5449 H 108.792 V 76.8461 h 0.5 v 0.5 -0.5 h 0.5 V 89.5449 H 63.2727 v -13.198 h 46.5193 v 0.4992 h -0.5"
       style="fill:#172d2d;fill-opacity:1;fill-rule:nonzero;stroke:none;stroke-width:0.1"
       id="path287" /><path
       d="M 109.292,76.8461 H 78.0484 V 89.0449 H 109.292 V 76.8461"
       style="fill:#ffffff;fill-opacity:1;fill-rule:nonzero;stroke:none;stroke-width:0.1"
       id="path289" /><path
       d="m 109.292,76.8461 v 0.5 H 78.5484 V 88.5449 H 108.792 V 76.8461 h 0.5 v 0.5 -0.5 h 0.5 V 89.5449 H 77.5484 v -13.198 h 32.2436 v 0.4992 h -0.5"
       style="fill:#172d2d;fill-opacity:1;fill-rule:nonzero;stroke:none;stroke-width:0.1"
       id="path291" /><path
       d="M 109.292,88.7469 H 63.7727 V 100.945 H 109.292 V 88.7469"
       style="fill:#29bb89;fill-opacity:1;fill-rule:nonzero;stroke:none;stroke-width:0.1"
       id="path293" /><path
       d="m 109.292,88.7469 v 0.5 H 64.2727 V 100.445 H 108.792 V 88.7469 h 0.5 v 0.5 -0.5 h 0.5 V 101.445 H 63.2727 V 88.2469 h 46.5193 v 0.5 h -0.5"
       style="fill:#172d2d;fill-opacity:1;fill-rule:nonzero;stroke:none;stroke-width:0.1"
       id="path295" /><path
       d="M 109.292,88.7469 H 78.0484 V 100.945 H 109.292 V 88.7469"
       style="fill:#29bb89;fill-opacity:1;fill-rule:nonzero;stroke:none;stroke-width:0.1"
       id="path297" /><path
       d="m 109.292,88.7469 v 0.5 H 78.5484 V 100.445 H 108.792 V 88.7469 h 0.5 v 0.5 -0.5 h 0.5 V 101.445 H 77.5484 V 88.2469 h 32.2436 v 0.5 h -0.5"
       style="fill:#172d2d;fill-opacity:1;fill-rule:nonzero;stroke:none;stroke-width:0.1"
       id="path299" /><path
       d="m 148.678,64.9461 h -45.52 V 77.143 h 45.52 V 64.9461"
       style="fill:#ffffff;fill-opacity:1;fill-rule:nonzero;stroke:none;stroke-width:0.1"
       id="path301" /><path
       d="m 148.678,64.9461 v 0.5 h -45.02 V 76.643 h 44.52 V 64.9461 h 0.5 v 0.5 -0.5 h 0.5 V 77.643 h -46.52 V 64.4461 h 46.52 v 0.5 h -0.5"
       style="fill:#172d2d;fill-opacity:1;fill-rule:nonzero;stroke:none;stroke-width:0.1"
       id="path303" /><path
       d="M 148.678,64.9461 H 117.434 V 77.143 h 31.244 V 64.9461"
       style="fill:#ffffff;fill-opacity:1;fill-rule:nonzero;stroke:none;stroke-width:0.1"
       id="path305" /><path
       d="m 148.678,64.9461 v 0.5 H 117.934 V 76.643 h 30.244 V 64.9461 h 0.5 v 0.5 -0.5 h 0.5 V 77.643 H 116.934 V 64.4461 h 32.244 v 0.5 h -0.5"
       style="fill:#172d2d;fill-opacity:1;fill-rule:nonzero;stroke:none;stroke-width:0.1"
       id="path307" /><path
       d="m 148.678,76.8461 h -45.52 v 12.1988 h 45.52 V 76.8461"
       style="fill:#ffffff;fill-opacity:1;fill-rule:nonzero;stroke:none;stroke-width:0.1"
       id="path309" /><path
       d="m 148.678,76.8461 v 0.5 h -45.02 v 11.1988 h 44.52 V 76.8461 h 0.5 v 0.5 -0.5 h 0.5 v 12.6988 h -46.52 v -13.198 h 46.52 v 0.4992 h -0.5"
       style="fill:#172d2d;fill-opacity:1;fill-rule:nonzero;stroke:none;stroke-width:0.1"
       id="path311" /><path
       d="m 148.678,76.8461 h -31.244 v 12.1988 h 31.244 V 76.8461"
       style="fill:#ffffff;fill-opacity:1;fill-rule:nonzero;stroke:none;stroke-width:0.1"
       id="path313" /><path
       d="m 148.678,76.8461 v 0.5 h -30.744 v 11.1988 h 30.244 V 76.8461 h 0.5 v 0.5 -0.5 h 0.5 v 12.6988 h -32.244 v -13.198 h 32.244 v 0.4992 h -0.5"
       style="fill:#172d2d;fill-opacity:1;fill-rule:nonzero;stroke:none;stroke-width:0.1"
       id="path315" /><path
       d="m 148.678,88.7469 h -45.52 v 12.1981 h 45.52 V 88.7469"
       style="fill:#ffffff;fill-opacity:1;fill-rule:nonzero;stroke:none;stroke-width:0.1"
       id="path317" /><path
       d="m 148.678,88.7469 v 0.5 h -45.02 v 11.1981 h 44.52 V 88.7469 h 0.5 v 0.5 -0.5 h 0.5 v 12.6981 h -46.52 V 88.2469 h 46.52 v 0.5 h -0.5"
       style="fill:#172d2d;fill-opacity:1;fill-rule:nonzero;stroke:none;stroke-width:0.1"
       id="path319" /><path
       d="m 148.678,88.7469 h -31.244 v 12.1981 h 31.244 V 88.7469"
       style="fill:#ffffff;fill-opacity:1;fill-rule:nonzero;stroke:none;stroke-width:0.1"
       id="path321" /><path
       d="m 148.678,88.7469 v 0.5 h -30.744 v 11.1981 h 30.244 V 88.7469 h 0.5 v 0.5 -0.5 h 0.5 V 101.445 H 116.934 V 88.2469 h 32.244 v 0.5 h -0.5"
       style="fill:#172d2d;fill-opacity:1;fill-rule:nonzero;stroke:none;stroke-width:0.1"
       id="path323" /><path
       d="M 165.636,64.9461 H 120.117 V 77.143 h 45.519 V 64.9461"
       style="fill:#ffffff;fill-opacity:1;fill-rule:nonzero;stroke:none;stroke-width:0.1"
       id="path325" /><path
       d="m 165.636,64.9461 v 0.5 H 120.617 V 76.643 h 44.519 V 64.9461 h 0.5 v 0.5 -0.5 h 0.5 V 77.643 H 119.617 V 64.4461 h 46.519 v 0.5 h -0.5"
       style="fill:#172d2d;fill-opacity:1;fill-rule:nonzero;stroke:none;stroke-width:0.1"
       id="path327" /><path
       d="M 165.636,64.9461 H 134.393 V 77.143 h 31.243 V 64.9461"
       style="fill:#ffffff;fill-opacity:1;fill-rule:nonzero;stroke:none;stroke-width:0.1"
       id="path329" /><path
       d="m 165.636,64.9461 v 0.5 H 134.893 V 76.643 h 30.243 V 64.9461 h 0.5 v 0.5 -0.5 h 0.5 V 77.643 H 133.893 V 64.4461 h 32.243 v 0.5 h -0.5"
       style="fill:#172d2d;fill-opacity:1;fill-rule:nonzero;stroke:none;stroke-width:0.1"
       id="path331" /><path
       d="m 165.636,76.8461 h -45.519 v 12.1988 h 45.519 V 76.8461"
       style="fill:#ffffff;fill-opacity:1;fill-rule:nonzero;stroke:none;stroke-width:0.1"
       id="path333" /><path
       d="m 165.636,76.8461 v 0.5 h -45.019 v 11.1988 h 44.519 V 76.8461 h 0.5 v 0.5 -0.5 h 0.5 v 12.6988 h -46.519 v -13.198 h 46.519 v 0.4992 h -0.5"
       style="fill:#172d2d;fill-opacity:1;fill-rule:nonzero;stroke:none;stroke-width:0.1"
       id="path335" /><path
       d="m 165.636,76.8461 h -31.243 v 12.1988 h 31.243 V 76.8461"
       style="fill:#ffffff;fill-opacity:1;fill-rule:nonzero;stroke:none;stroke-width:0.1"
       id="path337" /><path
       d="m 165.636,76.8461 v 0.5 h -30.743 v 11.1988 h 30.243 V 76.8461 h 0.5 v 0.5 -0.5 h 0.5 v 12.6988 h -32.243 v -13.198 h 32.243 v 0.4992 h -0.5"
       style="fill:#172d2d;fill-opacity:1;fill-rule:nonzero;stroke:none;stroke-width:0.1"
       id="path339" /><path
       d="m 165.636,88.7469 h -45.519 v 12.1981 h 45.519 V 88.7469"
       style="fill:#ffffff;fill-opacity:1;fill-rule:nonzero;stroke:none;stroke-width:0.1"
       id="path341" /><path
       d="m 165.636,88.7469 v 0.5 h -45.019 v 11.1981 h 44.519 V 88.7469 h 0.5 v 0.5 -0.5 h 0.5 V 101.445 H 119.617 V 88.2469 h 46.519 v 0.5 h -0.5"
       style="fill:#172d2d;fill-opacity:1;fill-rule:nonzero;stroke:none;stroke-width:0.1"
       id="path343" /><path
       d="m 165.636,88.7469 h -31.243 v 12.1981 h 31.243 V 88.7469"
       style="fill:#ffffff;fill-opacity:1;fill-rule:nonzero;stroke:none;stroke-width:0.1"
       id="path345" /><path
       d="m 165.636,88.7469 v 0.5 h -30.743 v 11.1981 h 30.243 V 88.7469 h 0.5 v 0.5 -0.5 h 0.5 V 101.445 H 133.893 V 88.2469 h 32.243 v 0.5 h -0.5"
       style="fill:#172d2d;fill-opacity:1;fill-rule:nonzero;stroke:none;stroke-width:0.1"
       id="path347" /><path
       d="m 182.595,64.9461 h -45.52 V 77.143 h 45.52 V 64.9461"
       style="fill:#29bb89;fill-opacity:1;fill-rule:nonzero;stroke:none;stroke-width:0.1"
       id="path349" /><path
       d="m 182.595,64.9461 v 0.5 h -45.02 V 76.643 h 44.52 V 64.9461 h 0.5 v 0.5 -0.5 h 0.5 V 77.643 h -46.52 V 64.4461 h 46.52 v 0.5 h -0.5"
       style="fill:#172d2d;fill-opacity:1;fill-rule:nonzero;stroke:none;stroke-width:0.1"
       id="path351" /><path
       d="M 182.595,64.9461 H 151.351 V 77.143 h 31.244 V 64.9461"
       style="fill:#29bb89;fill-opacity:1;fill-rule:nonzero;stroke:none;stroke-width:0.1"
       id="path353" /><path
       d="m 182.595,64.9461 v 0.5 H 151.851 V 76.643 h 30.244 V 64.9461 h 0.5 v 0.5 -0.5 h 0.5 V 77.643 H 150.851 V 64.4461 h 32.244 v 0.5 h -0.5"
       style="fill:#172d2d;fill-opacity:1;fill-rule:nonzero;stroke:none;stroke-width:0.1"
       id="path355" /><path
       d="m 182.595,76.8461 h -45.52 v 12.1988 h 45.52 V 76.8461"
       style="fill:#ffffff;fill-opacity:1;fill-rule:nonzero;stroke:none;stroke-width:0.1"
       id="path357" /><path
       d="m 182.595,76.8461 v 0.5 h -45.02 v 11.1988 h 44.52 V 76.8461 h 0.5 v 0.5 -0.5 h 0.5 v 12.6988 h -46.52 v -13.198 h 46.52 v 0.4992 h -0.5"
       style="fill:#172d2d;fill-opacity:1;fill-rule:nonzero;stroke:none;stroke-width:0.1"
       id="path359" /><path
       d="m 182.595,76.8461 h -31.244 v 12.1988 h 31.244 V 76.8461"
       style="fill:#ffffff;fill-opacity:1;fill-rule:nonzero;stroke:none;stroke-width:0.1"
       id="path361" /><path
       d="m 182.595,76.8461 v 0.5 h -30.744 v 11.1988 h 30.244 V 76.8461 h 0.5 v 0.5 -0.5 h 0.5 v 12.6988 h -32.244 v -13.198 h 32.244 v 0.4992 h -0.5"
       style="fill:#172d2d;fill-opacity:1;fill-rule:nonzero;stroke:none;stroke-width:0.1"
       id="path363" /><path
       d="m 182.595,88.7469 h -45.52 v 12.1981 h 45.52 V 88.7469"
       style="fill:#29bb89;fill-opacity:1;fill-rule:nonzero;stroke:none;stroke-width:0.1"
       id="path365" /><path
       d="m 182.595,88.7469 v 0.5 h -45.02 v 11.1981 h 44.52 V 88.7469 h 0.5 v 0.5 -0.5 h 0.5 v 12.6981 h -46.52 V 88.2469 h 46.52 v 0.5 h -0.5"
       style="fill:#172d2d;fill-opacity:1;fill-rule:nonzero;stroke:none;stroke-width:0.1"
       id="path367" /><path
       d="m 182.595,88.7469 h -31.244 v 12.1981 h 31.244 V 88.7469"
       style="fill:#29bb89;fill-opacity:1;fill-rule:nonzero;stroke:none;stroke-width:0.1"
       id="path369" /><path
       d="m 182.595,88.7469 v 0.5 h -30.744 v 11.1981 h 30.244 V 88.7469 h 0.5 v 0.5 -0.5 h 0.5 V 101.445 H 150.851 V 88.2469 h 32.244 v 0.5 h -0.5"
       style="fill:#172d2d;fill-opacity:1;fill-rule:nonzero;stroke:none;stroke-width:0.1"
       id="path371" /><path
       d="M 126.251,64.9461 H 80.7313 V 77.143 H 126.251 V 64.9461"
       style="fill:#ffffff;fill-opacity:1;fill-rule:nonzero;stroke:none;stroke-width:0.1"
       id="path373" /><path
       d="m 126.251,64.9461 v 0.5 H 81.2313 V 76.643 H 125.751 V 64.9461 h 0.5 v 0.5 -0.5 h 0.5 V 77.643 H 80.2313 V 64.4461 h 46.5197 v 0.5 h -0.5"
       style="fill:#172d2d;fill-opacity:1;fill-rule:nonzero;stroke:none;stroke-width:0.1"
       id="path375" /><path
       d="M 126.251,64.9461 H 95.007 V 77.143 h 31.244 V 64.9461"
       style="fill:#ffffff;fill-opacity:1;fill-rule:nonzero;stroke:none;stroke-width:0.1"
       id="path377" /><path
       d="m 126.251,64.9461 v 0.5 H 95.507 V 76.643 h 30.244 V 64.9461 h 0.5 v 0.5 -0.5 h 0.5 V 77.643 H 94.507 V 64.4461 h 32.244 v 0.5 h -0.5"
       style="fill:#172d2d;fill-opacity:1;fill-rule:nonzero;stroke:none;stroke-width:0.1"
       id="path379" /><path
       d="M 126.251,76.8461 H 80.7313 V 89.0449 H 126.251 V 76.8461"
       style="fill:#ffffff;fill-opacity:1;fill-rule:nonzero;stroke:none;stroke-width:0.1"
       id="path381" /><path
       d="m 126.251,76.8461 v 0.5 H 81.2313 V 88.5449 H 125.751 V 76.8461 h 0.5 v 0.5 -0.5 h 0.5 V 89.5449 H 80.2313 v -13.198 h 46.5197 v 0.4992 h -0.5"
       style="fill:#172d2d;fill-opacity:1;fill-rule:nonzero;stroke:none;stroke-width:0.1"
       id="path383" /><path
       d="M 126.251,76.8461 H 95.007 v 12.1988 h 31.244 V 76.8461"
       style="fill:#ffffff;fill-opacity:1;fill-rule:nonzero;stroke:none;stroke-width:0.1"
       id="path385" /><path
       d="m 126.251,76.8461 v 0.5 H 95.507 v 11.1988 h 30.244 V 76.8461 h 0.5 v 0.5 -0.5 h 0.5 V 89.5449 H 94.507 v -13.198 h 32.244 v 0.4992 h -0.5"
       style="fill:#172d2d;fill-opacity:1;fill-rule:nonzero;stroke:none;stroke-width:0.1"
       id="path387" /><path
       d="M 126.251,88.7469 H 80.7313 V 100.945 H 126.251 V 88.7469"
       style="fill:#29bb89;fill-opacity:1;fill-rule:nonzero;stroke:none;stroke-width:0.1"
       id="path389" /><path
       d="m 126.251,88.7469 v 0.5 H 81.2313 V 100.445 H 125.751 V 88.7469 h 0.5 v 0.5 -0.5 h 0.5 V 101.445 H 80.2313 V 88.2469 h 46.5197 v 0.5 h -0.5"
       style="fill:#172d2d;fill-opacity:1;fill-rule:nonzero;stroke:none;stroke-width:0.1"
       id="path391" /><path
       d="M 126.251,88.7469 H 95.007 v 12.1981 h 31.244 V 88.7469"
       style="fill:#29bb89;fill-opacity:1;fill-rule:nonzero;stroke:none;stroke-width:0.1"
       id="path393" /><path
       d="m 126.251,88.7469 v 0.5 H 95.507 v 11.1981 h 30.244 V 88.7469 h 0.5 v 0.5 -0.5 h 0.5 V 101.445 H 94.507 V 88.2469 h 32.244 v 0.5 h -0.5"
       style="fill:#172d2d;fill-opacity:1;fill-rule:nonzero;stroke:none;stroke-width:0.1"
       id="path395" /><path
       d="M 143.209,64.9461 H 97.6891 V 77.143 H 143.209 V 64.9461"
       style="fill:#ffffff;fill-opacity:1;fill-rule:nonzero;stroke:none;stroke-width:0.1"
       id="path397" /><path
       d="m 143.209,64.9461 v 0.5 H 98.1891 V 76.643 H 142.709 V 64.9461 h 0.5 v 0.5 -0.5 h 0.5 V 77.643 H 97.1891 V 64.4461 h 46.5199 v 0.5 h -0.5"
       style="fill:#172d2d;fill-opacity:1;fill-rule:nonzero;stroke:none;stroke-width:0.1"
       id="path399" /><path
       d="M 143.209,64.9461 H 111.966 V 77.143 h 31.243 V 64.9461"
       style="fill:#ffffff;fill-opacity:1;fill-rule:nonzero;stroke:none;stroke-width:0.1"
       id="path401" /><path
       d="m 143.209,64.9461 v 0.5 H 112.466 V 76.643 h 30.243 V 64.9461 h 0.5 v 0.5 -0.5 h 0.5 V 77.643 H 111.466 V 64.4461 h 32.243 v 0.5 h -0.5"
       style="fill:#172d2d;fill-opacity:1;fill-rule:nonzero;stroke:none;stroke-width:0.1"
       id="path403" /><path
       d="M 143.209,76.8461 H 97.6891 V 89.0449 H 143.209 V 76.8461"
       style="fill:#ffffff;fill-opacity:1;fill-rule:nonzero;stroke:none;stroke-width:0.1"
       id="path405" /><path
       d="m 143.209,76.8461 v 0.5 H 98.1891 V 88.5449 H 142.709 V 76.8461 h 0.5 v 0.5 -0.5 h 0.5 V 89.5449 H 97.1891 v -13.198 h 46.5199 v 0.4992 h -0.5"
       style="fill:#172d2d;fill-opacity:1;fill-rule:nonzero;stroke:none;stroke-width:0.1"
       id="path407" /><path
       d="m 143.209,76.8461 h -31.243 v 12.1988 h 31.243 V 76.8461"
       style="fill:#b7bab8;fill-opacity:1;fill-rule:nonzero;stroke:none;stroke-width:0.1"
       id="path409" /><path
       d="m 143.209,76.8461 v 0.5 h -30.743 v 11.1988 h 30.243 V 76.8461 h 0.5 v 0.5 -0.5 h 0.5 v 12.6988 h -32.243 v -13.198 h 32.243 v 0.4992 h -0.5"
       style="fill:#172d2d;fill-opacity:1;fill-rule:nonzero;stroke:none;stroke-width:0.1"
       id="path411" /><path
       d="M 143.209,88.7469 H 97.6891 V 100.945 H 143.209 V 88.7469"
       style="fill:#ffffff;fill-opacity:1;fill-rule:nonzero;stroke:none;stroke-width:0.1"
       id="path413" /><path
       d="m 143.209,88.7469 v 0.5 H 98.1891 V 100.445 H 142.709 V 88.7469 h 0.5 v 0.5 -0.5 h 0.5 V 101.445 H 97.1891 V 88.2469 h 46.5199 v 0.5 h -0.5"
       style="fill:#172d2d;fill-opacity:1;fill-rule:nonzero;stroke:none;stroke-width:0.1"
       id="path415" /><path
       d="m 143.209,88.7469 h -31.243 v 12.1981 h 31.243 V 88.7469"
       style="fill:#ffffff;fill-opacity:1;fill-rule:nonzero;stroke:none;stroke-width:0.1"
       id="path417" /><path
       d="m 143.209,88.7469 v 0.5 h -30.743 v 11.1981 h 30.243 V 88.7469 h 0.5 v 0.5 -0.5 h 0.5 V 101.445 H 111.466 V 88.2469 h 32.243 v 0.5 h -0.5"
       style="fill:#172d2d;fill-opacity:1;fill-rule:nonzero;stroke:none;stroke-width:0.1"
       id="path419" /><path
       d="m 120.598,74.1691 v 13.0911 c 0,0 1.488,0.8918 2.38,-1.7864 0.893,-2.6769 4.609,-14.4289 4.609,-14.4289 l -6.989,3.1242"
       style="fill:#ffffff;fill-opacity:1;fill-rule:nonzero;stroke:none;stroke-width:0.1"
       id="path421" /><path
       d="m 120.598,74.1691 h 0.5 v 13.0911 h -0.5 l 0.257,-0.4293 -0.105,0.1742 0.098,-0.1789 0.007,0.0047 -0.105,0.1742 0.098,-0.1789 c 0.005,0.0047 0.154,0.0777 0.331,0.0758 0.153,-0.0032 0.328,-0.036 0.561,-0.236 0.23,-0.2019 0.515,-0.6019 0.764,-1.35 0.444,-1.3308 1.597,-4.941 2.637,-8.2121 0.52,-1.6359 1.013,-3.1891 1.375,-4.332 0.362,-1.1438 0.594,-1.8758 0.594,-1.8778 l 0.477,0.1508 0.204,0.4563 -6.989,3.1238 -0.204,-0.4559 h 0.5 -0.5 l -0.204,-0.457 8.006,-3.5781 -0.336,1.0621 c -0.001,0.0019 -3.715,11.748 -4.611,14.4367 -0.287,0.8582 -0.645,1.4223 -1.052,1.7832 -0.405,0.3621 -0.862,0.4899 -1.222,0.486 -0.484,-0.0032 -0.793,-0.1891 -0.838,-0.2141 L 120.098,87.543 V 73.8449 l 0.296,-0.1328 0.204,0.457"
       style="fill:#172d2d;fill-opacity:1;fill-rule:nonzero;stroke:none;stroke-width:0.1"
       id="path423" /><path
       d="M 60.7977,75.0609 H 120.598 V 87.2461 H 60.7977 V 75.0609"
       style="fill:#ffffff;fill-opacity:1;fill-rule:nonzero;stroke:none;stroke-width:0.1"
       id="path425" /><path
       d="m 60.7977,75.0609 v -0.5 H 121.098 V 87.7461 H 60.2977 V 74.5609 h 0.5 v 0.5 h 0.5 V 86.7461 H 120.098 V 75.5609 H 60.7977 v -0.5 h 0.5 -0.5"
       style="fill:#172d2d;fill-opacity:1;fill-rule:nonzero;stroke:none;stroke-width:0.1"
       id="path427" /><path
       d="M 311.398,66.318 H 137.035 l -9.598,8.798 H 53.8531 L 74.2488,44.723 c 0,0 1.5996,-4.7992 -3.1992,-5.9992 -1.7375,-0.434 -3.4746,-0.7629 -4.9844,-1.007 -2.6543,-0.4289 -4.6132,-2.7027 -4.6132,-5.3906 h 218.914 c 0,0 26.633,3.1988 31.032,33.9918"
       style="fill:#172d2d;fill-opacity:1;fill-rule:nonzero;stroke:none;stroke-width:0.1"
       id="path429" /><path
       d="m 311.398,66.318 v 0.5 H 137.23 l -9.598,8.798 H 52.9156 l 20.918,-31.1711 0.4152,0.2781 -0.4746,-0.1582 0.0074,-0.0218 c 0.0403,-0.1301 0.2239,-0.7871 0.2231,-1.586 4e-4,-0.6871 -0.134,-1.466 -0.568,-2.1371 C 73.0004,40.15 72.2699,39.5488 70.9281,39.2102 V 39.209 c -1.7187,-0.4301 -3.4433,-0.7559 -4.9429,-0.9988 h 3e-4 C 63.0918,37.743 60.952,35.2621 60.952,32.3262 v -0.5 h 219.444 l 0.03,0.0039 c 0.045,0.0058 6.771,0.8148 14.077,5.525 7.306,4.7027 15.176,13.3539 17.39,28.8918 l 0.081,0.5711 h -0.576 v -0.5 l -0.495,0.0711 c -2.186,-15.2539 -9.831,-23.6 -16.942,-28.1942 -3.556,-2.2937 -6.98,-3.639 -9.511,-4.4097 -1.265,-0.3852 -2.307,-0.6262 -3.029,-0.7711 -0.362,-0.0723 -0.643,-0.1211 -0.833,-0.1512 -0.095,-0.0149 -0.167,-0.025 -0.214,-0.032 l -0.068,-0.009 0.06,-0.4957 v 0.5 H 61.452 v -0.5 h 0.5 c 0,2.441 1.7781,4.5058 4.1929,4.8968 v 0 c 1.5199,0.2461 3.2703,0.577 5.0262,1.0161 h -4e-4 c 1.5375,0.38 2.5348,1.1468 3.1063,2.039 0.5738,0.891 0.7273,1.8688 0.7277,2.6789 -0.0012,1.0828 -0.2723,1.893 -0.2817,1.925 L 74.7016,44.9461 54.791,74.616 h 72.452 l 9.598,-8.798 h 174.557 v 0.5 l -0.495,0.0711 0.495,-0.0711"
       style="fill:#172d2d;fill-opacity:1;fill-rule:nonzero;stroke:none;stroke-width:0.1"
       id="path431" /><path
       d="M 73.5445,40.1379 C 73.0191,39.5328 72.2297,39.0191 71.0496,38.7238 69.3121,38.2898 67.575,37.9609 66.0652,37.7168 63.4109,37.2879 61.452,35.0141 61.452,32.3262 h 218.914 c 0,0 8.795,1.0679 17.113,7.8117 H 73.5445"
       style="fill:#ffffff;fill-opacity:1;fill-rule:nonzero;stroke:none;stroke-width:0.1"
       id="path433" /><path
       d="M 73.5445,40.1379 73.1672,40.466 C 72.7125,39.9449 72.0277,39.4859 70.9281,39.2102 V 39.209 c -1.7187,-0.4301 -3.4433,-0.7559 -4.9429,-0.9988 h 3e-4 C 63.0918,37.743 60.952,35.2621 60.952,32.3262 v -0.5 h 219.444 l 0.03,0.0039 c 0.051,0.0078 8.932,1.0847 17.368,7.9199 l 1.095,0.8879 H 73.3164 l -0.1492,-0.1719 0.3773,-0.3281 v -0.5 H 297.479 v 0.5 l -0.315,0.3891 c -4.101,-3.3258 -8.326,-5.2551 -11.523,-6.3508 -1.598,-0.5481 -2.938,-0.8871 -3.876,-1.0891 -0.469,-0.1012 -0.837,-0.1672 -1.086,-0.209 -0.125,-0.0203 -0.22,-0.034 -0.283,-0.0429 l -0.09,-0.0133 0.06,-0.4957 v 0.5 H 61.452 v -0.5 h 0.5 c 0,2.441 1.7781,4.5058 4.1929,4.8968 v 0 c 1.5199,0.2461 3.2703,0.577 5.0262,1.0161 h -4e-4 c 1.2609,0.314 2.1555,0.882 2.7516,1.5718 l -0.3778,0.327 v -0.5 0.5"
       style="fill:#172d2d;fill-opacity:1;fill-rule:nonzero;stroke:none;stroke-width:0.1"
       id="path435" /><path
       d="m 444.117,42.527 h -6.707 v 139.446 h 6.707 V 42.527"
       style="fill:#172d2d;fill-opacity:1;fill-rule:nonzero;stroke:none;stroke-width:0.1"
       id="path437" /><path
       d="m 444.117,42.527 v 0.5 h -6.207 v 138.446 h 5.707 V 42.527 h 0.5 v 0.5 -0.5 h 0.5 V 182.473 H 436.91 V 42.027 h 7.707 v 0.5 h -0.5"
       style="fill:#172d2d;fill-opacity:1;fill-rule:nonzero;stroke:none;stroke-width:0.1"
       id="path439" /><path
       d="M 465.047,74.623 H 413.31 v 7.6649 h 51.737 V 74.623"
       style="fill:#172d2d;fill-opacity:1;fill-rule:nonzero;stroke:none;stroke-width:0.1"
       id="path441" /><path
       d="m 465.047,74.623 v 0.5 H 413.81 v 6.6649 h 50.737 V 74.623 h 0.5 v 0.5 -0.5 h 0.5 v 8.1649 H 412.81 V 74.123 h 52.737 v 0.5 h -0.5"
       style="fill:#172d2d;fill-opacity:1;fill-rule:nonzero;stroke:none;stroke-width:0.1"
       id="path443" /><path
       d="m 398.939,42.527 h -6.707 v 139.446 h 6.707 V 42.527"
       style="fill:#172d2d;fill-opacity:1;fill-rule:nonzero;stroke:none;stroke-width:0.1"
       id="path445" /><path
       d="m 398.939,42.527 v 0.5 h -6.207 v 138.446 h 5.707 V 42.527 h 0.5 v 0.5 -0.5 h 0.5 v 139.946 h -7.707 V 42.027 h 7.707 v 0.5 h -0.5"
       style="fill:#172d2d;fill-opacity:1;fill-rule:nonzero;stroke:none;stroke-width:0.1"
       id="path447" /><path
       d="m 429.826,42.527 h -6.707 v 139.446 h 6.707 V 42.527"
       style="fill:#172d2d;fill-opacity:1;fill-rule:nonzero;stroke:none;stroke-width:0.1"
       id="path449" /><path
       d="m 429.826,42.527 v 0.5 h -6.207 v 138.446 h 5.707 V 42.527 h 0.5 v 0.5 -0.5 h 0.5 v 139.946 h -7.707 V 42.027 h 7.707 v 0.5 h -0.5"
       style="fill:#172d2d;fill-opacity:1;fill-rule:nonzero;stroke:none;stroke-width:0.1"
       id="path451" /><path
       d="M 682.847,42.568 H 237.14 V 32.3262 H 682.847 V 42.568"
       style="fill:#b7bab8;fill-opacity:1;fill-rule:nonzero;stroke:none;stroke-width:0.1"
       id="path453" /><path
       d="m 682.847,42.568 v 0.5 H 236.64 V 31.8262 H 683.347 V 43.068 h -0.5 v -0.5 h -0.5 V 32.8262 H 237.64 v 9.2418 h 445.207 v 0.5 h -0.5 0.5"
       style="fill:#172d2d;fill-opacity:1;fill-rule:nonzero;stroke:none;stroke-width:0.1"
       id="path455" /><path
       d="M 682.847,42.568 H 404.806 V 32.3262 H 682.847 V 42.568"
       style="fill:#172d2d;fill-opacity:1;fill-rule:nonzero;stroke:none;stroke-width:0.1"
       id="path457" /><path
       d="m 682.847,42.568 v 0.5 H 404.306 V 31.8262 H 683.347 V 43.068 h -0.5 v -0.5 h -0.5 V 32.8262 H 405.306 v 9.2418 h 277.541 v 0.5 h -0.5 0.5"
       style="fill:#172d2d;fill-opacity:1;fill-rule:nonzero;stroke:none;stroke-width:0.1"
       id="path459" /><path
       d="m 344.327,197.782 h -32.575 v -11.977 h 32.575 v 11.977"
       style="fill:#ffffff;fill-opacity:1;fill-rule:nonzero;stroke:none;stroke-width:0.1"
       id="path461" /><path
       d="m 344.327,197.782 v 0.5 h -33.075 v -12.977 h 33.575 v 12.977 h -0.5 v -0.5 h -0.5 v -11.477 h -31.575 v 10.977 h 32.075 v 0.5 h -0.5 0.5"
       style="fill:#172d2d;fill-opacity:1;fill-rule:nonzero;stroke:none;stroke-width:0.1"
       id="path463" /><path
       d="m 344.327,197.782 h -14.371 v -11.977 h 14.371 v 11.977"
       style="fill:#ffffff;fill-opacity:1;fill-rule:nonzero;stroke:none;stroke-width:0.1"
       id="path465" /><path
       d="m 344.327,197.782 v 0.5 h -14.871 v -12.977 h 15.371 v 12.977 h -0.5 v -0.5 h -0.5 v -11.477 h -13.371 v 10.977 h 13.871 v 0.5 h -0.5 0.5"
       style="fill:#172d2d;fill-opacity:1;fill-rule:nonzero;stroke:none;stroke-width:0.1"
       id="path467" /><path
       d="m 393.669,197.782 h -32.575 v -11.977 h 32.575 v 11.977"
       style="fill:#ffffff;fill-opacity:1;fill-rule:nonzero;stroke:none;stroke-width:0.1"
       id="path469" /><path
       d="m 393.669,197.782 v 0.5 h -33.075 v -12.977 h 33.575 v 12.977 h -0.5 v -0.5 h -0.5 v -11.477 h -31.575 v 10.977 h 32.075 v 0.5 h -0.5 0.5"
       style="fill:#172d2d;fill-opacity:1;fill-rule:nonzero;stroke:none;stroke-width:0.1"
       id="path471" /><path
       d="m 393.669,197.782 h -14.371 v -11.977 h 14.371 v 11.977"
       style="fill:#ffffff;fill-opacity:1;fill-rule:nonzero;stroke:none;stroke-width:0.1"
       id="path473" /><path
       d="m 393.669,197.782 v 0.5 h -14.871 v -12.977 h 15.371 v 12.977 h -0.5 v -0.5 h -0.5 v -11.477 h -13.371 v 10.977 h 13.871 v 0.5 h -0.5 0.5"
       style="fill:#172d2d;fill-opacity:1;fill-rule:nonzero;stroke:none;stroke-width:0.1"
       id="path475" /><path
       d="m 421.933,74.623 h -51.737 v 7.6649 h 51.737 V 74.623"
       style="fill:#29bb89;fill-opacity:1;fill-rule:nonzero;stroke:none;stroke-width:0.1"
       id="path477" /><path
       d="m 421.933,74.623 v 0.5 h -51.237 l -0.001,6.6649 h 50.738 V 74.623 h 0.5 v 0.5 -0.5 h 0.5 v 8.1649 H 369.696 V 74.123 h 52.737 v 0.5 h -0.5"
       style="fill:#172d2d;fill-opacity:1;fill-rule:nonzero;stroke:none;stroke-width:0.1"
       id="path479" /><path
       d="m 373.071,42.527 h -6.708 v 139.446 h 6.708 V 42.527"
       style="fill:#29bb89;fill-opacity:1;fill-rule:nonzero;stroke:none;stroke-width:0.1"
       id="path481" /><path
       d="m 373.071,42.527 v 0.5 h -6.208 v 138.446 h 5.707 l 0.001,-138.946 h 0.5 v 0.5 -0.5 h 0.499 v 139.946 h -7.707 V 42.027 h 7.707 v 0.5 h -0.499"
       style="fill:#172d2d;fill-opacity:1;fill-rule:nonzero;stroke:none;stroke-width:0.1"
       id="path483" /><path
       d="m 403.25,42.527 h -6.707 v 139.446 h 6.707 V 42.527"
       style="fill:#29bb89;fill-opacity:1;fill-rule:nonzero;stroke:none;stroke-width:0.1"
       id="path485" /><path
       d="m 403.25,42.527 v 0.5 h -6.207 v 138.446 h 5.707 V 42.527 h 0.5 v 0.5 -0.5 h 0.5 v 139.946 h -7.707 V 42.027 h 7.707 v 0.5 h -0.5"
       style="fill:#172d2d;fill-opacity:1;fill-rule:nonzero;stroke:none;stroke-width:0.1"
       id="path487" /><path
       d="m 424.807,42.527 h -6.706 v 139.446 h 6.706 V 42.527"
       style="fill:#29bb89;fill-opacity:1;fill-rule:nonzero;stroke:none;stroke-width:0.1"
       id="path489" /><path
       d="m 424.807,42.527 v 0.5 h -6.206 v 138.446 h 5.706 V 42.527 h 0.5 v 0.5 -0.5 h 0.5 v 139.946 h -7.706 V 42.027 h 7.706 v 0.5 h -0.5"
       style="fill:#172d2d;fill-opacity:1;fill-rule:nonzero;stroke:none;stroke-width:0.1"
       id="path491" /><path
       d="m 447.322,42.527 h -6.707 v 139.446 h 6.707 V 42.527"
       style="fill:#29bb89;fill-opacity:1;fill-rule:nonzero;stroke:none;stroke-width:0.1"
       id="path493" /><path
       d="m 447.322,42.527 v 0.5 h -6.207 v 138.446 h 5.707 V 42.527 h 0.5 v 0.5 -0.5 h 0.5 v 139.946 h -7.707 V 42.027 h 7.707 v 0.5 h -0.5"
       style="fill:#172d2d;fill-opacity:1;fill-rule:nonzero;stroke:none;stroke-width:0.1"
       id="path495" /><path
       d="m 468.879,42.527 h -6.706 v 139.446 h 6.706 V 42.527"
       style="fill:#172d2d;fill-opacity:1;fill-rule:nonzero;stroke:none;stroke-width:0.1"
       id="path497" /><path
       d="m 468.879,42.527 v 0.5 h -6.206 v 138.446 h 5.706 V 42.527 h 0.5 v 0.5 -0.5 h 0.5 v 139.946 h -7.706 V 42.027 h 7.706 v 0.5 h -0.5"
       style="fill:#172d2d;fill-opacity:1;fill-rule:nonzero;stroke:none;stroke-width:0.1"
       id="path499" /><path
       d="m 407.147,183.554 h -4.506 v 61.388 h 4.506 v -61.388"
       style="fill:#29bb89;fill-opacity:1;fill-rule:nonzero;stroke:none;stroke-width:0.1"
       id="path501" /><path
       d="m 407.147,183.554 v 0.5 h -4.006 v 60.388 h 3.506 v -60.888 h 0.5 v 0.5 -0.5 h 0.5 v 61.888 h -5.506 v -62.388 h 5.506 v 0.5 h -0.5"
       style="fill:#172d2d;fill-opacity:1;fill-rule:nonzero;stroke:none;stroke-width:0.1"
       id="path503" /><path
       d="m 282.008,183.947 121.802,58.898 -17.807,-60.59 1.919,-0.564 19.079,64.919 -125.864,-60.863 0.871,-1.8"
       style="fill:#172d2d;fill-opacity:1;fill-rule:nonzero;stroke:none;stroke-width:0.1"
       id="path505" /><path
       d="M 551.754,181.973 H 294.507 v 3.832 h 257.247 v -3.832"
       style="fill:#29bb89;fill-opacity:1;fill-rule:nonzero;stroke:none;stroke-width:0.1"
       id="path507" /><path
       d="m 551.754,181.973 v 0.5 H 295.007 v 2.832 h 256.247 v -3.332 h 0.5 v 0.5 -0.5 h 0.5 v 4.332 H 294.007 v -4.832 h 258.247 v 0.5 h -0.5"
       style="fill:#172d2d;fill-opacity:1;fill-rule:nonzero;stroke:none;stroke-width:0.1"
       id="path509" /><path
       d="m 541.215,185.805 v -3.832 h 10.539 v 3.832 h -10.539"
       style="fill:#172d2d;fill-opacity:1;fill-rule:nonzero;stroke:none;stroke-width:0.1"
       id="path511" /><path
       d="m 541.215,185.805 h -0.5 v -4.332 h 11.539 v 4.832 h -11.539 v -0.5 h 0.5 v -0.5 h 10.039 v -2.832 h -9.539 v 3.332 h -0.5 v -0.5 0.5"
       style="fill:#172d2d;fill-opacity:1;fill-rule:nonzero;stroke:none;stroke-width:0.1"
       id="path513" /><path
       d="m 520.6,185.733 -116.473,60.79 9.631,-64.697 1.978,0.294 -9.052,60.813 112.99,-58.973 0.926,1.773"
       style="fill:#172d2d;fill-opacity:1;fill-rule:nonzero;stroke:none;stroke-width:0.1"
       id="path515" /><path
       d="M 533.55,181.973 H 276.303 v 3.832 H 533.55 v -3.832"
       style="fill:#29bb89;fill-opacity:1;fill-rule:nonzero;stroke:none;stroke-width:0.1"
       id="path517" /><path
       d="m 533.55,181.973 v 0.5 H 276.803 v 2.832 H 533.05 v -3.332 h 0.5 v 0.5 -0.5 h 0.5 v 4.332 H 275.803 v -4.832 H 534.05 v 0.5 h -0.5"
       style="fill:#172d2d;fill-opacity:1;fill-rule:nonzero;stroke:none;stroke-width:0.1"
       id="path519" /><path
       d="m 523.012,185.805 v -3.832 h 10.538 v 3.832 h -10.538"
       style="fill:#172d2d;fill-opacity:1;fill-rule:nonzero;stroke:none;stroke-width:0.1"
       id="path521" /><path
       d="m 523.012,185.805 h -0.5 v -4.332 h 11.538 v 4.832 h -11.538 v -0.5 h 0.5 v -0.5 h 10.038 v -2.832 h -9.538 v 3.332 h -0.5 v -0.5 0.5"
       style="fill:#172d2d;fill-opacity:1;fill-rule:nonzero;stroke:none;stroke-width:0.1"
       id="path523" /><path
       d="m 414.508,240.895 h -18.204 v 8.144 h 18.204 v -8.144"
       style="fill:#29bb89;fill-opacity:1;fill-rule:nonzero;stroke:none;stroke-width:0.1"
       id="path525" /><path
       d="m 414.508,240.895 v 0.5 h -17.704 v 7.144 h 17.204 v -7.644 h 0.5 v 0.5 -0.5 h 0.5 v 8.644 h -19.204 v -9.144 h 19.204 v 0.5 h -0.5"
       style="fill:#172d2d;fill-opacity:1;fill-rule:nonzero;stroke:none;stroke-width:0.1"
       id="path527" /><path
       d="m 422.652,249.039 h -35.45 v 2.395 h 35.45 v -2.395"
       style="fill:#29bb89;fill-opacity:1;fill-rule:nonzero;stroke:none;stroke-width:0.1"
       id="path529" /><path
       d="m 422.652,249.039 v 0.5 h -34.95 v 1.395 h 34.45 v -1.895 h 0.5 v 0.5 -0.5 h 0.5 v 2.895 h -36.45 v -3.395 h 36.45 v 0.5 h -0.5"
       style="fill:#172d2d;fill-opacity:1;fill-rule:nonzero;stroke:none;stroke-width:0.1"
       id="path531" /><path
       d="m 362.919,42.8059 h -45.52 v 12.1992 h 45.52 V 42.8059"
       style="fill:#ffffff;fill-opacity:1;fill-rule:nonzero;stroke:none;stroke-width:0.1"
       id="path533" /><path
       d="m 362.919,42.8059 v 0.5 h -45.02 v 11.1992 h 44.52 V 42.8059 h 0.5 v 0.5 -0.5 h 0.5 v 12.6992 h -46.52 V 42.3059 h 46.52 v 0.5 h -0.5"
       style="fill:#172d2d;fill-opacity:1;fill-rule:nonzero;stroke:none;stroke-width:0.1"
       id="path535" /><path
       d="m 362.919,42.8059 h -31.243 v 12.1992 h 31.243 V 42.8059"
       style="fill:#ffffff;fill-opacity:1;fill-rule:nonzero;stroke:none;stroke-width:0.1"
       id="path537" /><path
       d="m 362.919,42.8059 v 0.5 h -30.743 v 11.1992 h 30.243 V 42.8059 h 0.5 v 0.5 -0.5 h 0.5 V 55.5051 H 331.176 V 42.3059 h 32.243 v 0.5 h -0.5"
       style="fill:#172d2d;fill-opacity:1;fill-rule:nonzero;stroke:none;stroke-width:0.1"
       id="path539" /><path
       d="m 362.919,54.707 h -45.52 v 12.1981 h 45.52 V 54.707"
       style="fill:#b7bab8;fill-opacity:1;fill-rule:nonzero;stroke:none;stroke-width:0.1"
       id="path541" /><path
       d="m 362.919,54.707 v 0.5 h -45.02 v 11.1981 h 44.52 V 54.707 h 0.5 v 0.5 -0.5 h 0.5 v 12.6981 h -46.52 V 54.207 h 46.52 v 0.5 h -0.5"
       style="fill:#172d2d;fill-opacity:1;fill-rule:nonzero;stroke:none;stroke-width:0.1"
       id="path543" /><path
       d="m 362.919,54.707 h -31.243 v 12.1981 h 31.243 V 54.707"
       style="fill:#b7bab8;fill-opacity:1;fill-rule:nonzero;stroke:none;stroke-width:0.1"
       id="path545" /><path
       d="m 362.919,54.707 v 0.5 h -30.743 v 11.1981 h 30.243 V 54.707 h 0.5 v 0.5 -0.5 h 0.5 V 67.4051 H 331.176 V 54.207 h 32.243 v 0.5 h -0.5"
       style="fill:#172d2d;fill-opacity:1;fill-rule:nonzero;stroke:none;stroke-width:0.1"
       id="path547" /><path
       d="m 362.919,66.6078 h -45.52 v 12.1981 h 45.52 V 66.6078"
       style="fill:#ffffff;fill-opacity:1;fill-rule:nonzero;stroke:none;stroke-width:0.1"
       id="path549" /><path
       d="m 362.919,66.6078 v 0.5 h -45.02 v 11.1981 h 44.52 V 66.6078 h 0.5 v 0.5 -0.5 h 0.5 v 12.6981 h -46.52 V 66.1078 h 46.52 v 0.5 h -0.5"
       style="fill:#172d2d;fill-opacity:1;fill-rule:nonzero;stroke:none;stroke-width:0.1"
       id="path551" /><path
       d="m 362.919,66.6078 h -31.243 v 12.1981 h 31.243 V 66.6078"
       style="fill:#ffffff;fill-opacity:1;fill-rule:nonzero;stroke:none;stroke-width:0.1"
       id="path553" /><path
       d="m 362.919,66.6078 v 0.5 h -30.743 v 11.1981 h 30.243 V 66.6078 h 0.5 v 0.5 -0.5 h 0.5 V 79.3059 H 331.176 V 66.1078 h 32.243 v 0.5 h -0.5"
       style="fill:#172d2d;fill-opacity:1;fill-rule:nonzero;stroke:none;stroke-width:0.1"
       id="path555" /><path
       d="m 379.877,42.8059 h -45.519 v 12.1992 h 45.519 V 42.8059"
       style="fill:#29bb89;fill-opacity:1;fill-rule:nonzero;stroke:none;stroke-width:0.1"
       id="path557" /><path
       d="m 379.877,42.8059 v 0.5 h -45.019 v 11.1992 h 44.519 V 42.8059 h 0.5 v 0.5 -0.5 h 0.5 V 55.5051 H 333.858 V 42.3059 h 46.519 v 0.5 h -0.5"
       style="fill:#172d2d;fill-opacity:1;fill-rule:nonzero;stroke:none;stroke-width:0.1"
       id="path559" /><path
       d="m 379.877,42.8059 h -31.243 v 12.1992 h 31.243 V 42.8059"
       style="fill:#29bb89;fill-opacity:1;fill-rule:nonzero;stroke:none;stroke-width:0.1"
       id="path561" /><path
       d="m 379.877,42.8059 v 0.5 h -30.743 v 11.1992 h 30.243 V 42.8059 h 0.5 v 0.5 -0.5 h 0.5 V 55.5051 H 348.134 V 42.3059 h 32.243 v 0.5 h -0.5"
       style="fill:#172d2d;fill-opacity:1;fill-rule:nonzero;stroke:none;stroke-width:0.1"
       id="path563" /><path
       d="m 379.877,54.707 h -45.519 v 12.1981 h 45.519 V 54.707"
       style="fill:#ffffff;fill-opacity:1;fill-rule:nonzero;stroke:none;stroke-width:0.1"
       id="path565" /><path
       d="m 379.877,54.707 v 0.5 h -45.019 v 11.1981 h 44.519 V 54.707 h 0.5 v 0.5 -0.5 h 0.5 V 67.4051 H 333.858 V 54.207 h 46.519 v 0.5 h -0.5"
       style="fill:#172d2d;fill-opacity:1;fill-rule:nonzero;stroke:none;stroke-width:0.1"
       id="path567" /><path
       d="m 379.877,54.707 h -31.243 v 12.1981 h 31.243 V 54.707"
       style="fill:#ffffff;fill-opacity:1;fill-rule:nonzero;stroke:none;stroke-width:0.1"
       id="path569" /><path
       d="m 379.877,54.707 v 0.5 h -30.743 v 11.1981 h 30.243 V 54.707 h 0.5 v 0.5 -0.5 h 0.5 V 67.4051 H 348.134 V 54.207 h 32.243 v 0.5 h -0.5"
       style="fill:#172d2d;fill-opacity:1;fill-rule:nonzero;stroke:none;stroke-width:0.1"
       id="path571" /><path
       d="m 379.877,66.6078 h -45.519 v 12.1981 h 45.519 V 66.6078"
       style="fill:#7d8082;fill-opacity:1;fill-rule:nonzero;stroke:none;stroke-width:0.1"
       id="path573" /><path
       d="m 379.877,66.6078 v 0.5 h -45.019 v 11.1981 h 44.519 V 66.6078 h 0.5 v 0.5 -0.5 h 0.5 V 79.3059 H 333.858 V 66.1078 h 46.519 v 0.5 h -0.5"
       style="fill:#172d2d;fill-opacity:1;fill-rule:nonzero;stroke:none;stroke-width:0.1"
       id="path575" /><path
       d="m 379.877,66.6078 h -31.243 v 12.1981 h 31.243 V 66.6078"
       style="fill:#7d8082;fill-opacity:1;fill-rule:nonzero;stroke:none;stroke-width:0.1"
       id="path577" /><path
       d="m 379.877,66.6078 v 0.5 h -30.743 v 11.1981 h 30.243 V 66.6078 h 0.5 v 0.5 -0.5 h 0.5 V 79.3059 H 348.134 V 66.1078 h 32.243 v 0.5 h -0.5"
       style="fill:#172d2d;fill-opacity:1;fill-rule:nonzero;stroke:none;stroke-width:0.1"
       id="path579" /><path
       d="m 396.836,42.8059 h -45.52 v 12.1992 h 45.52 V 42.8059"
       style="fill:#b7bab8;fill-opacity:1;fill-rule:nonzero;stroke:none;stroke-width:0.1"
       id="path581" /><path
       d="m 396.836,42.8059 v 0.5 h -45.02 v 11.1992 h 44.52 V 42.8059 h 0.5 v 0.5 -0.5 h 0.5 v 12.6992 h -46.52 V 42.3059 h 46.52 v 0.5 h -0.5"
       style="fill:#172d2d;fill-opacity:1;fill-rule:nonzero;stroke:none;stroke-width:0.1"
       id="path583" /><path
       d="m 396.836,42.8059 h -31.244 v 12.1992 h 31.244 V 42.8059"
       style="fill:#b7bab8;fill-opacity:1;fill-rule:nonzero;stroke:none;stroke-width:0.1"
       id="path585" /><path
       d="m 396.836,42.8059 v 0.5 h -30.744 v 11.1992 h 30.244 V 42.8059 h 0.5 v 0.5 -0.5 h 0.5 V 55.5051 H 365.092 V 42.3059 h 32.244 v 0.5 h -0.5"
       style="fill:#172d2d;fill-opacity:1;fill-rule:nonzero;stroke:none;stroke-width:0.1"
       id="path587" /><path
       d="m 396.836,54.707 h -45.52 v 12.1981 h 45.52 V 54.707"
       style="fill:#29bb89;fill-opacity:1;fill-rule:nonzero;stroke:none;stroke-width:0.1"
       id="path589" /><path
       d="m 396.836,54.707 v 0.5 h -45.02 v 11.1981 h 44.52 V 54.707 h 0.5 v 0.5 -0.5 h 0.5 v 12.6981 h -46.52 V 54.207 h 46.52 v 0.5 h -0.5"
       style="fill:#172d2d;fill-opacity:1;fill-rule:nonzero;stroke:none;stroke-width:0.1"
       id="path591" /><path
       d="m 396.836,54.707 h -31.244 v 12.1981 h 31.244 V 54.707"
       style="fill:#29bb89;fill-opacity:1;fill-rule:nonzero;stroke:none;stroke-width:0.1"
       id="path593" /><path
       d="m 396.836,54.707 v 0.5 h -30.744 v 11.1981 h 30.244 V 54.707 h 0.5 v 0.5 -0.5 h 0.5 V 67.4051 H 365.092 V 54.207 h 32.244 v 0.5 h -0.5"
       style="fill:#172d2d;fill-opacity:1;fill-rule:nonzero;stroke:none;stroke-width:0.1"
       id="path595" /><path
       d="m 396.836,66.6078 h -45.52 v 12.1981 h 45.52 V 66.6078"
       style="fill:#ffffff;fill-opacity:1;fill-rule:nonzero;stroke:none;stroke-width:0.1"
       id="path597" /><path
       d="m 396.836,66.6078 v 0.5 h -45.02 v 11.1981 h 44.52 V 66.6078 h 0.5 v 0.5 -0.5 h 0.5 v 12.6981 h -46.52 V 66.1078 h 46.52 v 0.5 h -0.5"
       style="fill:#172d2d;fill-opacity:1;fill-rule:nonzero;stroke:none;stroke-width:0.1"
       id="path599" /><path
       d="m 396.836,66.6078 h -31.244 v 12.1981 h 31.244 V 66.6078"
       style="fill:#ffffff;fill-opacity:1;fill-rule:nonzero;stroke:none;stroke-width:0.1"
       id="path601" /><path
       d="m 396.836,66.6078 v 0.5 h -30.744 v 11.1981 h 30.244 V 66.6078 h 0.5 v 0.5 -0.5 h 0.5 V 79.3059 H 365.092 V 66.1078 h 32.244 v 0.5 h -0.5"
       style="fill:#172d2d;fill-opacity:1;fill-rule:nonzero;stroke:none;stroke-width:0.1"
       id="path603" /><path
       d="m 318.459,176.703 h -27.784 v 5.27 h 27.784 v -5.27"
       style="fill:#29bb89;fill-opacity:1;fill-rule:nonzero;stroke:none;stroke-width:0.1"
       id="path605" /><path
       d="m 318.459,176.703 v 0.5 h -27.284 v 4.27 h 26.784 v -4.77 h 0.5 v 0.5 -0.5 h 0.5 v 5.77 h -28.784 v -6.27 h 28.784 v 0.5 h -0.5"
       style="fill:#172d2d;fill-opacity:1;fill-rule:nonzero;stroke:none;stroke-width:0.1"
       id="path607" /><path
       d="m 350.076,176.703 h -27.785 v 5.27 h 27.785 v -5.27"
       style="fill:#29bb89;fill-opacity:1;fill-rule:nonzero;stroke:none;stroke-width:0.1"
       id="path609" /><path
       d="m 350.076,176.703 v 0.5 h -27.285 v 4.27 h 26.785 v -4.77 h 0.5 v 0.5 -0.5 h 0.5 v 5.77 h -28.785 v -6.27 h 28.785 v 0.5 h -0.5"
       style="fill:#172d2d;fill-opacity:1;fill-rule:nonzero;stroke:none;stroke-width:0.1"
       id="path611" /><path
       d="m 513.909,176.703 h -27.784 v 5.27 h 27.784 v -5.27"
       style="fill:#29bb89;fill-opacity:1;fill-rule:nonzero;stroke:none;stroke-width:0.1"
       id="path613" /><path
       d="m 513.909,176.703 v 0.5 h -27.284 v 4.27 h 26.784 v -4.77 h 0.5 v 0.5 -0.5 h 0.5 v 5.77 h -28.784 v -6.27 h 28.784 v 0.5 h -0.5"
       style="fill:#172d2d;fill-opacity:1;fill-rule:nonzero;stroke:none;stroke-width:0.1"
       id="path615" /><path
       d="m 545.527,176.703 h -27.785 v 5.27 h 27.785 v -5.27"
       style="fill:#29bb89;fill-opacity:1;fill-rule:nonzero;stroke:none;stroke-width:0.1"
       id="path617" /><path
       d="m 545.527,176.703 v 0.5 h -27.285 v 4.27 h 26.785 v -4.77 h 0.5 v 0.5 -0.5 h 0.5 v 5.77 h -28.785 v -6.27 h 28.785 v 0.5 h -0.5"
       style="fill:#172d2d;fill-opacity:1;fill-rule:nonzero;stroke:none;stroke-width:0.1"
       id="path619" /><path
       d="M 551.454,101.3 H 500.323 V 46.007 h 51.131 V 101.3"
       style="fill:#ffffff;fill-opacity:1;fill-rule:nonzero;stroke:none;stroke-width:0.1"
       id="path621" /><path
       d="m 551.454,101.3 v 0.5 H 499.823 V 45.507 h 52.131 V 101.8 h -0.5 v -0.5 h -0.5 V 46.507 H 500.823 V 100.8 h 50.631 v 0.5 h -0.5 0.5"
       style="fill:#172d2d;fill-opacity:1;fill-rule:nonzero;stroke:none;stroke-width:0.1"
       id="path623" /><path
       d="M 551.454,97.8609 H 500.323 V 42.5691 h 51.131 v 55.2918"
       style="fill:#ffffff;fill-opacity:1;fill-rule:nonzero;stroke:none;stroke-width:0.1"
       id="path625" /><path
       d="m 551.454,97.8609 v 0.5 H 499.823 V 42.0691 h 52.131 v 56.2918 h -0.5 v -0.5 h -0.5 V 43.0691 h -50.131 v 54.2918 h 50.631 v 0.5 h -0.5 0.5"
       style="fill:#172d2d;fill-opacity:1;fill-rule:nonzero;stroke:none;stroke-width:0.1"
       id="path627" /><path
       d="m 508.741,43.1641 h 1 v 54.102 h -1 z"
       style="fill:#172d2d;fill-opacity:1;fill-rule:nonzero;stroke:none;stroke-width:0.1"
       id="path629" /><path
       d="m 514.687,43.1641 h 1 v 54.102 h -1 z"
       style="fill:#172d2d;fill-opacity:1;fill-rule:nonzero;stroke:none;stroke-width:0.1"
       id="path631" /><path
       d="m 508.927,93.4281 h 5.69102 v 1 H 508.927 Z"
       style="fill:#172d2d;fill-opacity:1;fill-rule:nonzero;stroke:none;stroke-width:0.1"
       id="path633" /><path
       d="m 508.927,88.591 h 5.69102 v 1 H 508.927 Z"
       style="fill:#172d2d;fill-opacity:1;fill-rule:nonzero;stroke:none;stroke-width:0.1"
       id="path635" /><path
       d="m 508.927,83.7531 h 5.69102 v 1 H 508.927 Z"
       style="fill:#172d2d;fill-opacity:1;fill-rule:nonzero;stroke:none;stroke-width:0.1"
       id="path637" /><path
       d="m 508.927,78.9148 h 5.69102 v 1 H 508.927 Z"
       style="fill:#172d2d;fill-opacity:1;fill-rule:nonzero;stroke:none;stroke-width:0.1"
       id="path639" /><path
       d="m 508.927,74.0781 h 5.69102 v 1 H 508.927 Z"
       style="fill:#172d2d;fill-opacity:1;fill-rule:nonzero;stroke:none;stroke-width:0.1"
       id="path641" /><path
       d="m 508.927,69.2398 h 5.69102 v 1 H 508.927 Z"
       style="fill:#172d2d;fill-opacity:1;fill-rule:nonzero;stroke:none;stroke-width:0.1"
       id="path643" /><path
       d="m 508.927,64.402 h 5.69102 v 1 H 508.927 Z"
       style="fill:#172d2d;fill-opacity:1;fill-rule:nonzero;stroke:none;stroke-width:0.1"
       id="path645" /><path
       d="m 508.927,59.5648 h 5.69102 v 1 H 508.927 Z"
       style="fill:#172d2d;fill-opacity:1;fill-rule:nonzero;stroke:none;stroke-width:0.1"
       id="path647" /><path
       d="m 508.927,54.727 h 5.69102 v 1 H 508.927 Z"
       style="fill:#172d2d;fill-opacity:1;fill-rule:nonzero;stroke:none;stroke-width:0.1"
       id="path649" /><path
       d="m 508.927,49.8891 h 5.69102 v 1 H 508.927 Z"
       style="fill:#172d2d;fill-opacity:1;fill-rule:nonzero;stroke:none;stroke-width:0.1"
       id="path651" /><path
       d="m 508.927,45.0531 h 5.69102 v 1 H 508.927 Z"
       style="fill:#172d2d;fill-opacity:1;fill-rule:nonzero;stroke:none;stroke-width:0.1"
       id="path653" /><path
       d="M 657.791,85.7102 H 534.031 V 42.1648 h 123.76 v 43.5454"
       style="fill:#29bb89;fill-opacity:1;fill-rule:nonzero;stroke:none;stroke-width:0.1"
       id="path655" /><path
       d="m 657.791,85.7102 v 0.5 H 533.531 V 41.6648 h 124.76 v 44.5454 h -0.5 v -0.5 h -0.5 V 42.6648 h -122.76 v 42.5454 h 123.26 v 0.5 h -0.5 0.5"
       style="fill:#172d2d;fill-opacity:1;fill-rule:nonzero;stroke:none;stroke-width:0.1"
       id="path657" /><path
       d="m 657.791,85.7102 h -24.73 V 42.1648 h 24.73 v 43.5454"
       style="fill:#29bb89;fill-opacity:1;fill-rule:nonzero;stroke:none;stroke-width:0.1"
       id="path659" /><path
       d="m 657.791,85.7102 v 0.5 h -25.23 V 41.6648 h 25.73 v 44.5454 h -0.5 v -0.5 h -0.5 V 42.6648 h -23.73 v 42.5454 h 24.23 v 0.5 h -0.5 0.5"
       style="fill:#172d2d;fill-opacity:1;fill-rule:nonzero;stroke:none;stroke-width:0.1"
       id="path661" /><path
       d="M 661.802,93.8922 H 530.02 V 68.5211 h 131.782 v 25.3711"
       style="fill:#b7bab8;fill-opacity:1;fill-rule:nonzero;stroke:none;stroke-width:0.1"
       id="path663" /><path
       d="m 661.802,93.8922 v 0.5 H 529.52 V 68.0211 h 132.782 v 26.3711 h -0.5 v -0.5 h -0.5 V 69.0211 H 530.52 v 24.3711 h 131.282 v 0.5 h -0.5 0.5"
       style="fill:#172d2d;fill-opacity:1;fill-rule:nonzero;stroke:none;stroke-width:0.1"
       id="path665" /><path
       d="M 661.802,93.8922 H 633.168 V 68.5211 h 28.634 v 25.3711"
       style="fill:#172d2d;fill-opacity:1;fill-rule:nonzero;stroke:none;stroke-width:0.1"
       id="path667" /><path
       d="m 661.802,93.8922 v 0.5 H 632.668 V 68.0211 h 29.634 v 26.3711 h -0.5 v -0.5 h -0.5 V 69.0211 h -27.634 v 24.3711 h 28.134 v 0.5 h -0.5 0.5"
       style="fill:#172d2d;fill-opacity:1;fill-rule:nonzero;stroke:none;stroke-width:0.1"
       id="path669" /><path
       d="m 550.647,53.6238 h -10.314 v 10.3133 h 10.314 V 53.6238"
       style="fill:#172d2d;fill-opacity:1;fill-rule:nonzero;stroke:none;stroke-width:0.1"
       id="path671" /><path
       d="m 550.647,53.6238 v 0.5 h -9.814 v 9.3133 h 9.314 v -9.8133 h 0.5 v 0.5 -0.5 h 0.5 V 64.4371 H 539.833 V 53.1238 h 11.314 v 0.5 h -0.5"
       style="fill:#172d2d;fill-opacity:1;fill-rule:nonzero;stroke:none;stroke-width:0.1"
       id="path673" /><path
       d="M 611.953,53.6238 H 601.64 v 10.3133 h 10.313 V 53.6238"
       style="fill:#172d2d;fill-opacity:1;fill-rule:nonzero;stroke:none;stroke-width:0.1"
       id="path675" /><path
       d="m 611.953,53.6238 v 0.5 h -9.813 v 9.3133 h 9.313 v -9.8133 h 0.5 v 0.5 -0.5 h 0.5 V 64.4371 H 601.14 V 53.1238 h 11.313 v 0.5 h -0.5"
       style="fill:#172d2d;fill-opacity:1;fill-rule:nonzero;stroke:none;stroke-width:0.1"
       id="path677" /><path
       d="m 579.867,42.1648 h -10.313 v 21.7723 h 10.313 V 42.1648"
       style="fill:#172d2d;fill-opacity:1;fill-rule:nonzero;stroke:none;stroke-width:0.1"
       id="path679" /><path
       d="m 579.867,42.1648 v 0.5 h -9.813 v 20.7723 h 9.313 V 42.1648 h 0.5 v 0.5 -0.5 h 0.5 V 64.4371 H 569.054 V 41.6648 h 11.313 v 0.5 h -0.5"
       style="fill:#172d2d;fill-opacity:1;fill-rule:nonzero;stroke:none;stroke-width:0.1"
       id="path681" /><path
       d="m 476.555,24.2879 h 19.2641 v 1 H 476.555 Z"
       style="fill:#172d2d;fill-opacity:1;fill-rule:nonzero;stroke:none;stroke-width:0.1"
       id="path683" /><path
       d="m 509.219,23.45 h 62.8141 v 1 H 509.219 Z"
       style="fill:#172d2d;fill-opacity:1;fill-rule:nonzero;stroke:none;stroke-width:0.1"
       id="path685" /><path
       d="M 3.90625e-4,31.8262 H 715.25139 v 1 H 3.90625e-4 Z"
       style="fill:#172d2d;fill-opacity:1;fill-rule:nonzero;stroke:none;stroke-width:0.1"
       id="path687" /><path
       d="m 53.602,16.75 h 49.4141 v 1 H 53.602 Z"
       style="fill:#172d2d;fill-opacity:1;fill-rule:nonzero;stroke:none;stroke-width:0.1"
       id="path689" /><path
       d="m 135.68,23.45 h 129.817 v 1 H 135.68 Z"
       style="fill:#172d2d;fill-opacity:1;fill-rule:nonzero;stroke:none;stroke-width:0.1"
       id="path691" /><path
       d="m 201.845,16.75 h 36.0141 v 1 H 201.845 Z"
       style="fill:#172d2d;fill-opacity:1;fill-rule:nonzero;stroke:none;stroke-width:0.1"
       id="path693" /><path
       d="m 126.467,15.075 h 17.5879 v 1 H 126.467 Z"
       style="fill:#172d2d;fill-opacity:1;fill-rule:nonzero;stroke:none;stroke-width:0.1"
       id="path695" /><path
       d="m 317.424,25.1262 h 41.0387 v 1 H 317.424 Z"
       style="fill:#172d2d;fill-opacity:1;fill-rule:nonzero;stroke:none;stroke-width:0.1"
       id="path697" /><path
       d="m 288.948,15.9129 h 58.627 v 1 h -58.627 z"
       style="fill:#172d2d;fill-opacity:1;fill-rule:nonzero;stroke:none;stroke-width:0.1"
       id="path699" /><path
       d="m 391.127,20.1 h 52.7641 v 1 H 391.127 Z"
       style="fill:#172d2d;fill-opacity:1;fill-rule:nonzero;stroke:none;stroke-width:0.1"
       id="path701" /><path
       d="m 447.241,10.8879 h 51.927 v 1 h -51.927 z"
       style="fill:#172d2d;fill-opacity:1;fill-rule:nonzero;stroke:none;stroke-width:0.1"
       id="path703" /><path
       d="m 340.875,0.837109 h 50.252 v 1 h -50.252 z"
       style="fill:#172d2d;fill-opacity:1;fill-rule:nonzero;stroke:none;stroke-width:0.1"
       id="path705" /><path
       d="m 541.882,12.5621 h 25.1262 v 1 H 541.882 Z"
       style="fill:#172d2d;fill-opacity:1;fill-rule:nonzero;stroke:none;stroke-width:0.1"
       id="path707" /><path
       d="m 587.109,20.1 h 51.0891 v 1 H 587.109 Z"
       style="fill:#172d2d;fill-opacity:1;fill-rule:nonzero;stroke:none;stroke-width:0.1"
       id="path709" /><path
       d="m 586.272,4.18711 h 41.8762 v 1 H 586.272 Z"
       style="fill:#172d2d;fill-opacity:1;fill-rule:nonzero;stroke:none;stroke-width:0.1"
       id="path711" /><path
       d="m 636.524,10.8879 h 19.2621 v 1 H 636.524 Z"
       style="fill:#172d2d;fill-opacity:1;fill-rule:nonzero;stroke:none;stroke-width:0.1"
       id="path713" /><path
       d="m 664.999,17.5879 h 30.152 v 1 h -30.152 z"
       style="fill:#172d2d;fill-opacity:1;fill-rule:nonzero;stroke:none;stroke-width:0.1"
       id="path715" /><path
       d="m 156.618,6.7 h 21.7762 v 1 H 156.618 Z"
       style="fill:#172d2d;fill-opacity:1;fill-rule:nonzero;stroke:none;stroke-width:0.1"
       id="path717" /><path
       d="m 30.9887,16.75 h 10.8879 v 1 H 30.9887 Z"
       style="fill:#172d2d;fill-opacity:1;fill-rule:nonzero;stroke:none;stroke-width:0.1"
       id="path719" /><path
       d="M 44.3895,0 H 99.6661 V 1 H 44.3895 Z"
       style="fill:#172d2d;fill-opacity:1;fill-rule:nonzero;stroke:none;stroke-width:0.1"
       id="path721" /></g></svg>
