<?xml version="1.0" encoding="utf-8"?>
<!-- Generator: Adobe Illustrator 21.0.0, SVG Export Plug-In . SVG Version: 6.00 Build 0)  -->
<svg version="1.1" id="Layer_1" xmlns="http://www.w3.org/2000/svg" xmlns:xlink="http://www.w3.org/1999/xlink" x="0px" y="0px"
	 width="1400px" height="980px" viewBox="0 0 1400 980" enable-background="new 0 0 1400 980" xml:space="preserve">
<g>
	<ellipse fill="#21CFA7" cx="718.7" cy="363.6" rx="286.5" ry="278"/>
	<polygon fill="#23B08F" points="903.4,311 903.4,366.9 896.3,366.9 896.3,171.5 900.5,171.5 900.5,162.4 883.7,162.4 883.7,159.1 
		893.8,159.1 893.8,156.5 883.7,156.5 883.7,153.5 891.2,153.5 891.2,150.9 883.7,150.9 883.7,147.8 888.2,147.8 888.2,145.2 
		883.7,145.2 883.7,121.2 881.6,121.2 881.6,145.2 877.1,145.2 877.1,147.8 881.6,147.8 881.6,150.9 874.1,150.9 874.1,153.5 
		881.6,153.5 881.6,156.5 871.5,156.5 871.5,159.1 881.6,159.1 881.6,162.4 864.8,162.4 864.8,171.5 871.1,171.5 871.1,366.9 
		862.5,366.9 862.5,289.3 792.4,256 792.4,366.9 788.9,366.9 788.9,289.3 718.7,256 718.7,366.9 684.1,366.9 684.1,332 684.1,276.9 
		589.9,276.9 589.9,332 575.6,332 575.6,203.3 545.1,203.3 545.1,332 526.5,332 526.5,256 432.2,256 432.2,470.5 511.9,470.5 
		526.5,470.5 545.1,470.5 575.6,470.5 589.9,470.5 606.1,470.5 671.6,470.5 684.1,470.5 903.4,470.5 984.7,470.5 984.7,311 	"/>
	<g>
		<polygon fill="#27C29E" points="559,470.5 620.8,470.5 620.8,203.3 559,230.4 		"/>
		<polygon fill="#27C29E" points="816.4,470.5 880.5,470.5 880.5,221.6 816.4,193.4 		"/>
		<polygon fill="#27C29E" points="752.1,220.3 732.6,220.3 732.6,301.7 703,301.7 703,191.9 641.2,191.9 641.2,470.5 697.1,470.5 
			703,470.5 732.6,470.5 752.1,470.5 768.1,470.5 768.1,301.7 752.1,301.7 		"/>
		<rect x="779.1" y="220.3" fill="#27C29E" width="19.5" height="250.2"/>
		<rect x="497.8" y="272.3" fill="#27C29E" width="47.3" height="198.2"/>
		<rect x="437.3" y="203.3" fill="#27C29E" width="47.3" height="267.2"/>
		<polygon fill="#27C29E" points="953,366.9 953,221.9 933.4,221.9 933.4,366.9 911.2,366.9 911.2,221.9 891.7,221.9 891.7,366.9 
			891.7,470.5 911.2,470.5 933.4,470.5 953,470.5 1014.2,470.5 1014.2,366.9 		"/>
	</g>
	<circle fill="#EAC23F" cx="572.5" cy="139.6" r="44.8"/>
	<path fill="#7ED9E6" d="M289,477.4L289,477.4c0,230.3,192.4,416.9,429.8,416.9c237.3,0,429.7-186.7,429.7-416.9l0,0H289z"/>
	<path fill="#50C4D4" d="M1069.7,718.1c14.8-20.2,27.7-41.8,38.7-64.5H329.1c10.9,22.7,23.9,44.3,38.7,64.5H1069.7z"/>
	<path fill="#4BB8C7" d="M409.2,766.6c24.4,24.6,51.9,46.3,81.9,64.5h455.2c30-18.2,57.5-39.9,81.9-64.5H409.2z"/>
	<path fill="#54CEDE" d="M1128,607.2c6.9-20.8,12.2-42.4,15.6-64.5H293.9c3.5,22.1,8.7,43.7,15.6,64.5H1128z"/>
	<g>
		<g>
			<rect x="830.6" y="409.3" fill="#B8B094" width="151" height="61.2"/>
			<g>
				<path fill="#D9CFAE" d="M840.6,464.7c0,1.4-1.1,2.5-2.5,2.5l0,0c-1.4,0-2.5-1.1-2.5-2.5v-49.6c0-1.4,1.1-2.5,2.5-2.5l0,0
					c1.4,0,2.5,1.1,2.5,2.5V464.7z"/>
				<path fill="#D9CFAE" d="M850.3,464.7c0,1.4-1.1,2.5-2.5,2.5l0,0c-1.4,0-2.5-1.1-2.5-2.5v-49.6c0-1.4,1.1-2.5,2.5-2.5l0,0
					c1.4,0,2.5,1.1,2.5,2.5V464.7z"/>
				<path fill="#D9CFAE" d="M860,464.7c0,1.4-1.1,2.5-2.5,2.5l0,0c-1.4,0-2.5-1.1-2.5-2.5v-49.6c0-1.4,1.1-2.5,2.5-2.5l0,0
					c1.4,0,2.5,1.1,2.5,2.5V464.7z"/>
				<path fill="#D9CFAE" d="M869.7,464.7c0,1.4-1.1,2.5-2.5,2.5l0,0c-1.4,0-2.5-1.1-2.5-2.5v-49.6c0-1.4,1.1-2.5,2.5-2.5l0,0
					c1.4,0,2.5,1.1,2.5,2.5V464.7z"/>
				<path fill="#D9CFAE" d="M879.4,464.7c0,1.4-1.1,2.5-2.5,2.5l0,0c-1.4,0-2.5-1.1-2.5-2.5v-49.6c0-1.4,1.1-2.5,2.5-2.5l0,0
					c1.4,0,2.5,1.1,2.5,2.5V464.7z"/>
				<path fill="#D9CFAE" d="M889.2,464.7c0,1.4-1.1,2.5-2.5,2.5l0,0c-1.4,0-2.5-1.1-2.5-2.5v-49.6c0-1.4,1.1-2.5,2.5-2.5l0,0
					c1.4,0,2.5,1.1,2.5,2.5V464.7z"/>
				<path fill="#D9CFAE" d="M898.9,464.7c0,1.4-1.1,2.5-2.5,2.5l0,0c-1.4,0-2.5-1.1-2.5-2.5v-49.6c0-1.4,1.1-2.5,2.5-2.5l0,0
					c1.4,0,2.5,1.1,2.5,2.5V464.7z"/>
				<path fill="#D9CFAE" d="M908.6,464.7c0,1.4-1.1,2.5-2.5,2.5l0,0c-1.4,0-2.5-1.1-2.5-2.5v-49.6c0-1.4,1.1-2.5,2.5-2.5l0,0
					c1.4,0,2.5,1.1,2.5,2.5V464.7z"/>
				<path fill="#D9CFAE" d="M918.3,464.7c0,1.4-1.1,2.5-2.5,2.5l0,0c-1.4,0-2.5-1.1-2.5-2.5v-49.6c0-1.4,1.1-2.5,2.5-2.5l0,0
					c1.4,0,2.5,1.1,2.5,2.5V464.7z"/>
				<path fill="#D9CFAE" d="M928,464.7c0,1.4-1.1,2.5-2.5,2.5l0,0c-1.4,0-2.5-1.1-2.5-2.5v-49.6c0-1.4,1.1-2.5,2.5-2.5l0,0
					c1.4,0,2.5,1.1,2.5,2.5V464.7z"/>
				<path fill="#D9CFAE" d="M937.7,464.7c0,1.4-1.1,2.5-2.5,2.5l0,0c-1.4,0-2.5-1.1-2.5-2.5v-49.6c0-1.4,1.1-2.5,2.5-2.5l0,0
					c1.4,0,2.5,1.1,2.5,2.5V464.7z"/>
				<path fill="#D9CFAE" d="M947.4,464.7c0,1.4-1.1,2.5-2.5,2.5l0,0c-1.4,0-2.5-1.1-2.5-2.5v-49.6c0-1.4,1.1-2.5,2.5-2.5l0,0
					c1.4,0,2.5,1.1,2.5,2.5V464.7z"/>
				<path fill="#D9CFAE" d="M957.1,464.7c0,1.4-1.1,2.5-2.5,2.5l0,0c-1.4,0-2.5-1.1-2.5-2.5v-49.6c0-1.4,1.1-2.5,2.5-2.5l0,0
					c1.4,0,2.5,1.1,2.5,2.5V464.7z"/>
				<path fill="#D9CFAE" d="M966.8,464.7c0,1.4-1.1,2.5-2.5,2.5l0,0c-1.4,0-2.5-1.1-2.5-2.5v-49.6c0-1.4,1.1-2.5,2.5-2.5l0,0
					c1.4,0,2.5,1.1,2.5,2.5V464.7z"/>
				<path fill="#D9CFAE" d="M976.5,464.7c0,1.4-1.1,2.5-2.5,2.5l0,0c-1.4,0-2.5-1.1-2.5-2.5v-49.6c0-1.4,1.1-2.5,2.5-2.5l0,0
					c1.4,0,2.5,1.1,2.5,2.5V464.7z"/>
			</g>
			<rect x="830.6" y="409.3" fill="#A39C83" width="151" height="4.4"/>
			<rect x="830.6" y="466.1" fill="#A39C83" width="151" height="4.4"/>
		</g>
		<g>
			<rect x="983.4" y="409.3" fill="#E35240" width="151" height="61.2"/>
			<g>
				<path fill="#F26F5F" d="M993.5,464.7c0,1.4-1.1,2.5-2.5,2.5l0,0c-1.4,0-2.5-1.1-2.5-2.5v-49.6c0-1.4,1.1-2.5,2.5-2.5l0,0
					c1.4,0,2.5,1.1,2.5,2.5V464.7z"/>
				<path fill="#F26F5F" d="M1003.2,464.7c0,1.4-1.1,2.5-2.5,2.5l0,0c-1.4,0-2.5-1.1-2.5-2.5v-49.6c0-1.4,1.1-2.5,2.5-2.5l0,0
					c1.4,0,2.5,1.1,2.5,2.5V464.7z"/>
				<path fill="#F26F5F" d="M1012.9,464.7c0,1.4-1.1,2.5-2.5,2.5l0,0c-1.4,0-2.5-1.1-2.5-2.5v-49.6c0-1.4,1.1-2.5,2.5-2.5l0,0
					c1.4,0,2.5,1.1,2.5,2.5V464.7z"/>
				<path fill="#F26F5F" d="M1022.6,464.7c0,1.4-1.1,2.5-2.5,2.5l0,0c-1.4,0-2.5-1.1-2.5-2.5v-49.6c0-1.4,1.1-2.5,2.5-2.5l0,0
					c1.4,0,2.5,1.1,2.5,2.5V464.7z"/>
				<path fill="#F26F5F" d="M1032.3,464.7c0,1.4-1.1,2.5-2.5,2.5l0,0c-1.4,0-2.5-1.1-2.5-2.5v-49.6c0-1.4,1.1-2.5,2.5-2.5l0,0
					c1.4,0,2.5,1.1,2.5,2.5V464.7z"/>
				<path fill="#F26F5F" d="M1042,464.7c0,1.4-1.1,2.5-2.5,2.5l0,0c-1.4,0-2.5-1.1-2.5-2.5v-49.6c0-1.4,1.1-2.5,2.5-2.5l0,0
					c1.4,0,2.5,1.1,2.5,2.5V464.7z"/>
				<path fill="#F26F5F" d="M1051.7,464.7c0,1.4-1.1,2.5-2.5,2.5l0,0c-1.4,0-2.5-1.1-2.5-2.5v-49.6c0-1.4,1.1-2.5,2.5-2.5l0,0
					c1.4,0,2.5,1.1,2.5,2.5V464.7z"/>
				<path fill="#F26F5F" d="M1061.4,464.7c0,1.4-1.1,2.5-2.5,2.5l0,0c-1.4,0-2.5-1.1-2.5-2.5v-49.6c0-1.4,1.1-2.5,2.5-2.5l0,0
					c1.4,0,2.5,1.1,2.5,2.5V464.7z"/>
				<path fill="#F26F5F" d="M1071.1,464.7c0,1.4-1.1,2.5-2.5,2.5l0,0c-1.4,0-2.5-1.1-2.5-2.5v-49.6c0-1.4,1.1-2.5,2.5-2.5l0,0
					c1.4,0,2.5,1.1,2.5,2.5V464.7z"/>
				<path fill="#F26F5F" d="M1080.8,464.7c0,1.4-1.1,2.5-2.5,2.5l0,0c-1.4,0-2.5-1.1-2.5-2.5v-49.6c0-1.4,1.1-2.5,2.5-2.5l0,0
					c1.4,0,2.5,1.1,2.5,2.5V464.7z"/>
				<path fill="#F26F5F" d="M1090.5,464.7c0,1.4-1.1,2.5-2.5,2.5l0,0c-1.4,0-2.5-1.1-2.5-2.5v-49.6c0-1.4,1.1-2.5,2.5-2.5l0,0
					c1.4,0,2.5,1.1,2.5,2.5V464.7z"/>
				<path fill="#F26F5F" d="M1100.2,464.7c0,1.4-1.1,2.5-2.5,2.5l0,0c-1.4,0-2.5-1.1-2.5-2.5v-49.6c0-1.4,1.1-2.5,2.5-2.5l0,0
					c1.4,0,2.5,1.1,2.5,2.5V464.7z"/>
				<path fill="#F26F5F" d="M1109.9,464.7c0,1.4-1.1,2.5-2.5,2.5l0,0c-1.4,0-2.5-1.1-2.5-2.5v-49.6c0-1.4,1.1-2.5,2.5-2.5l0,0
					c1.4,0,2.5,1.1,2.5,2.5V464.7z"/>
				<path fill="#F26F5F" d="M1119.6,464.7c0,1.4-1.1,2.5-2.5,2.5l0,0c-1.4,0-2.5-1.1-2.5-2.5v-49.6c0-1.4,1.1-2.5,2.5-2.5l0,0
					c1.4,0,2.5,1.1,2.5,2.5V464.7z"/>
				<path fill="#F26F5F" d="M1129.3,464.7c0,1.4-1.1,2.5-2.5,2.5l0,0c-1.4,0-2.5-1.1-2.5-2.5v-49.6c0-1.4,1.1-2.5,2.5-2.5l0,0
					c1.4,0,2.5,1.1,2.5,2.5V464.7z"/>
			</g>
			<rect x="983.4" y="409.3" fill="#C75B4E" width="151" height="4.4"/>
			<rect x="983.4" y="466.1" fill="#C75B4E" width="151" height="4.4"/>
		</g>
		<g>
			<rect x="963.6" y="348.2" fill="#40A7E3" width="151" height="61.2"/>
			<g>
				<path fill="#7FBEE3" d="M973.7,403.5c0,1.4-1.1,2.5-2.5,2.5l0,0c-1.4,0-2.5-1.1-2.5-2.5V354c0-1.4,1.1-2.5,2.5-2.5l0,0
					c1.4,0,2.5,1.1,2.5,2.5V403.5z"/>
				<path fill="#7FBEE3" d="M983.4,403.5c0,1.4-1.1,2.5-2.5,2.5l0,0c-1.4,0-2.5-1.1-2.5-2.5V354c0-1.4,1.1-2.5,2.5-2.5l0,0
					c1.4,0,2.5,1.1,2.5,2.5V403.5z"/>
				<path fill="#7FBEE3" d="M993.1,403.5c0,1.4-1.1,2.5-2.5,2.5l0,0c-1.4,0-2.5-1.1-2.5-2.5V354c0-1.4,1.1-2.5,2.5-2.5l0,0
					c1.4,0,2.5,1.1,2.5,2.5V403.5z"/>
				<path fill="#7FBEE3" d="M1002.8,403.5c0,1.4-1.1,2.5-2.5,2.5l0,0c-1.4,0-2.5-1.1-2.5-2.5V354c0-1.4,1.1-2.5,2.5-2.5l0,0
					c1.4,0,2.5,1.1,2.5,2.5V403.5z"/>
				<path fill="#7FBEE3" d="M1012.5,403.5c0,1.4-1.1,2.5-2.5,2.5l0,0c-1.4,0-2.5-1.1-2.5-2.5V354c0-1.4,1.1-2.5,2.5-2.5l0,0
					c1.4,0,2.5,1.1,2.5,2.5V403.5z"/>
				<path fill="#7FBEE3" d="M1022.2,403.5c0,1.4-1.1,2.5-2.5,2.5l0,0c-1.4,0-2.5-1.1-2.5-2.5V354c0-1.4,1.1-2.5,2.5-2.5l0,0
					c1.4,0,2.5,1.1,2.5,2.5V403.5z"/>
				<path fill="#7FBEE3" d="M1031.9,403.5c0,1.4-1.1,2.5-2.5,2.5l0,0c-1.4,0-2.5-1.1-2.5-2.5V354c0-1.4,1.1-2.5,2.5-2.5l0,0
					c1.4,0,2.5,1.1,2.5,2.5V403.5z"/>
				<path fill="#7FBEE3" d="M1041.6,403.5c0,1.4-1.1,2.5-2.5,2.5l0,0c-1.4,0-2.5-1.1-2.5-2.5V354c0-1.4,1.1-2.5,2.5-2.5l0,0
					c1.4,0,2.5,1.1,2.5,2.5V403.5z"/>
				<path fill="#7FBEE3" d="M1051.3,403.5c0,1.4-1.1,2.5-2.5,2.5l0,0c-1.4,0-2.5-1.1-2.5-2.5V354c0-1.4,1.1-2.5,2.5-2.5l0,0
					c1.4,0,2.5,1.1,2.5,2.5V403.5z"/>
				<path fill="#7FBEE3" d="M1061,403.5c0,1.4-1.1,2.5-2.5,2.5l0,0c-1.4,0-2.5-1.1-2.5-2.5V354c0-1.4,1.1-2.5,2.5-2.5l0,0
					c1.4,0,2.5,1.1,2.5,2.5V403.5z"/>
				<path fill="#7FBEE3" d="M1070.7,403.5c0,1.4-1.1,2.5-2.5,2.5l0,0c-1.4,0-2.5-1.1-2.5-2.5V354c0-1.4,1.1-2.5,2.5-2.5l0,0
					c1.4,0,2.5,1.1,2.5,2.5V403.5z"/>
				<path fill="#7FBEE3" d="M1080.4,403.5c0,1.4-1.1,2.5-2.5,2.5l0,0c-1.4,0-2.5-1.1-2.5-2.5V354c0-1.4,1.1-2.5,2.5-2.5l0,0
					c1.4,0,2.5,1.1,2.5,2.5V403.5z"/>
				<path fill="#7FBEE3" d="M1090.1,403.5c0,1.4-1.1,2.5-2.5,2.5l0,0c-1.4,0-2.5-1.1-2.5-2.5V354c0-1.4,1.1-2.5,2.5-2.5l0,0
					c1.4,0,2.5,1.1,2.5,2.5V403.5z"/>
				<path fill="#7FBEE3" d="M1099.8,403.5c0,1.4-1.1,2.5-2.5,2.5l0,0c-1.4,0-2.5-1.1-2.5-2.5V354c0-1.4,1.1-2.5,2.5-2.5l0,0
					c1.4,0,2.5,1.1,2.5,2.5V403.5z"/>
				<path fill="#7FBEE3" d="M1109.5,403.5c0,1.4-1.1,2.5-2.5,2.5l0,0c-1.4,0-2.5-1.1-2.5-2.5V354c0-1.4,1.1-2.5,2.5-2.5l0,0
					c1.4,0,2.5,1.1,2.5,2.5V403.5z"/>
			</g>
			<rect x="963.6" y="348.2" fill="#3487B8" width="151" height="4.4"/>
			<rect x="963.6" y="404.9" fill="#3487B8" width="151" height="4.4"/>
		</g>
		<g>
			<rect x="904.8" y="348.2" fill="#36BF6D" width="57" height="61.2"/>
			<g>
				<path fill="#91DBAF" d="M916.4,403.5c0,1.4-1.1,2.5-2.5,2.5l0,0c-1.4,0-2.5-1.1-2.5-2.5V354c0-1.4,1.1-2.5,2.5-2.5l0,0
					c1.4,0,2.5,1.1,2.5,2.5V403.5z"/>
				<path fill="#91DBAF" d="M926.1,403.5c0,1.4-1.1,2.5-2.5,2.5l0,0c-1.4,0-2.5-1.1-2.5-2.5V354c0-1.4,1.1-2.5,2.5-2.5l0,0
					c1.4,0,2.5,1.1,2.5,2.5V403.5z"/>
				<path fill="#91DBAF" d="M935.8,403.5c0,1.4-1.1,2.5-2.5,2.5l0,0c-1.4,0-2.5-1.1-2.5-2.5V354c0-1.4,1.1-2.5,2.5-2.5l0,0
					c1.4,0,2.5,1.1,2.5,2.5V403.5z"/>
				<path fill="#91DBAF" d="M945.5,403.5c0,1.4-1.1,2.5-2.5,2.5l0,0c-1.4,0-2.5-1.1-2.5-2.5V354c0-1.4,1.1-2.5,2.5-2.5l0,0
					c1.4,0,2.5,1.1,2.5,2.5V403.5z"/>
				<path fill="#91DBAF" d="M955.2,403.5c0,1.4-1.1,2.5-2.5,2.5l0,0c-1.4,0-2.5-1.1-2.5-2.5V354c0-1.4,1.1-2.5,2.5-2.5l0,0
					c1.4,0,2.5,1.1,2.5,2.5V403.5z"/>
			</g>
			<rect x="904.8" y="348.2" fill="#2B9656" width="57" height="4.4"/>
			<rect x="904.8" y="404.9" fill="#2B9656" width="57" height="4.4"/>
		</g>
		<g>
			<rect x="845.9" y="348.2" fill="#C9C539" width="57" height="61.2"/>
			<g>
				<path fill="#E6E383" d="M857.5,403.5c0,1.4-1.1,2.5-2.5,2.5l0,0c-1.4,0-2.5-1.1-2.5-2.5V354c0-1.4,1.1-2.5,2.5-2.5l0,0
					c1.4,0,2.5,1.1,2.5,2.5V403.5z"/>
				<path fill="#E6E383" d="M867.2,403.5c0,1.4-1.1,2.5-2.5,2.5l0,0c-1.4,0-2.5-1.1-2.5-2.5V354c0-1.4,1.1-2.5,2.5-2.5l0,0
					c1.4,0,2.5,1.1,2.5,2.5V403.5z"/>
				<path fill="#E6E383" d="M876.9,403.5c0,1.4-1.1,2.5-2.5,2.5l0,0c-1.4,0-2.5-1.1-2.5-2.5V354c0-1.4,1.1-2.5,2.5-2.5l0,0
					c1.4,0,2.5,1.1,2.5,2.5V403.5z"/>
				<path fill="#E6E383" d="M886.6,403.5c0,1.4-1.1,2.5-2.5,2.5l0,0c-1.4,0-2.5-1.1-2.5-2.5V354c0-1.4,1.1-2.5,2.5-2.5l0,0
					c1.4,0,2.5,1.1,2.5,2.5V403.5z"/>
				<path fill="#E6E383" d="M896.3,403.5c0,1.4-1.1,2.5-2.5,2.5l0,0c-1.4,0-2.5-1.1-2.5-2.5V354c0-1.4,1.1-2.5,2.5-2.5l0,0
					c1.4,0,2.5,1.1,2.5,2.5V403.5z"/>
			</g>
			<rect x="845.9" y="348.2" fill="#A8A530" width="57" height="4.4"/>
			<rect x="845.9" y="404.9" fill="#A8A530" width="57" height="4.4"/>
		</g>
	</g>
	<g>
		<rect x="271.7" y="470.5" fill="#787361" width="894.2" height="6.9"/>
		<rect x="701.9" y="534.2" fill="#787361" width="463.9" height="8.4"/>
		<path fill="#787361" d="M864.8,474v3.5h4c15.7,0,28.4,12.7,28.4,28.4c0,15.7-12.7,28.4-28.4,28.4h-4v4.2h301V474H864.8z"/>
	</g>
	<g>
		<g>
			<path fill="#944F32" d="M790.2,453.5h-2V233l8.8-9.2l0.6,0.2c103.5,28.8,135.1,18.6,135.4,18.5l0.7,1.9
				c-1.3,0.4-32.1,10.5-136-18.3l-7.4,7.8V453.5z"/>
		</g>
		<circle fill="#6B3924" cx="797.3" cy="226.9" r="3"/>
		<circle fill="#6B3924" cx="792.2" cy="233.4" r="3"/>
		<g>
			<polygon fill="#944F32" points="908.6,300 905.3,297.2 931.2,246.2 932.9,247.1 907.8,296.7 908,296.9 936.7,247.9 938.4,248.9 
							"/>
		</g>
		<polygon fill="#4A2719" points="955.7,348.3 792.2,233.6 797.1,226.9 957.5,326.1 		"/>
		<path fill="#4A2719" d="M1014.6,271.4c-0.8,2.4-3.4,3.8-5.9,3l-76.1-25c-2.4-0.8-3.8-3.4-3-5.9l0,0c0.8-2.4,3.4-3.8,5.9-3l76.1,25
			C1014,266.3,1015.4,269,1014.6,271.4L1014.6,271.4z"/>
		<g>
			<polygon fill="#4A2719" points="993.7,411.8 953.5,361 953.5,355.2 993.7,406 			"/>
			<polygon fill="#6B3924" points="942.8,411.8 983,361 983,355.2 942.8,406 			"/>
		</g>
		<g>
			<polygon fill="#944F32" points="956.9,354.3 949.2,354.3 936.4,415.7 944.1,415.7 			"/>
			<polygon fill="#944F32" points="979.6,354.3 987.3,354.3 1000.1,415.7 992.4,415.7 			"/>
		</g>
		<polygon fill="#4A2719" points="942.8,491.4 993.7,421.5 993.7,415.7 942.8,485.6 		"/>
		<polygon fill="#6B3924" points="993.7,491.4 942.8,421.5 942.8,415.7 993.7,485.6 		"/>
		<rect x="920" y="491.4" fill="#403D34" width="103.9" height="12"/>
		<g>
			<rect x="936.4" y="415.7" fill="#944F32" width="7.7" height="75.7"/>
			<rect x="992.4" y="415.7" fill="#944F32" width="7.7" height="75.7"/>
		</g>
		<rect x="934.3" y="411.8" fill="#4A2719" width="67.9" height="3.9"/>
		<rect x="946.6" y="351.3" fill="#4A2719" width="43.2" height="3.9"/>
		<g>
			<path fill="#944F32" d="M961.7,257.7c0.3-2.8,2.2-9.3,6.6-9.3c0,23.2,0,102.9,0,102.9H952C952,351.3,959.1,282.3,961.7,257.7z"/>
			<path fill="#6B3924" d="M975,257.7c-0.3-2.8-2.2-9.3-6.6-9.3c0,23.2,0,102.9,0,102.9h16.4C984.7,351.3,977.6,282.3,975,257.7z"/>
			<rect x="957.5" y="284.1" fill="#4A2719" width="21.6" height="2.1"/>
			<rect x="954.7" y="312.4" fill="#4A2719" width="27.2" height="2.1"/>
			<rect x="952" y="337.1" fill="#4A2719" width="32.8" height="2.1"/>
			<circle fill="#4A2719" cx="968.3" cy="255.8" r="3.8"/>
		</g>
	</g>
	<path fill="#6B3924" d="M543.9,194.2c-0.1-1.3-1.2-2.4-2.5-2.6l-0.1-0.2l-0.4,0.1c-0.5,0-0.9,0.1-1.3,0.4
		c-84.7,23.4-120.8,20.7-131,18.9c-0.9-2.2-3.4-3.4-5.7-2.6l-29.3,9.6c-0.9-1.1-2.1-1.8-3.6-1.8c-2.6,0-4.3,2.3-5.4,4.7l-37.9,12.4
		c-2.5,0.8-3.8,3.4-3,5.9c0.8,2.4,3.4,3.8,5.9,3l33.1-10.9c-0.6,5.8-1.4,12.9-2.2,20.6h-1.4v2.1h1.2c-0.9,8.5-1.8,17.6-2.7,26.2
		h-1.3v2.1h1.1c-0.9,8.5-1.7,16.4-2.3,22.7h-1.5v2.1h1.2c-0.8,7.4-1.2,12.1-1.2,12.1h-5.2v3.9h2.4L339,379.4h-2.9v3.9h2.1V459h-23.8
		v12h103.9v-12h-16.4v-75.7h2.1v-3.9h-2.9l-11.8-56.6h2.4v-3.9h-5.3c0,0-0.2-1.9-0.5-5.3l157.9-110.8c0.5,0.7,1.4,1.2,2.4,1.2
		c0.8,0,1.5-0.3,2-0.8v60.2h2v-62.8L543.9,194.2z M542.9,196.8c0.1-0.1,0.3-0.3,0.4-0.4l1.7,1.8c-0.3,0.1-0.5,0.3-0.8,0.4
		L542.9,196.8z M538,194.4c0,0,0,0.1,0,0.1c0,0.6,0.2,1.2,0.5,1.7l-106.8,66L408,215.4c0.5-0.7,0.9-1.6,1-2.5
		C420.2,214.8,455.8,216.9,538,194.4z M405.7,217c0.2-0.1,0.4-0.2,0.7-0.3l23.6,46.5l-0.3,0.2L403,217.9L405.7,217z M382.5,282.1
		h1.1V280h-1.3c-0.9-8.6-1.8-17.7-2.7-26.2h1.2v-2.1h-1.4c-1-9.8-2-18.8-2.6-25.2l24.4-8l26.9,46l-44.4,27.4
		C383.2,288.8,382.9,285.5,382.5,282.1z M381.6,322.8l0.7,3.2L370,341.4L357.8,326l0.7-3.2H381.6z M394.2,451.4l-22.1-30.2
		l22.1-30.2V451.4z M394.2,385L370,418.2L345.9,385v-1.8h48.4V385z M345.9,390.9l22.1,30.2l-22.1,30.2V390.9z M346.7,379.4l0.8-3.6
		l22.6-28.5l22.6,28.5l0.8,3.6H346.7z M356.8,330.6l10.9,13.7l-18.7,23.5L356.8,330.6z M372.4,344.3l10.9-13.7l7.8,37.3L372.4,344.3
		z M345.9,459v-1.8L370,424l24.2,33.2v1.8H345.9z"/>
	<g>
		<rect x="372.7" y="409.3" fill="#E35240" width="151" height="61.2"/>
		<g>
			<path fill="#F26F5F" d="M382.8,464.7c0,1.4-1.1,2.5-2.5,2.5l0,0c-1.4,0-2.5-1.1-2.5-2.5v-49.6c0-1.4,1.1-2.5,2.5-2.5l0,0
				c1.4,0,2.5,1.1,2.5,2.5V464.7z"/>
			<path fill="#F26F5F" d="M392.5,464.7c0,1.4-1.1,2.5-2.5,2.5l0,0c-1.4,0-2.5-1.1-2.5-2.5v-49.6c0-1.4,1.1-2.5,2.5-2.5l0,0
				c1.4,0,2.5,1.1,2.5,2.5V464.7z"/>
			<path fill="#F26F5F" d="M402.2,464.7c0,1.4-1.1,2.5-2.5,2.5l0,0c-1.4,0-2.5-1.1-2.5-2.5v-49.6c0-1.4,1.1-2.5,2.5-2.5l0,0
				c1.4,0,2.5,1.1,2.5,2.5V464.7z"/>
			<path fill="#F26F5F" d="M411.9,464.7c0,1.4-1.1,2.5-2.5,2.5l0,0c-1.4,0-2.5-1.1-2.5-2.5v-49.6c0-1.4,1.1-2.5,2.5-2.5l0,0
				c1.4,0,2.5,1.1,2.5,2.5V464.7z"/>
			<path fill="#F26F5F" d="M421.6,464.7c0,1.4-1.1,2.5-2.5,2.5l0,0c-1.4,0-2.5-1.1-2.5-2.5v-49.6c0-1.4,1.1-2.5,2.5-2.5l0,0
				c1.4,0,2.5,1.1,2.5,2.5V464.7z"/>
			<path fill="#F26F5F" d="M431.3,464.7c0,1.4-1.1,2.5-2.5,2.5l0,0c-1.4,0-2.5-1.1-2.5-2.5v-49.6c0-1.4,1.1-2.5,2.5-2.5l0,0
				c1.4,0,2.5,1.1,2.5,2.5V464.7z"/>
			<path fill="#F26F5F" d="M441,464.7c0,1.4-1.1,2.5-2.5,2.5l0,0c-1.4,0-2.5-1.1-2.5-2.5v-49.6c0-1.4,1.1-2.5,2.5-2.5l0,0
				c1.4,0,2.5,1.1,2.5,2.5V464.7z"/>
			<path fill="#F26F5F" d="M450.7,464.7c0,1.4-1.1,2.5-2.5,2.5l0,0c-1.4,0-2.5-1.1-2.5-2.5v-49.6c0-1.4,1.1-2.5,2.5-2.5l0,0
				c1.4,0,2.5,1.1,2.5,2.5V464.7z"/>
			<path fill="#F26F5F" d="M460.4,464.7c0,1.4-1.1,2.5-2.5,2.5l0,0c-1.4,0-2.5-1.1-2.5-2.5v-49.6c0-1.4,1.1-2.5,2.5-2.5l0,0
				c1.4,0,2.5,1.1,2.5,2.5V464.7z"/>
			<path fill="#F26F5F" d="M470.1,464.7c0,1.4-1.1,2.5-2.5,2.5l0,0c-1.4,0-2.5-1.1-2.5-2.5v-49.6c0-1.4,1.1-2.5,2.5-2.5l0,0
				c1.4,0,2.5,1.1,2.5,2.5V464.7z"/>
			<path fill="#F26F5F" d="M479.8,464.7c0,1.4-1.1,2.5-2.5,2.5l0,0c-1.4,0-2.5-1.1-2.5-2.5v-49.6c0-1.4,1.1-2.5,2.5-2.5l0,0
				c1.4,0,2.5,1.1,2.5,2.5V464.7z"/>
			<path fill="#F26F5F" d="M489.5,464.7c0,1.4-1.1,2.5-2.5,2.5l0,0c-1.4,0-2.5-1.1-2.5-2.5v-49.6c0-1.4,1.1-2.5,2.5-2.5l0,0
				c1.4,0,2.5,1.1,2.5,2.5V464.7z"/>
			<path fill="#F26F5F" d="M499.2,464.7c0,1.4-1.1,2.5-2.5,2.5l0,0c-1.4,0-2.5-1.1-2.5-2.5v-49.6c0-1.4,1.1-2.5,2.5-2.5l0,0
				c1.4,0,2.5,1.1,2.5,2.5V464.7z"/>
			<path fill="#F26F5F" d="M509,464.7c0,1.4-1.1,2.5-2.5,2.5l0,0c-1.4,0-2.5-1.1-2.5-2.5v-49.6c0-1.4,1.1-2.5,2.5-2.5l0,0
				c1.4,0,2.5,1.1,2.5,2.5V464.7z"/>
			<path fill="#F26F5F" d="M518.7,464.7c0,1.4-1.1,2.5-2.5,2.5l0,0c-1.4,0-2.5-1.1-2.5-2.5v-49.6c0-1.4,1.1-2.5,2.5-2.5l0,0
				c1.4,0,2.5,1.1,2.5,2.5V464.7z"/>
		</g>
		<rect x="372.7" y="409.3" fill="#C75B4E" width="151" height="4.4"/>
		<rect x="372.7" y="466.1" fill="#C75B4E" width="151" height="4.4"/>
	</g>
	<g>
		<rect x="431.9" y="348.2" fill="#36BF6D" width="57" height="61.2"/>
		<g>
			<path fill="#91DBAF" d="M443.5,403.5c0,1.4-1.1,2.5-2.5,2.5l0,0c-1.4,0-2.5-1.1-2.5-2.5V354c0-1.4,1.1-2.5,2.5-2.5l0,0
				c1.4,0,2.5,1.1,2.5,2.5V403.5z"/>
			<path fill="#91DBAF" d="M453.2,403.5c0,1.4-1.1,2.5-2.5,2.5l0,0c-1.4,0-2.5-1.1-2.5-2.5V354c0-1.4,1.1-2.5,2.5-2.5l0,0
				c1.4,0,2.5,1.1,2.5,2.5V403.5z"/>
			<path fill="#91DBAF" d="M462.9,403.5c0,1.4-1.1,2.5-2.5,2.5l0,0c-1.4,0-2.5-1.1-2.5-2.5V354c0-1.4,1.1-2.5,2.5-2.5l0,0
				c1.4,0,2.5,1.1,2.5,2.5V403.5z"/>
			<path fill="#91DBAF" d="M472.6,403.5c0,1.4-1.1,2.5-2.5,2.5l0,0c-1.4,0-2.5-1.1-2.5-2.5V354c0-1.4,1.1-2.5,2.5-2.5l0,0
				c1.4,0,2.5,1.1,2.5,2.5V403.5z"/>
			<path fill="#91DBAF" d="M482.3,403.5c0,1.4-1.1,2.5-2.5,2.5l0,0c-1.4,0-2.5-1.1-2.5-2.5V354c0-1.4,1.1-2.5,2.5-2.5l0,0
				c1.4,0,2.5,1.1,2.5,2.5V403.5z"/>
		</g>
		<rect x="431.9" y="348.2" fill="#2B9656" width="57" height="4.4"/>
		<rect x="431.9" y="404.9" fill="#2B9656" width="57" height="4.4"/>
	</g>
	<g>
		<rect x="373" y="348.2" fill="#C9C539" width="57" height="61.2"/>
		<g>
			<path fill="#E6E383" d="M384.6,403.5c0,1.4-1.1,2.5-2.5,2.5l0,0c-1.4,0-2.5-1.1-2.5-2.5V354c0-1.4,1.1-2.5,2.5-2.5l0,0
				c1.4,0,2.5,1.1,2.5,2.5V403.5z"/>
			<path fill="#E6E383" d="M394.3,403.5c0,1.4-1.1,2.5-2.5,2.5l0,0c-1.4,0-2.5-1.1-2.5-2.5V354c0-1.4,1.1-2.5,2.5-2.5l0,0
				c1.4,0,2.5,1.1,2.5,2.5V403.5z"/>
			<path fill="#E6E383" d="M404.1,403.5c0,1.4-1.1,2.5-2.5,2.5l0,0c-1.4,0-2.5-1.1-2.5-2.5V354c0-1.4,1.1-2.5,2.5-2.5l0,0
				c1.4,0,2.5,1.1,2.5,2.5V403.5z"/>
			<path fill="#E6E383" d="M413.8,403.5c0,1.4-1.1,2.5-2.5,2.5l0,0c-1.4,0-2.5-1.1-2.5-2.5V354c0-1.4,1.1-2.5,2.5-2.5l0,0
				c1.4,0,2.5,1.1,2.5,2.5V403.5z"/>
			<path fill="#E6E383" d="M423.5,403.5c0,1.4-1.1,2.5-2.5,2.5l0,0c-1.4,0-2.5-1.1-2.5-2.5V354c0-1.4,1.1-2.5,2.5-2.5l0,0
				c1.4,0,2.5,1.1,2.5,2.5V403.5z"/>
		</g>
		<rect x="373" y="348.2" fill="#A8A530" width="57" height="4.4"/>
		<rect x="373" y="404.9" fill="#A8A530" width="57" height="4.4"/>
	</g>
	<g>
		<g>
			<rect x="527.2" y="268.1" fill="#36BF6D" width="43.8" height="47"/>
			<g>
				<path fill="#91DBAF" d="M536.1,310.6c0,1.1-0.9,1.9-1.9,1.9l0,0c-1.1,0-1.9-0.9-1.9-1.9v-38c0-1.1,0.9-1.9,1.9-1.9l0,0
					c1.1,0,1.9,0.9,1.9,1.9V310.6z"/>
				<path fill="#91DBAF" d="M543.5,310.6c0,1.1-0.9,1.9-1.9,1.9l0,0c-1.1,0-1.9-0.9-1.9-1.9v-38c0-1.1,0.9-1.9,1.9-1.9l0,0
					c1.1,0,1.9,0.9,1.9,1.9V310.6z"/>
				<path fill="#91DBAF" d="M551,310.6c0,1.1-0.9,1.9-1.9,1.9l0,0c-1.1,0-1.9-0.9-1.9-1.9v-38c0-1.1,0.9-1.9,1.9-1.9l0,0
					c1.1,0,1.9,0.9,1.9,1.9V310.6z"/>
				<path fill="#91DBAF" d="M558.4,310.6c0,1.1-0.9,1.9-1.9,1.9l0,0c-1.1,0-1.9-0.9-1.9-1.9v-38c0-1.1,0.9-1.9,1.9-1.9l0,0
					c1.1,0,1.9,0.9,1.9,1.9V310.6z"/>
				<path fill="#91DBAF" d="M565.9,310.6c0,1.1-0.9,1.9-1.9,1.9l0,0c-1.1,0-1.9-0.9-1.9-1.9v-38c0-1.1,0.9-1.9,1.9-1.9l0,0
					c1.1,0,1.9,0.9,1.9,1.9V310.6z"/>
			</g>
			<rect x="527.2" y="268.1" fill="#2B9656" width="43.8" height="3.4"/>
			<rect x="527.2" y="311.7" fill="#2B9656" width="43.8" height="3.4"/>
		</g>
		<path fill="#6B3924" d="M574,315.1l-23.4-49.8c0.5-0.4,0.8-1,0.8-1.7c0-1.3-1-2.3-2.3-2.3c-1.3,0-2.3,1-2.3,2.3
			c0,0.7,0.3,1.3,0.8,1.7l-23.4,49.8h-1.7v3.8h53.3v-3.8H574z M548.4,265.8c0.2,0.1,0.5,0.1,0.7,0.1s0.5,0,0.7-0.1l22.8,49.3h-47
			L548.4,265.8z"/>
	</g>
	<g>
		<g>
			<rect x="503.3" y="513.5" fill="#40A7E3" width="151" height="61.2"/>
			<g>
				<path fill="#7FBEE3" d="M513.4,568.8c0,1.4-1.1,2.5-2.5,2.5l0,0c-1.4,0-2.5-1.1-2.5-2.5v-49.6c0-1.4,1.1-2.5,2.5-2.5l0,0
					c1.4,0,2.5,1.1,2.5,2.5V568.8z"/>
				<path fill="#7FBEE3" d="M523.1,568.8c0,1.4-1.1,2.5-2.5,2.5l0,0c-1.4,0-2.5-1.1-2.5-2.5v-49.6c0-1.4,1.1-2.5,2.5-2.5l0,0
					c1.4,0,2.5,1.1,2.5,2.5V568.8z"/>
				<path fill="#7FBEE3" d="M532.8,568.8c0,1.4-1.1,2.5-2.5,2.5l0,0c-1.4,0-2.5-1.1-2.5-2.5v-49.6c0-1.4,1.1-2.5,2.5-2.5l0,0
					c1.4,0,2.5,1.1,2.5,2.5V568.8z"/>
				<path fill="#7FBEE3" d="M542.5,568.8c0,1.4-1.1,2.5-2.5,2.5l0,0c-1.4,0-2.5-1.1-2.5-2.5v-49.6c0-1.4,1.1-2.5,2.5-2.5l0,0
					c1.4,0,2.5,1.1,2.5,2.5V568.8z"/>
				<path fill="#7FBEE3" d="M552.2,568.8c0,1.4-1.1,2.5-2.5,2.5l0,0c-1.4,0-2.5-1.1-2.5-2.5v-49.6c0-1.4,1.1-2.5,2.5-2.5l0,0
					c1.4,0,2.5,1.1,2.5,2.5V568.8z"/>
				<path fill="#7FBEE3" d="M561.9,568.8c0,1.4-1.1,2.5-2.5,2.5l0,0c-1.4,0-2.5-1.1-2.5-2.5v-49.6c0-1.4,1.1-2.5,2.5-2.5l0,0
					c1.4,0,2.5,1.1,2.5,2.5V568.8z"/>
				<path fill="#7FBEE3" d="M571.6,568.8c0,1.4-1.1,2.5-2.5,2.5l0,0c-1.4,0-2.5-1.1-2.5-2.5v-49.6c0-1.4,1.1-2.5,2.5-2.5l0,0
					c1.4,0,2.5,1.1,2.5,2.5V568.8z"/>
				<path fill="#7FBEE3" d="M581.3,568.8c0,1.4-1.1,2.5-2.5,2.5l0,0c-1.4,0-2.5-1.1-2.5-2.5v-49.6c0-1.4,1.1-2.5,2.5-2.5l0,0
					c1.4,0,2.5,1.1,2.5,2.5V568.8z"/>
				<path fill="#7FBEE3" d="M591,568.8c0,1.4-1.1,2.5-2.5,2.5l0,0c-1.4,0-2.5-1.1-2.5-2.5v-49.6c0-1.4,1.1-2.5,2.5-2.5l0,0
					c1.4,0,2.5,1.1,2.5,2.5V568.8z"/>
				<path fill="#7FBEE3" d="M600.7,568.8c0,1.4-1.1,2.5-2.5,2.5l0,0c-1.4,0-2.5-1.1-2.5-2.5v-49.6c0-1.4,1.1-2.5,2.5-2.5l0,0
					c1.4,0,2.5,1.1,2.5,2.5V568.8z"/>
				<path fill="#7FBEE3" d="M610.4,568.8c0,1.4-1.1,2.5-2.5,2.5l0,0c-1.4,0-2.5-1.1-2.5-2.5v-49.6c0-1.4,1.1-2.5,2.5-2.5l0,0
					c1.4,0,2.5,1.1,2.5,2.5V568.8z"/>
				<path fill="#7FBEE3" d="M620.1,568.8c0,1.4-1.1,2.5-2.5,2.5l0,0c-1.4,0-2.5-1.1-2.5-2.5v-49.6c0-1.4,1.1-2.5,2.5-2.5l0,0
					c1.4,0,2.5,1.1,2.5,2.5V568.8z"/>
				<path fill="#7FBEE3" d="M629.8,568.8c0,1.4-1.1,2.5-2.5,2.5l0,0c-1.4,0-2.5-1.1-2.5-2.5v-49.6c0-1.4,1.1-2.5,2.5-2.5l0,0
					c1.4,0,2.5,1.1,2.5,2.5V568.8z"/>
				<path fill="#7FBEE3" d="M639.5,568.8c0,1.4-1.1,2.5-2.5,2.5l0,0c-1.4,0-2.5-1.1-2.5-2.5v-49.6c0-1.4,1.1-2.5,2.5-2.5l0,0
					c1.4,0,2.5,1.1,2.5,2.5V568.8z"/>
				<path fill="#7FBEE3" d="M649.2,568.8c0,1.4-1.1,2.5-2.5,2.5l0,0c-1.4,0-2.5-1.1-2.5-2.5v-49.6c0-1.4,1.1-2.5,2.5-2.5l0,0
					c1.4,0,2.5,1.1,2.5,2.5V568.8z"/>
			</g>
			<rect x="503.3" y="513.5" fill="#3487B8" width="151" height="4.4"/>
			<rect x="503.3" y="570.2" fill="#3487B8" width="151" height="4.4"/>
		</g>
		<g>
			<rect x="445.7" y="513.5" fill="#36BF6D" width="57" height="61.2"/>
			<g>
				<path fill="#91DBAF" d="M457.3,568.8c0,1.4-1.1,2.5-2.5,2.5l0,0c-1.4,0-2.5-1.1-2.5-2.5v-49.6c0-1.4,1.1-2.5,2.5-2.5l0,0
					c1.4,0,2.5,1.1,2.5,2.5V568.8z"/>
				<path fill="#91DBAF" d="M467,568.8c0,1.4-1.1,2.5-2.5,2.5l0,0c-1.4,0-2.5-1.1-2.5-2.5v-49.6c0-1.4,1.1-2.5,2.5-2.5l0,0
					c1.4,0,2.5,1.1,2.5,2.5V568.8z"/>
				<path fill="#91DBAF" d="M476.7,568.8c0,1.4-1.1,2.5-2.5,2.5l0,0c-1.4,0-2.5-1.1-2.5-2.5v-49.6c0-1.4,1.1-2.5,2.5-2.5l0,0
					c1.4,0,2.5,1.1,2.5,2.5V568.8z"/>
				<path fill="#91DBAF" d="M486.4,568.8c0,1.4-1.1,2.5-2.5,2.5l0,0c-1.4,0-2.5-1.1-2.5-2.5v-49.6c0-1.4,1.1-2.5,2.5-2.5l0,0
					c1.4,0,2.5,1.1,2.5,2.5V568.8z"/>
				<path fill="#91DBAF" d="M496.1,568.8c0,1.4-1.1,2.5-2.5,2.5l0,0c-1.4,0-2.5-1.1-2.5-2.5v-49.6c0-1.4,1.1-2.5,2.5-2.5l0,0
					c1.4,0,2.5,1.1,2.5,2.5V568.8z"/>
			</g>
			<rect x="445.7" y="513.5" fill="#2B9656" width="57" height="4.4"/>
			<rect x="445.7" y="570.2" fill="#2B9656" width="57" height="4.4"/>
		</g>
		<g>
			<rect x="386.9" y="513.5" fill="#C9C539" width="57" height="61.2"/>
			<g>
				<path fill="#E6E383" d="M398.5,568.8c0,1.4-1.1,2.5-2.5,2.5l0,0c-1.4,0-2.5-1.1-2.5-2.5v-49.6c0-1.4,1.1-2.5,2.5-2.5l0,0
					c1.4,0,2.5,1.1,2.5,2.5V568.8z"/>
				<path fill="#E6E383" d="M408.2,568.8c0,1.4-1.1,2.5-2.5,2.5l0,0c-1.4,0-2.5-1.1-2.5-2.5v-49.6c0-1.4,1.1-2.5,2.5-2.5l0,0
					c1.4,0,2.5,1.1,2.5,2.5V568.8z"/>
				<path fill="#E6E383" d="M417.9,568.8c0,1.4-1.1,2.5-2.5,2.5l0,0c-1.4,0-2.5-1.1-2.5-2.5v-49.6c0-1.4,1.1-2.5,2.5-2.5l0,0
					c1.4,0,2.5,1.1,2.5,2.5V568.8z"/>
				<path fill="#E6E383" d="M427.6,568.8c0,1.4-1.1,2.5-2.5,2.5l0,0c-1.4,0-2.5-1.1-2.5-2.5v-49.6c0-1.4,1.1-2.5,2.5-2.5l0,0
					c1.4,0,2.5,1.1,2.5,2.5V568.8z"/>
				<path fill="#E6E383" d="M437.3,568.8c0,1.4-1.1,2.5-2.5,2.5l0,0c-1.4,0-2.5-1.1-2.5-2.5v-49.6c0-1.4,1.1-2.5,2.5-2.5l0,0
					c1.4,0,2.5,1.1,2.5,2.5V568.8z"/>
			</g>
			<rect x="386.9" y="513.5" fill="#A8A530" width="57" height="4.4"/>
			<rect x="386.9" y="570.2" fill="#A8A530" width="57" height="4.4"/>
		</g>
		<g>
			<path fill="#0D4034" d="M602.2,544.1c-8.5,13.1-23.1,21.7-39.9,21.7H234.2l18.8,56.5h355.5c43.2,0,78.2-35,78.2-78.2H602.2z"/>
			<path fill="#FF6A17" d="M237.8,576.4l15.3,45.8h355.5c31.6,0,58.8-18.8,71.1-45.8H237.8z"/>
			<g>
				<path fill="#FFFFFF" d="M632.7,589.7c-7.3,0-13.3-6-13.3-13.3s6-13.3,13.3-13.3c7.3,0,13.3,6,13.3,13.3S640.1,589.7,632.7,589.7
					z M632.7,569.8c-3.7,0-6.6,3-6.6,6.6c0,3.7,3,6.6,6.6,6.6s6.6-3,6.6-6.6C639.4,572.8,636.4,569.8,632.7,569.8z"/>
			</g>
			<g>
				<path fill="#0D4034" d="M592.9,593.5c-3.2,0-5.8-2.6-5.8-5.8c0-3.2,2.6-5.8,5.8-5.8c3.2,0,5.8,2.6,5.8,5.8
					C598.7,590.9,596.1,593.5,592.9,593.5z"/>
			</g>
			<g>
				<path fill="#0D4034" d="M573,593.5c-3.2,0-5.8-2.6-5.8-5.8c0-3.2,2.6-5.8,5.8-5.8c3.2,0,5.8,2.6,5.8,5.8
					C578.8,590.9,576.2,593.5,573,593.5z"/>
			</g>
			<g>
				<path fill="#0D4034" d="M553.1,593.5c-3.2,0-5.8-2.6-5.8-5.8c0-3.2,2.6-5.8,5.8-5.8c3.2,0,5.8,2.6,5.8,5.8
					C558.9,590.9,556.3,593.5,553.1,593.5z"/>
			</g>
			<g>
				<path fill="#0D4034" d="M510.5,593.5c-3.2,0-5.8-2.6-5.8-5.8c0-3.2,2.6-5.8,5.8-5.8c3.2,0,5.8,2.6,5.8,5.8
					C516.3,590.9,513.7,593.5,510.5,593.5z"/>
			</g>
			<g>
				<path fill="#0D4034" d="M490.5,593.5c-3.2,0-5.8-2.6-5.8-5.8c0-3.2,2.6-5.8,5.8-5.8c3.2,0,5.8,2.6,5.8,5.8
					C496.3,590.9,493.7,593.5,490.5,593.5z"/>
			</g>
			<g>
				<path fill="#0D4034" d="M470.6,593.5c-3.2,0-5.8-2.6-5.8-5.8c0-3.2,2.6-5.8,5.8-5.8c3.2,0,5.8,2.6,5.8,5.8
					C476.4,590.9,473.8,593.5,470.6,593.5z"/>
			</g>
			<g>
				<path fill="#0D4034" d="M428,593.5c-3.2,0-5.8-2.6-5.8-5.8c0-3.2,2.6-5.8,5.8-5.8c3.2,0,5.8,2.6,5.8,5.8
					C433.8,590.9,431.2,593.5,428,593.5z"/>
			</g>
			<g>
				<path fill="#0D4034" d="M408,593.5c-3.2,0-5.8-2.6-5.8-5.8c0-3.2,2.6-5.8,5.8-5.8c3.2,0,5.8,2.6,5.8,5.8
					C413.9,590.9,411.3,593.5,408,593.5z"/>
			</g>
			<g>
				<path fill="#0D4034" d="M388.1,593.5c-3.2,0-5.8-2.6-5.8-5.8c0-3.2,2.6-5.8,5.8-5.8c3.2,0,5.8,2.6,5.8,5.8
					C393.9,590.9,391.3,593.5,388.1,593.5z"/>
			</g>
			<g>
				<path fill="#0D4034" d="M345.5,593.5c-3.2,0-5.8-2.6-5.8-5.8c0-3.2,2.6-5.8,5.8-5.8c3.2,0,5.8,2.6,5.8,5.8
					C351.3,590.9,348.7,593.5,345.5,593.5z"/>
			</g>
			<g>
				<path fill="#0D4034" d="M325.6,593.5c-3.2,0-5.8-2.6-5.8-5.8c0-3.2,2.6-5.8,5.8-5.8s5.8,2.6,5.8,5.8
					C331.4,590.9,328.8,593.5,325.6,593.5z"/>
			</g>
			<g>
				<path fill="#0D4034" d="M305.6,593.5c-3.2,0-5.8-2.6-5.8-5.8c0-3.2,2.6-5.8,5.8-5.8c3.2,0,5.8,2.6,5.8,5.8
					C311.5,590.9,308.9,593.5,305.6,593.5z"/>
			</g>
			<polygon fill="#BCE8DD" points="360.1,536.9 373.1,536.9 373.1,513.3 254.4,513.3 254.4,565.8 360.1,565.8 			"/>
			<rect x="354" y="536.8" fill="#708A83" width="28.3" height="3.5"/>
			<rect x="244.6" y="509.8" fill="#708A83" width="137.7" height="3.5"/>
			<rect x="254.9" y="478.8" fill="#708A83" width="91.6" height="3.5"/>
			<rect x="299.6" y="443.9" fill="#252E2C" width="2.2" height="34.9"/>
			<rect x="285.7" y="470.4" fill="#252E2C" width="33.5" height="8.4"/>
			<rect x="294.8" y="463.1" fill="#252E2C" width="15.2" height="3"/>
			<rect x="298.1" y="455.2" fill="#252E2C" width="8.6" height="3"/>
			<rect x="261" y="482.3" fill="#BCE8DD" width="80" height="27.5"/>
			<rect x="266.3" y="525" fill="#FFFFFF" width="11.3" height="28"/>
			<rect x="288.5" y="525" fill="#FFFFFF" width="11.3" height="28"/>
			<rect x="310.7" y="525" fill="#FFFFFF" width="11.3" height="28"/>
			<rect x="332.9" y="525" fill="#FFFFFF" width="11.3" height="28"/>
			<rect x="270.3" y="488.4" fill="#FFFFFF" width="11.3" height="10.2"/>
			<rect x="291.3" y="488.4" fill="#FFFFFF" width="11.3" height="10.2"/>
		</g>
	</g>
	<g>
		<circle fill="#7ED9E6" cx="254" cy="628" r="15.8"/>
		<circle fill="#7ED9E6" cx="283" cy="628" r="15.8"/>
		<circle fill="#7ED9E6" cx="312" cy="628" r="15.8"/>
		<circle fill="#7ED9E6" cx="341" cy="628" r="15.8"/>
		<circle fill="#7ED9E6" cx="370" cy="628" r="15.8"/>
		<circle fill="#7ED9E6" cx="399" cy="628" r="15.8"/>
		<circle fill="#7ED9E6" cx="428" cy="628" r="15.8"/>
		<circle fill="#7ED9E6" cx="457" cy="628" r="15.8"/>
		<circle fill="#7ED9E6" cx="486" cy="628" r="15.8"/>
		<circle fill="#7ED9E6" cx="515" cy="628" r="15.8"/>
		<circle fill="#7ED9E6" cx="544" cy="628" r="15.8"/>
		<circle fill="#7ED9E6" cx="573" cy="628" r="15.8"/>
		<circle fill="#7ED9E6" cx="602" cy="628" r="15.8"/>
	</g>
	<g>
		<rect x="843.2" y="529" fill="#BCE8DD" width="167" height="76.4"/>
		<rect x="852.8" y="541.5" fill="#9DC2B9" width="78.9" height="61.2"/>
		<rect x="934.6" y="480.7" fill="#BCE8DD" width="61.4" height="48.2"/>
		<g>
			<path fill="#286355" d="M1077.2,578.6l-26-6.7c-0.8-0.2-1.3-1-1.1-1.8c0.2-0.8,1-1.3,1.8-1.1l21.4,5.5l-4.5-24.3l19.4,6
				l-6.6-18.1l20.4,3.1l-4.2-18.4l16.1,4.2l-3.3-15.9l15.2,2.2l-3.4-13.5l13.4,2.5v-14.7c0-0.8,0.7-1.5,1.5-1.5s1.5,0.7,1.5,1.5V506
				l-12.4-2.3l3.4,13.4l-15.4-2.3l3.4,16.5l-16-4.2l4,17.9l-19.7-3l7,19l-20.5-6.3L1077.2,578.6z"/>
		</g>
		<g>
			<path fill="#0D4034" d="M1060.7,597.5c-0.3,0-0.7-0.1-1-0.4c-0.6-0.5-0.7-1.5-0.2-2.1l84.2-98.1l-5.8-7.7l-92.8,87.3
				c-0.6,0.6-1.6,0.5-2.1-0.1c-0.6-0.6-0.5-1.6,0.1-2.1l94-88.5c0.3-0.3,0.7-0.4,1.2-0.4c0.4,0,0.8,0.3,1.1,0.6l7.5,10
				c0.4,0.6,0.4,1.3-0.1,1.9l-85,99C1061.5,597.3,1061.1,597.5,1060.7,597.5z"/>
		</g>
		<path fill="#286355" d="M1062,585.6L1062,585.6c-0.5-7.5-6.7-13.4-14.2-13.4s-13.8,5.9-14.2,13.4h0l-3.8,19.8h18h18L1062,585.6z"
			/>
		<rect x="840.1" y="527.2" fill="#708A83" width="179" height="3.5"/>
		<rect x="926.5" y="477.2" fill="#708A83" width="79.9" height="3.5"/>
		<path fill="#0D4034" d="M790.8,598c12.5,11.7,21.7,32.9,24.5,58h278.4l19-58H790.8z"/>
		<path fill="#FF6A17" d="M803.9,616c5.7,11.1,9.7,24.8,11.4,40h278.4l13.1-40H803.9z"/>
		<g>
			<g>
				<path fill="#FFFFFF" d="M840.7,629.3c-7.3,0-13.3-6-13.3-13.3c0-7.3,6-13.3,13.3-13.3c7.3,0,13.3,6,13.3,13.3
					C854,623.3,848,629.3,840.7,629.3z M840.7,609.3c-3.7,0-6.6,3-6.6,6.6c0,3.7,3,6.6,6.6,6.6c3.7,0,6.6-3,6.6-6.6
					C847.3,612.3,844.3,609.3,840.7,609.3z"/>
			</g>
			<g>
				<path fill="#1D1D1B" d="M840.7,629.3c-7.3,0-13.3-6-13.3-13.3c0-7.3,6-13.3,13.3-13.3c7.3,0,13.3,6,13.3,13.3
					C854,623.3,848,629.3,840.7,629.3z M840.7,609.3c-3.7,0-6.6,3-6.6,6.6c0,3.7,3,6.6,6.6,6.6c3.7,0,6.6-3,6.6-6.6
					C847.3,612.3,844.3,609.3,840.7,609.3z"/>
			</g>
			<g>
				<path fill="#1D1D1B" d="M840.7,629.3c-7.3,0-13.3-6-13.3-13.3c0-7.3,6-13.3,13.3-13.3c7.3,0,13.3,6,13.3,13.3
					C854,623.3,848,629.3,840.7,629.3z M840.7,609.3c-3.7,0-6.6,3-6.6,6.6c0,3.7,3,6.6,6.6,6.6c3.7,0,6.6-3,6.6-6.6
					C847.3,612.3,844.3,609.3,840.7,609.3z"/>
			</g>
			<g>
				<path fill="#1D1D1B" d="M840.7,629.3c-7.3,0-13.3-6-13.3-13.3c0-7.3,6-13.3,13.3-13.3c7.3,0,13.3,6,13.3,13.3
					C854,623.3,848,629.3,840.7,629.3z M840.7,609.3c-3.7,0-6.6,3-6.6,6.6c0,3.7,3,6.6,6.6,6.6c3.7,0,6.6-3,6.6-6.6
					C847.3,612.3,844.3,609.3,840.7,609.3z"/>
			</g>
			<g>
				<path fill="#FFFFFF" d="M840.7,629.3c-7.3,0-13.3-6-13.3-13.3c0-7.3,6-13.3,13.3-13.3c7.3,0,13.3,6,13.3,13.3
					C854,623.3,848,629.3,840.7,629.3z M840.7,609.3c-3.7,0-6.6,3-6.6,6.6c0,3.7,3,6.6,6.6,6.6c3.7,0,6.6-3,6.6-6.6
					C847.3,612.3,844.3,609.3,840.7,609.3z"/>
			</g>
		</g>
		<g>
			<g>
				<g>
					<path fill="#0D4034" d="M934.6,632.8c-3.2,0-5.8-2.6-5.8-5.8c0-3.2,2.6-5.8,5.8-5.8c3.2,0,5.8,2.6,5.8,5.8
						C940.4,630.2,937.8,632.8,934.6,632.8z"/>
				</g>
				<g>
					<path fill="#0D4034" d="M914.7,632.8c-3.2,0-5.8-2.6-5.8-5.8c0-3.2,2.6-5.8,5.8-5.8c3.2,0,5.8,2.6,5.8,5.8
						C920.5,630.2,917.9,632.8,914.7,632.8z"/>
				</g>
				<g>
					<path fill="#0D4034" d="M894.8,632.8c-3.2,0-5.8-2.6-5.8-5.8c0-3.2,2.6-5.8,5.8-5.8c3.2,0,5.8,2.6,5.8,5.8
						C900.6,630.2,898,632.8,894.8,632.8z"/>
				</g>
			</g>
			<g>
				<g>
					<path fill="#0D4034" d="M1016,632.8c-3.2,0-5.8-2.6-5.8-5.8c0-3.2,2.6-5.8,5.8-5.8c3.2,0,5.8,2.6,5.8,5.8
						C1021.8,630.2,1019.2,632.8,1016,632.8z"/>
				</g>
				<g>
					<path fill="#0D4034" d="M996,632.8c-3.2,0-5.8-2.6-5.8-5.8c0-3.2,2.6-5.8,5.8-5.8c3.2,0,5.8,2.6,5.8,5.8
						C1001.8,630.2,999.2,632.8,996,632.8z"/>
				</g>
				<g>
					<path fill="#0D4034" d="M976.1,632.8c-3.2,0-5.8-2.6-5.8-5.8c0-3.2,2.6-5.8,5.8-5.8c3.2,0,5.8,2.6,5.8,5.8
						C981.9,630.2,979.3,632.8,976.1,632.8z"/>
				</g>
			</g>
		</g>
		<polygon fill="#286355" points="914.7,598 790.8,598 790.8,575.5 903.2,575.5 		"/>
		<circle fill="#0D4034" cx="1143.8" cy="491.3" r="10.6"/>
		<circle fill="#286355" cx="1143.8" cy="491.3" r="5.8"/>
		<path fill="#0D4034" d="M1157.3,584.7c-0.8-1.2-1.9-2.2-3.2-2.9c-0.5-0.2-1-0.4-1.5-0.6v-1.4h2.2v-3.6h-2.1v-87.8
			c0-0.8-0.7-1.5-1.5-1.5s-1.5,0.7-1.5,1.5v87.8h-2.1v3.6h2.2v1.2c-0.6,0.2-1.1,0.7-1.1,1.3c-0.1,0.8,0.6,1.5,1.4,1.6
			c2,0.1,3.6,1.1,4.7,2.6c1,1.5,1.3,3.5,0.7,5.3c-0.6,1.8-2.1,3.3-4,3.8c-0.5,0.2-1,0.2-1.5,0.3c-0.5,0-1,0-1.5-0.1
			c-1.1-0.1-2.1-0.6-3-1.2l0,0c-0.1-0.1-0.3-0.1-0.4,0c-0.1,0.1-0.2,0.3-0.1,0.5c0.7,1,1.8,1.8,3,2.3c0.6,0.2,1.3,0.4,1.9,0.5
			c0.6,0.1,1.3,0.1,2,0c2.7-0.4,5.3-2.2,6.4-4.9C1159.2,590.4,1159,587.1,1157.3,584.7z"/>
		<polygon fill="#0D4034" points="889,489 878,489 867,489 862.7,527.2 878,527.2 893.4,527.2 		"/>
		<polygon fill="#FF6A17" points="863.4,520.6 892.6,520.6 889.8,495.6 866.3,495.6 		"/>
		<rect x="970.3" y="486.2" fill="#FFFFFF" width="22.1" height="24.4"/>
		<rect x="940.7" y="486.2" fill="#FFFFFF" width="22.1" height="9.4"/>
		<rect x="940.7" y="541.5" fill="#FFFFFF" width="22.1" height="9.4"/>
		<rect x="976.1" y="541.5" fill="#FFFFFF" width="22.1" height="9.4"/>
	</g>
	<g>
		<circle fill="#50C4D4" cx="784.6" cy="653.7" r="15.8"/>
		<circle fill="#50C4D4" cx="813.6" cy="653.7" r="15.8"/>
		<circle fill="#50C4D4" cx="842.6" cy="653.7" r="15.8"/>
		<circle fill="#50C4D4" cx="871.6" cy="653.7" r="15.8"/>
		<circle fill="#50C4D4" cx="900.6" cy="653.7" r="15.8"/>
		<circle fill="#50C4D4" cx="929.6" cy="653.7" r="15.8"/>
		<circle fill="#50C4D4" cx="958.6" cy="653.7" r="15.8"/>
		<circle fill="#50C4D4" cx="987.6" cy="653.7" r="15.8"/>
		<circle fill="#50C4D4" cx="1016.6" cy="653.7" r="15.8"/>
		<circle fill="#50C4D4" cx="1045.6" cy="653.7" r="15.8"/>
		<circle fill="#50C4D4" cx="1074.6" cy="653.7" r="15.8"/>
		<circle fill="#50C4D4" cx="1103.6" cy="653.7" r="15.8"/>
		<circle fill="#50C4D4" cx="1132.6" cy="653.7" r="15.8"/>
	</g>
	<g>
		<g>
			<g>
				<rect x="739.4" y="641.1" fill="#FF6A17" width="19.6" height="18.2"/>
				<rect x="739.4" y="637.4" fill="#0D4034" width="19.6" height="3.7"/>
			</g>
			<g>
				<rect x="704.5" y="641.1" fill="#FF6A17" width="19.6" height="18.2"/>
				<rect x="704.5" y="637.4" fill="#0D4034" width="19.6" height="3.7"/>
			</g>
			<g>
				<rect x="669.7" y="641.1" fill="#FF6A17" width="19.6" height="18.2"/>
				<rect x="669.7" y="637.4" fill="#0D4034" width="19.6" height="3.7"/>
			</g>
			<g>
				<rect x="634.8" y="641.1" fill="#FF6A17" width="19.6" height="18.2"/>
				<rect x="634.8" y="637.4" fill="#0D4034" width="19.6" height="3.7"/>
			</g>
		</g>
		<rect x="618.5" y="662.2" fill="#BCE8DD" width="156.8" height="24.4"/>
		<polygon fill="#BCE8DD" points="612.4,710 599.4,710 599.4,686.5 799.3,686.5 799.3,739 612.4,739 		"/>
		<rect x="758.3" y="698.1" fill="#9DC2B9" width="41" height="46.7"/>
		<rect x="590.2" y="710" fill="#708A83" width="28.3" height="3.5"/>
		<rect x="590.2" y="683" fill="#708A83" width="211.3" height="3.5"/>
		<rect x="614" y="658.6" fill="#708A83" width="165.7" height="3.5"/>
		<rect x="672.7" y="698.1" fill="#FFFFFF" width="11.3" height="15.4"/>
		<rect x="650.5" y="698.1" fill="#FFFFFF" width="11.3" height="15.4"/>
		<rect x="628.3" y="698.1" fill="#FFFFFF" width="11.3" height="15.4"/>
		<rect x="738.1" y="698.1" fill="#FFFFFF" width="11.3" height="15.4"/>
		<rect x="715.9" y="698.1" fill="#FFFFFF" width="11.3" height="15.4"/>
		<rect x="693.7" y="698.1" fill="#FFFFFF" width="11.3" height="15.4"/>
		<rect x="744.8" y="722.7" fill="#286355" width="72.5" height="15.1"/>
		<path fill="#0D4034" d="M567.9,716.1c8.5,13.1,23.1,21.7,39.9,21.7h209.6l-9.5,56.5H561.6c-43.2,0-78.2-35-78.2-78.2H567.9z"/>
		<path fill="#FF6A17" d="M815.5,748.5l-7.7,45.8H561.6c-31.6,0-58.8-18.8-71.1-45.8H815.5z"/>
		<g>
			<path fill="#FFFFFF" d="M524,748.5c0-7.3,6-13.3,13.3-13.3c7.3,0,13.3,6,13.3,13.3s-6,13.3-13.3,13.3
				C530,761.8,524,755.8,524,748.5z M530.7,748.5c0,3.7,3,6.6,6.6,6.6c3.7,0,6.6-3,6.6-6.6s-3-6.6-6.6-6.6
				C533.7,741.8,530.7,744.8,530.7,748.5z"/>
		</g>
		<g>
			<path fill="#FFFFFF" d="M771.7,748.5c0-7.3,6-13.3,13.3-13.3c7.3,0,13.3,6,13.3,13.3s-6,13.3-13.3,13.3
				C777.7,761.8,771.7,755.8,771.7,748.5z M778.4,748.5c0,3.7,3,6.6,6.6,6.6s6.6-3,6.6-6.6s-3-6.6-6.6-6.6S778.4,744.8,778.4,748.5z
				"/>
		</g>
		<g>
			<path fill="#0D4034" d="M653.8,759.7c0-3.2,2.6-5.8,5.8-5.8c3.2,0,5.8,2.6,5.8,5.8c0,3.2-2.6,5.8-5.8,5.8
				C656.4,765.6,653.8,763,653.8,759.7z"/>
		</g>
		<g>
			<path fill="#0D4034" d="M673.7,759.7c0-3.2,2.6-5.8,5.8-5.8s5.8,2.6,5.8,5.8c0,3.2-2.6,5.8-5.8,5.8S673.7,763,673.7,759.7z"/>
		</g>
		<g>
			<path fill="#0D4034" d="M693.6,759.7c0-3.2,2.6-5.8,5.8-5.8c3.2,0,5.8,2.6,5.8,5.8c0,3.2-2.6,5.8-5.8,5.8
				C696.2,765.6,693.6,763,693.6,759.7z"/>
		</g>
		<g>
			<rect x="738.6" y="727" fill="#576B66" width="2.9" height="10.8"/>
			<rect x="731.9" y="727" fill="#576B66" width="2.9" height="10.8"/>
			<rect x="725.3" y="727" fill="#576B66" width="2.9" height="10.8"/>
			<rect x="718.7" y="727" fill="#576B66" width="2.9" height="10.8"/>
			<rect x="712.1" y="727" fill="#576B66" width="2.9" height="10.8"/>
			<rect x="705.4" y="727" fill="#576B66" width="2.9" height="10.8"/>
			<rect x="698.8" y="727" fill="#576B66" width="2.9" height="10.8"/>
			<rect x="692.2" y="727" fill="#576B66" width="2.9" height="10.8"/>
			<rect x="685.6" y="727" fill="#576B66" width="2.9" height="10.8"/>
			<rect x="678.9" y="727" fill="#576B66" width="2.9" height="10.8"/>
			<rect x="672.3" y="727" fill="#576B66" width="2.9" height="10.8"/>
			<rect x="665.7" y="727" fill="#576B66" width="2.9" height="10.8"/>
			<rect x="659.1" y="727" fill="#576B66" width="2.9" height="10.8"/>
			<rect x="652.4" y="727" fill="#576B66" width="2.9" height="10.8"/>
			<rect x="645.8" y="727" fill="#576B66" width="2.9" height="10.8"/>
			<rect x="637.3" y="725.5" fill="#708A83" width="107.5" height="3"/>
		</g>
		<g>
			<rect x="544.2" y="705.3" fill="#576B66" width="2.9" height="10.8"/>
			<rect x="537.6" y="705.3" fill="#576B66" width="2.9" height="10.8"/>
			<rect x="531" y="705.3" fill="#576B66" width="2.9" height="10.8"/>
			<rect x="524.4" y="705.3" fill="#576B66" width="2.9" height="10.8"/>
			<rect x="517.7" y="705.3" fill="#576B66" width="2.9" height="10.8"/>
			<rect x="511.1" y="705.3" fill="#576B66" width="2.9" height="10.8"/>
			<rect x="504.5" y="705.3" fill="#576B66" width="2.9" height="10.8"/>
			<rect x="497.9" y="705.3" fill="#576B66" width="2.9" height="10.8"/>
			<rect x="491.2" y="705.3" fill="#576B66" width="2.9" height="10.8"/>
			<rect x="482.7" y="703.8" fill="#708A83" width="64.4" height="3"/>
		</g>
	</g>
	<g>
		<circle fill="#4BB8C7" cx="507.8" cy="798.9" r="15.8"/>
		<circle fill="#4BB8C7" cx="536.8" cy="798.9" r="15.8"/>
		<circle fill="#4BB8C7" cx="565.8" cy="798.9" r="15.8"/>
		<circle fill="#4BB8C7" cx="594.8" cy="798.9" r="15.8"/>
		<circle fill="#4BB8C7" cx="623.8" cy="798.9" r="15.8"/>
		<circle fill="#4BB8C7" cx="652.8" cy="798.9" r="15.8"/>
		<circle fill="#4BB8C7" cx="681.8" cy="798.9" r="15.8"/>
		<circle fill="#4BB8C7" cx="710.8" cy="798.9" r="15.8"/>
		<circle fill="#4BB8C7" cx="739.8" cy="798.9" r="15.8"/>
		<circle fill="#4BB8C7" cx="768.8" cy="798.9" r="15.8"/>
		<circle fill="#4BB8C7" cx="797.8" cy="798.9" r="15.8"/>
		<circle fill="#4BB8C7" cx="826.8" cy="798.9" r="15.8"/>
		<circle fill="#4BB8C7" cx="855.8" cy="798.9" r="15.8"/>
	</g>
</g>
</svg>
